<svg width="26" height="26" viewBox="0 0 26 26" fill="none" xmlns="http://www.w3.org/2000/svg">
<g id="delivery box">
<path id="Icon" d="M3.74402 7.84329L4.17277 8.10054H4.17277L3.74402 7.84329ZM5.49015 4.93308L5.9189 5.19033L5.49015 4.93308ZM20.5098 4.93308L20.0811 5.19033V5.19033L20.5098 4.93308ZM22.256 7.84329L21.8272 8.10054L22.256 7.84329ZM18.9324 3.35269L18.7803 3.82899L18.7803 3.82899L18.9324 3.35269ZM19.704 3.78956L20.0341 3.41408L20.0341 3.41407L19.704 3.78956ZM6.29602 3.78956L6.62619 4.16505L6.62619 4.16505L6.29602 3.78956ZM7.06762 3.35269L6.91551 2.87639L6.91551 2.87639L7.06762 3.35269ZM22.7216 8.91706L22.2281 8.99777V8.99777L22.7216 8.91706ZM22.5968 8.46657L23.0615 8.28191L23.0615 8.2819L22.5968 8.46657ZM21.567 22.5138L21.34 22.0683L21.567 22.5138ZM22.5138 21.567L22.0683 21.34L22.5138 21.567ZM3.48615 21.567L3.04065 21.794H3.04065L3.48615 21.567ZM4.43302 22.5138L4.66002 22.0683H4.66001L4.43302 22.5138ZM3.27841 8.91706L2.78497 8.83635L3.27841 8.91706ZM3.40319 8.46657L2.93854 8.2819L2.93854 8.2819L3.40319 8.46657ZM4.33333 8.16667C4.05719 8.16667 3.83333 8.39052 3.83333 8.66667C3.83333 8.94281 4.05719 9.16667 4.33333 9.16667V8.16667ZM21.6667 9.16667C21.9428 9.16667 22.1667 8.94281 22.1667 8.66667C22.1667 8.39052 21.9428 8.16667 21.6667 8.16667V9.16667ZM10.8333 12.5C10.5572 12.5 10.3333 12.7239 10.3333 13C10.3333 13.2761 10.5572 13.5 10.8333 13.5V12.5ZM15.1667 13.5C15.4428 13.5 15.6667 13.2761 15.6667 13C15.6667 12.7239 15.4428 12.5 15.1667 12.5V13.5ZM12.5 8.66667C12.5 8.94281 12.7239 9.16667 13 9.16667C13.2761 9.16667 13.5 8.94281 13.5 8.66667H12.5ZM13.5 3.25C13.5 2.97386 13.2761 2.75 13 2.75C12.7239 2.75 12.5 2.97386 12.5 3.25H13.5ZM2.75 9.62688V19.2833H3.75V9.62688H2.75ZM6.71667 23.25H19.2833V22.25H6.71667V23.25ZM23.25 19.2833V9.62688H22.25V19.2833H23.25ZM4.17277 8.10054L5.9189 5.19033L5.0614 4.67583L3.31528 7.58604L4.17277 8.10054ZM8.46279 3.75H17.5372V2.75H8.46279V3.75ZM20.0811 5.19033L21.8272 8.10054L22.6847 7.58604L20.9386 4.67583L20.0811 5.19033ZM17.5372 3.75C18.286 3.75 18.5505 3.75562 18.7803 3.82899L19.0845 2.87639C18.6711 2.74438 18.2199 2.75 17.5372 2.75V3.75ZM20.9386 4.67583C20.5873 4.09042 20.36 3.70061 20.0341 3.41408L19.3738 4.16505C19.5549 4.32432 19.6959 4.54826 20.0811 5.19033L20.9386 4.67583ZM18.7803 3.82899C18.9992 3.8989 19.2012 4.01331 19.3738 4.16505L20.0341 3.41407C19.758 3.1713 19.4347 2.98824 19.0845 2.87639L18.7803 3.82899ZM5.9189 5.19033C6.30414 4.54826 6.44506 4.32432 6.62619 4.16505L5.96585 3.41408C5.63999 3.70061 5.41265 4.09042 5.0614 4.67583L5.9189 5.19033ZM8.46279 2.75C7.78009 2.75 7.32887 2.74438 6.91551 2.87639L7.21972 3.82899C7.44949 3.75562 7.71401 3.75 8.46279 3.75V2.75ZM6.62619 4.16505C6.79875 4.01331 7.00083 3.8989 7.21972 3.82899L6.91551 2.87639C6.56528 2.98824 6.24196 3.1713 5.96585 3.41408L6.62619 4.16505ZM23.25 9.62688C23.25 9.28519 23.2515 9.05935 23.215 8.83635L22.2281 8.99777C22.2485 9.1222 22.25 9.25377 22.25 9.62688H23.25ZM21.8272 8.10054C22.0192 8.42048 22.0856 8.53407 22.1322 8.65124L23.0615 8.2819C22.978 8.07192 22.8605 7.87904 22.6847 7.58604L21.8272 8.10054ZM23.215 8.83635C23.184 8.64654 23.1325 8.46064 23.0615 8.28191L22.1322 8.65124C22.1766 8.76295 22.2087 8.87914 22.2281 8.99777L23.215 8.83635ZM19.2833 23.25C19.8818 23.25 20.3607 23.2504 20.7471 23.2188C21.1393 23.1868 21.48 23.1193 21.794 22.9594L21.34 22.0683C21.1905 22.1445 20.9961 22.1951 20.6657 22.2221C20.3295 22.2496 19.8983 22.25 19.2833 22.25V23.25ZM22.25 19.2833C22.25 19.8983 22.2496 20.3295 22.2221 20.6657C22.1951 20.9961 22.1445 21.1905 22.0683 21.34L22.9594 21.794C23.1193 21.48 23.1868 21.1393 23.2188 20.7471C23.2504 20.3607 23.25 19.8818 23.25 19.2833H22.25ZM21.794 22.9594C22.2957 22.7037 22.7037 22.2957 22.9594 21.794L22.0683 21.34C21.9086 21.6536 21.6536 21.9086 21.34 22.0683L21.794 22.9594ZM2.75 19.2833C2.75 19.8818 2.74961 20.3607 2.78118 20.7471C2.81323 21.1393 2.88067 21.48 3.04065 21.794L3.93166 21.34C3.85548 21.1905 3.80485 20.9961 3.77786 20.6657C3.75039 20.3295 3.75 19.8983 3.75 19.2833H2.75ZM6.71667 22.25C6.10169 22.25 5.67053 22.2496 5.33432 22.2221C5.00394 22.1951 4.80952 22.1445 4.66002 22.0683L4.20603 22.9594C4.52 23.1193 4.86067 23.1868 5.25289 23.2188C5.63927 23.2504 6.11819 23.25 6.71667 23.25V22.25ZM3.04065 21.794C3.29631 22.2957 3.70426 22.7037 4.20603 22.9594L4.66001 22.0683C4.34641 21.9086 4.09144 21.6536 3.93166 21.34L3.04065 21.794ZM3.75 9.62688C3.75 9.25377 3.7515 9.1222 3.77186 8.99777L2.78497 8.83635C2.7485 9.05935 2.75 9.28519 2.75 9.62688H3.75ZM3.31528 7.58604C3.13948 7.87904 3.022 8.07192 2.93854 8.2819L3.86784 8.65124C3.91441 8.53407 3.98081 8.42048 4.17277 8.10054L3.31528 7.58604ZM3.77186 8.99777C3.79126 8.87914 3.82344 8.76295 3.86784 8.65124L2.93854 8.2819C2.86751 8.46064 2.81602 8.64654 2.78497 8.83635L3.77186 8.99777ZM4.33333 9.16667H21.6667V8.16667H4.33333V9.16667ZM10.8333 13.5H15.1667V12.5H10.8333V13.5ZM13.5 8.66667V3.25H12.5V8.66667H13.5Z" fill="#0066FF"/>
</g>
</svg>
