<svg width="36" height="36" viewBox="0 0 36 36" fill="none" xmlns="http://www.w3.org/2000/svg">
<g id="edit message">
<path id="Icon" d="M7.77606 30.846L8.04845 30.3114H8.04845L7.77606 30.846ZM5.15396 28.2239L4.61936 28.4963H4.61936L5.15396 28.2239ZM28.2239 5.15396L28.4963 4.61936V4.61936L28.2239 5.15396ZM30.846 7.77606L30.3114 8.04845V8.04845L30.846 7.77606ZM7.77606 5.15396L8.04845 5.68856V5.68856L7.77606 5.15396ZM5.15396 7.77606L5.68856 8.04845H5.68856L5.15396 7.77606ZM30.9 16.5C30.9 16.8314 31.1686 17.1 31.5 17.1C31.8314 17.1 32.1 16.8314 32.1 16.5H30.9ZM16.5 32.1C16.8314 32.1 17.1 31.8314 17.1 31.5C17.1 31.1686 16.8314 30.9 16.5 30.9V32.1ZM12 11.4C11.6686 11.4 11.4 11.6686 11.4 12C11.4 12.3314 11.6686 12.6 12 12.6V11.4ZM24 12.6C24.3314 12.6 24.6 12.3314 24.6 12C24.6 11.6686 24.3314 11.4 24 11.4V12.6ZM12 17.4C11.6686 17.4 11.4 17.6686 11.4 18C11.4 18.3314 11.6686 18.6 12 18.6V17.4ZM24 18.6C24.3314 18.6 24.6 18.3314 24.6 18C24.6 17.6686 24.3314 17.4 24 17.4V18.6ZM12 23.4C11.6686 23.4 11.4 23.6686 11.4 24C11.4 24.3314 11.6686 24.6 12 24.6V23.4ZM18 24.6C18.3314 24.6 18.6 24.3314 18.6 24C18.6 23.6686 18.3314 23.4 18 23.4V24.6ZM21.3798 32.2449L21.949 32.4346L21.3798 32.2449ZM22.074 30.1623L21.5048 29.9726L22.074 30.1623ZM22.7903 29.0033L23.2146 29.4276H23.2146L22.7903 29.0033ZM29.7081 22.0856L29.2838 21.6613L29.7081 22.0856ZM33.4144 25.7919L33.8387 26.2162L33.4144 25.7919ZM26.4967 32.7097L26.0724 32.2854V32.2854L26.4967 32.7097ZM25.3377 33.426L25.5274 33.9952L25.3377 33.426ZM23.2551 34.1202L23.4449 34.6894H23.4449L23.2551 34.1202ZM26.1167 33.0643L26.4781 33.5433L26.1167 33.0643ZM25.8248 33.2447L25.558 32.7073L25.8248 33.2447ZM33.4144 22.0856L32.9902 22.5098L33.4144 22.0856ZM34.3073 23.1159L34.8449 22.8495L34.3073 23.1159ZM34.3073 24.7616L34.8449 25.028L34.3073 24.7616ZM30.7384 21.1927L31.0048 21.7303L30.7384 21.1927ZM32.3841 21.1927L32.1177 21.7303L32.3841 21.1927ZM22.2553 29.6752L22.7927 29.942H22.7927L22.2553 29.6752ZM22.4357 29.3833L21.9567 29.0219L22.4357 29.3833ZM21.0345 33.904L21.5996 33.7024L21.0345 33.904ZM21.596 34.4655L21.3945 35.0306L21.596 34.4655ZM14.1 5.1H21.9V3.9H14.1V5.1ZM5.1 21.9V14.1H3.9V21.9H5.1ZM14.1 30.9C12.4099 30.9 11.1785 30.8995 10.2081 30.8202C9.24466 30.7415 8.59151 30.5881 8.04845 30.3114L7.50366 31.3806C8.24408 31.7579 9.07274 31.9315 10.1104 32.0163C11.141 32.1005 12.4297 32.1 14.1 32.1V30.9ZM3.9 21.9C3.9 23.5703 3.89953 24.859 3.98374 25.8896C4.06851 26.9273 4.2421 27.7559 4.61936 28.4963L5.68856 27.9515C5.41186 27.4085 5.25847 26.7553 5.17975 25.7919C5.10047 24.8215 5.1 23.5901 5.1 21.9H3.9ZM8.04845 30.3114C7.03238 29.7937 6.20628 28.9676 5.68856 27.9515L4.61936 28.4963C5.25212 29.7382 6.26179 30.7479 7.50366 31.3806L8.04845 30.3114ZM21.9 5.1C23.5901 5.1 24.8215 5.10047 25.7919 5.17975C26.7553 5.25847 27.4085 5.41186 27.9515 5.68856L28.4963 4.61936C27.7559 4.2421 26.9273 4.06851 25.8896 3.98374C24.859 3.89953 23.5703 3.9 21.9 3.9V5.1ZM32.1 14.1C32.1 12.4297 32.1005 11.141 32.0163 10.1104C31.9315 9.07274 31.7579 8.24408 31.3806 7.50366L30.3114 8.04845C30.5881 8.59151 30.7415 9.24466 30.8202 10.2081C30.8995 11.1785 30.9 12.4099 30.9 14.1H32.1ZM27.9515 5.68856C28.9676 6.20628 29.7937 7.03238 30.3114 8.04845L31.3806 7.50366C30.7479 6.26179 29.7382 5.25212 28.4963 4.61936L27.9515 5.68856ZM14.1 3.9C12.4297 3.9 11.141 3.89953 10.1104 3.98374C9.07274 4.06851 8.24408 4.2421 7.50366 4.61936L8.04845 5.68856C8.59151 5.41186 9.24466 5.25847 10.2081 5.17975C11.1785 5.10047 12.4099 5.1 14.1 5.1V3.9ZM5.1 14.1C5.1 12.4099 5.10047 11.1785 5.17975 10.2081C5.25847 9.24466 5.41186 8.59151 5.68856 8.04845L4.61936 7.50366C4.2421 8.24408 4.06851 9.07274 3.98374 10.1104C3.89953 11.141 3.9 12.4297 3.9 14.1H5.1ZM7.50366 4.61936C6.26179 5.25212 5.25212 6.26179 4.61936 7.50366L5.68856 8.04845C6.20628 7.03238 7.03238 6.20628 8.04845 5.68856L7.50366 4.61936ZM30.9 14.1V16.5H32.1V14.1H30.9ZM14.1 32.1H16.5V30.9H14.1V32.1ZM12 12.6H24V11.4H12V12.6ZM12 18.6H24V17.4H12V18.6ZM12 24.6H18V23.4H12V24.6ZM21.949 32.4346L22.6432 30.3521L21.5048 29.9726L20.8106 32.0551L21.949 32.4346ZM23.2146 29.4276L30.1323 22.5098L29.2838 21.6613L22.3661 28.5791L23.2146 29.4276ZM32.9902 25.3677L26.0724 32.2854L26.9209 33.1339L33.8387 26.2162L32.9902 25.3677ZM25.1479 32.8568L23.0654 33.551L23.4449 34.6894L25.5274 33.9952L25.1479 32.8568ZM26.0724 32.2854C25.8765 32.4813 25.8174 32.5385 25.7554 32.5853L26.4781 33.5433C26.6221 33.4346 26.7477 33.3072 26.9209 33.1339L26.0724 32.2854ZM25.5274 33.9952C25.7599 33.9177 25.93 33.8624 26.0916 33.7821L25.558 32.7073C25.4883 32.7419 25.4108 32.7692 25.1479 32.8568L25.5274 33.9952ZM25.7554 32.5853C25.6935 32.632 25.6274 32.6729 25.558 32.7073L26.0916 33.7821C26.2275 33.7147 26.3569 33.6347 26.4781 33.5433L25.7554 32.5853ZM32.9902 22.5098C33.5296 23.0493 33.6894 23.2203 33.7697 23.3823L34.8449 22.8495C34.6551 22.4665 34.3097 22.1323 33.8387 21.6613L32.9902 22.5098ZM33.8387 26.2162C34.3097 25.7452 34.6551 25.411 34.8449 25.028L33.7697 24.4952C33.6894 24.6572 33.5296 24.8282 32.9902 25.3677L33.8387 26.2162ZM33.7697 23.3823C33.9434 23.7329 33.9434 24.1446 33.7697 24.4952L34.8449 25.028C35.185 24.3417 35.185 23.5358 34.8449 22.8495L33.7697 23.3823ZM30.1323 22.5098C30.6718 21.9704 30.8428 21.8106 31.0048 21.7303L30.472 20.6551C30.089 20.8449 29.7548 21.1903 29.2838 21.6613L30.1323 22.5098ZM33.8387 21.6613C33.3677 21.1903 33.0335 20.8449 32.6505 20.6551L32.1177 21.7303C32.2797 21.8106 32.4507 21.9704 32.9902 22.5098L33.8387 21.6613ZM31.0048 21.7303C31.3554 21.5566 31.7671 21.5566 32.1177 21.7303L32.6505 20.6551C31.9642 20.315 31.1583 20.315 30.472 20.6551L31.0048 21.7303ZM22.6432 30.3521C22.7308 30.0892 22.7581 30.0117 22.7927 29.942L21.7179 29.4084C21.6376 29.57 21.5823 29.7401 21.5048 29.9726L22.6432 30.3521ZM22.3661 28.5791C22.1928 28.7523 22.0654 28.8779 21.9567 29.0219L22.9147 29.7446C22.9615 29.6826 23.0187 29.6235 23.2146 29.4276L22.3661 28.5791ZM22.7927 29.942C22.8271 29.8726 22.868 29.8065 22.9147 29.7446L21.9567 29.0219C21.8653 29.1431 21.7853 29.2725 21.7179 29.4084L22.7927 29.942ZM20.8106 32.0551C20.6635 32.4965 20.5394 32.8668 20.4697 33.1638C20.402 33.4519 20.3548 33.7843 20.4694 34.1055L21.5996 33.7024C21.6068 33.7226 21.5815 33.6782 21.6378 33.4383C21.6921 33.2073 21.7944 32.8986 21.949 32.4346L20.8106 32.0551ZM23.0654 33.551C22.6014 33.7056 22.2927 33.8079 22.0617 33.8622C21.8218 33.9185 21.7774 33.8932 21.7976 33.9004L21.3945 35.0306C21.7157 35.1452 22.0481 35.098 22.3362 35.0303C22.6332 34.9606 23.0035 34.8365 23.4449 34.6894L23.0654 33.551ZM20.4694 34.1055C20.6233 34.5371 20.9629 34.8767 21.3945 35.0306L21.7976 33.9004C21.7052 33.8674 21.6326 33.7948 21.5996 33.7024L20.4694 34.1055Z" fill="white"/>
</g>
</svg>
