<svg width="36" height="36" viewBox="0 0 36 36" fill="none" xmlns="http://www.w3.org/2000/svg">
<g id="share">
<path id="Icon" d="M31.1871 19.5304C31.5533 19.2166 31.7364 19.0596 31.8035 18.8729C31.8624 18.709 31.8624 18.5297 31.8035 18.3658C31.7364 18.179 31.5533 18.0221 31.1871 17.7082L18.481 6.81729C17.8507 6.277 17.5355 6.00685 17.2687 6.00023C17.0368 5.99448 16.8153 6.09636 16.6687 6.27618C16.5001 6.48308 16.5001 6.89819 16.5001 7.7284V14.1713C13.2981 14.7315 10.3675 16.354 8.18966 18.7901C5.81534 21.4461 4.50195 24.8833 4.5001 28.4458V29.3638C6.07411 27.4676 8.03936 25.9341 10.2612 24.8682C12.2201 23.9285 14.3377 23.3718 16.5001 23.2251V29.5103C16.5001 30.3405 16.5001 30.7556 16.6687 30.9625C16.8153 31.1423 17.0368 31.2442 17.2687 31.2384C17.5355 31.2318 17.8507 30.9617 18.481 30.4214L31.1871 19.5304Z" stroke="#0066FF" stroke-width="1.2" stroke-linecap="round" stroke-linejoin="round"/>
</g>
</svg>
