<svg width="26" height="26" viewBox="0 0 26 26" fill="none" xmlns="http://www.w3.org/2000/svg">
<g id="user/circle">
<path id="Icon" d="M20.5157 20.1076C20.1238 19.3398 19.6067 18.6195 18.9642 17.977C15.6698 14.6826 10.3285 14.6826 7.03414 17.977C6.39168 18.6195 5.87451 19.3398 5.48263 20.1076M2.13086 13.0001C2.13086 6.99771 6.99674 2.13184 12.9991 2.13184C19.0015 2.13184 23.8674 6.99772 23.8674 13.0001C23.8674 19.0025 19.0015 23.8683 12.9991 23.8683C6.99674 23.8683 2.13086 19.0024 2.13086 13.0001ZM16.9512 11.024C16.9512 13.2067 15.1818 14.9761 12.9991 14.9761C10.8164 14.9761 9.04702 13.2067 9.04702 11.024C9.04702 8.84136 10.8164 7.07195 12.9991 7.07195C15.1818 7.07195 16.9512 8.84136 16.9512 11.024Z" stroke="#0066FF"/>
</g>
</svg>
