<svg width="191" height="117" viewBox="0 0 191 117" fill="none" xmlns="http://www.w3.org/2000/svg">
<path d="M191 0H141.49V30.3918H172.525C177.453 30.2514 182.151 26.988 185.606 21.3039C189.061 15.6199 190.998 7.96973 191 0Z" fill="#0066FF"/>
<path d="M110.09 0V46.4767H90.3814V0H0C0.00154626 7.97366 1.94034 15.6272 5.39869 21.3119C8.85705 26.9966 13.5582 30.2574 18.4893 30.3918H27.5754V117H49.0525V30.3918H68.8957V117H90.3728V69.7336H110.082V117H131.559V0H110.09Z" fill="#0066FF"/>
<path d="M162.964 86.4788V69.789H171.594C175.425 69.7878 179.099 67.3262 181.808 62.9458C184.516 58.5654 186.038 52.6248 186.038 46.4305H148.454C146.607 46.4305 144.836 47.6168 143.53 49.7282C142.224 51.8397 141.49 54.7034 141.49 57.6895V117H172.122C177.129 117 181.93 113.784 185.471 108.061C189.011 102.337 191 94.5736 191 86.4788H162.964Z" fill="#0066FF"/>
</svg>
