<svg width="20" height="20" viewBox="0 0 20 20" fill="none" xmlns="http://www.w3.org/2000/svg">
<g id="document/2">
<path id="Icon" d="M14.0007 18.3337V17.8337V18.3337ZM6.00065 18.3337V18.8337V18.3337ZM3.33398 15.667H2.83398H3.33398ZM3.33399 4.33366H3.83399H3.33399ZM3.51564 2.57701L3.07014 2.35001L3.07014 2.35001L3.51564 2.57701ZM6.00065 1.66699V2.16699V1.66699ZM4.244 1.84865L4.01701 1.40314L4.01701 1.40315L4.244 1.84865ZM4.244 18.152L4.017 18.5975L4.244 18.152ZM3.51564 17.4236L3.96114 17.1966H3.96114L3.51564 17.4236ZM15.7573 18.152L15.5303 17.7065L15.7573 18.152ZM16.6673 15.667H17.1673H16.6673ZM16.4857 17.4236L16.0402 17.1966L16.4857 17.4236ZM17.1673 6.66699C17.1673 6.39085 16.9435 6.16699 16.6673 6.16699C16.3912 6.16699 16.1673 6.39085 16.1673 6.66699H17.1673ZM11.6673 2.16699C11.9435 2.16699 12.1673 1.94314 12.1673 1.66699C12.1673 1.39085 11.9435 1.16699 11.6673 1.16699V2.16699ZM16.5251 6.52473L16.8786 6.17118L16.5251 6.52473ZM11.8096 1.80925L11.456 2.16281V2.16281L11.8096 1.80925ZM16.4661 6.66699L16.4661 7.16699L16.4661 6.66699ZM12.5007 6.66699V6.16699V6.66699ZM11.6673 5.83366H12.1673H11.6673ZM11.6673 1.86818L11.1673 1.86818V1.86818H11.6673ZM6.66732 9.50033C6.39118 9.50033 6.16732 9.72418 6.16732 10.0003C6.16732 10.2765 6.39118 10.5003 6.66732 10.5003V9.50033ZM13.334 10.5003C13.6101 10.5003 13.834 10.2765 13.834 10.0003C13.834 9.72418 13.6101 9.50033 13.334 9.50033V10.5003ZM6.66732 6.16699C6.39118 6.16699 6.16732 6.39085 6.16732 6.66699C6.16732 6.94314 6.39118 7.16699 6.66732 7.16699V6.16699ZM8.33398 7.16699C8.61013 7.16699 8.83398 6.94314 8.83398 6.66699C8.83398 6.39085 8.61013 6.16699 8.33398 6.16699V7.16699ZM6.66732 12.8337C6.39118 12.8337 6.16732 13.0575 6.16732 13.3337C6.16732 13.6098 6.39118 13.8337 6.66732 13.8337V12.8337ZM13.334 13.8337C13.6101 13.8337 13.834 13.6098 13.834 13.3337C13.834 13.0575 13.6101 12.8337 13.334 12.8337V13.8337ZM14.0007 17.8337H6.00065V18.8337H14.0007V17.8337ZM3.83398 15.667L3.83399 4.33366H2.83399L2.83398 15.667H3.83398ZM3.83399 4.33366C3.83399 3.8587 3.83437 3.53255 3.85503 3.27971C3.87521 3.03271 3.91222 2.90003 3.96114 2.804L3.07014 2.35001C2.93741 2.61051 2.88359 2.88944 2.85835 3.19828C2.8336 3.50128 2.83399 3.8752 2.83399 4.33366H3.83399ZM6.00065 1.16699C5.54219 1.16699 5.16828 1.1666 4.86527 1.19136C4.55643 1.21659 4.2775 1.27042 4.01701 1.40314L4.471 2.29415C4.56702 2.24522 4.6997 2.20822 4.9467 2.18804C5.19954 2.16738 5.52569 2.16699 6.00065 2.16699V1.16699ZM3.96114 2.804C4.073 2.58448 4.25147 2.406 4.471 2.29415L4.01701 1.40315C3.60932 1.61087 3.27786 1.94233 3.07014 2.35001L3.96114 2.804ZM6.00065 17.8337C5.52569 17.8337 5.19954 17.8333 4.9467 17.8126C4.6997 17.7924 4.56702 17.7554 4.471 17.7065L4.017 18.5975C4.2775 18.7302 4.55643 18.7841 4.86527 18.8093C5.16827 18.834 5.54219 18.8337 6.00065 18.8337V17.8337ZM2.83398 15.667C2.83398 16.1255 2.8336 16.4994 2.85835 16.8024C2.88359 17.1112 2.93741 17.3901 3.07014 17.6506L3.96114 17.1966C3.91222 17.1006 3.87521 16.9679 3.85503 16.7209C3.83437 16.4681 3.83398 16.142 3.83398 15.667H2.83398ZM4.471 17.7065C4.25147 17.5946 4.073 17.4162 3.96114 17.1966L3.07014 17.6506C3.27786 18.0583 3.60932 18.3898 4.017 18.5975L4.471 17.7065ZM14.0007 18.8337C14.4591 18.8337 14.833 18.834 15.136 18.8093C15.4449 18.7841 15.7238 18.7302 15.9843 18.5975L15.5303 17.7065C15.4343 17.7554 15.3016 17.7924 15.0546 17.8126C14.8018 17.8333 14.4756 17.8337 14.0007 17.8337V18.8337ZM16.1673 15.667C16.1673 16.142 16.1669 16.4681 16.1463 16.7209C16.1261 16.9679 16.0891 17.1006 16.0402 17.1966L16.9312 17.6506C17.0639 17.3901 17.1177 17.1112 17.143 16.8024C17.1677 16.4994 17.1673 16.1255 17.1673 15.667H16.1673ZM15.9843 18.5975C16.392 18.3898 16.7234 18.0583 16.9312 17.6506L16.0402 17.1966C15.9283 17.4162 15.7498 17.5946 15.5303 17.7065L15.9843 18.5975ZM16.1673 6.66699V15.667H17.1673V6.66699H16.1673ZM6.00065 2.16699L11.6673 2.16699V1.16699L6.00065 1.16699V2.16699ZM16.8786 6.17118L12.1631 1.4557L11.456 2.16281L16.1715 6.87829L16.8786 6.17118ZM16.4661 6.16699L12.5007 6.16699V7.16699L16.4661 7.16699L16.4661 6.16699ZM12.1673 5.83366V1.86818H11.1673V5.83366H12.1673ZM12.5007 6.16699C12.3166 6.16699 12.1673 6.01775 12.1673 5.83366H11.1673C11.1673 6.57004 11.7643 7.16699 12.5007 7.16699V6.16699ZM12.1631 1.4557C11.7957 1.08822 11.1673 1.34848 11.1673 1.86818L12.1673 1.86818C12.1673 2.23939 11.7185 2.42529 11.456 2.16281L12.1631 1.4557ZM16.1715 6.87829C15.909 6.6158 16.0949 6.16699 16.4661 6.16699L16.4661 7.16699C16.9858 7.16699 17.2461 6.53866 16.8786 6.17118L16.1715 6.87829ZM6.66732 10.5003H13.334V9.50033H6.66732V10.5003ZM6.66732 7.16699H8.33398V6.16699H6.66732V7.16699ZM6.66732 13.8337H13.334V12.8337H6.66732V13.8337Z" fill="#0066FF"/>
</g>
</svg>
