<svg width="20" height="20" viewBox="0 0 20 20" fill="none" xmlns="http://www.w3.org/2000/svg">
<g id="edit/2">
<path id="Icon" d="M4.17754 14.1366L4.65189 14.2947H4.65189L4.17754 14.1366ZM4.80187 12.2636L4.32753 12.1055H4.32753L4.80187 12.2636ZM5.44607 11.2213L5.79962 11.5748L5.79962 11.5748L5.44607 11.2213ZM11.6676 4.99975L11.3141 4.64619L11.3141 4.64619L11.6676 4.99975ZM15.0009 8.33308L15.3545 8.68664L15.0009 8.33308ZM8.7794 14.5546L8.42585 14.2011L8.42585 14.2011L8.7794 14.5546ZM7.73706 15.1988L7.89517 15.6732H7.89517L7.73706 15.1988ZM5.86409 15.8231L6.02221 16.2975H6.02221L5.86409 15.8231ZM8.4377 14.8736L8.13658 14.4744L8.13658 14.4744L8.4377 14.8736ZM8.17514 15.0358L7.95279 14.588L8.17514 15.0358ZM15.8039 5.92639L15.3559 6.1484V6.1484L15.8039 5.92639ZM15.8039 7.40644L15.3559 7.18443V7.18443L15.8039 7.40644ZM12.5942 4.19674L12.8163 4.64475L12.8163 4.64475L12.5942 4.19674ZM14.0743 4.19674L13.8523 4.64475V4.64475L14.0743 4.19674ZM4.96486 11.8255L5.4127 12.0479L5.4127 12.0479L4.96486 11.8255ZM5.12713 11.563L4.72797 11.2619L4.72797 11.2619L5.12713 11.563ZM3.86696 15.6287L3.39601 15.7966L3.86696 15.6287ZM4.37199 16.1337L4.20405 16.6047H4.20405L4.37199 16.1337ZM11.1878 5.47956C10.9926 5.28429 10.676 5.28429 10.4807 5.47956C10.2854 5.67482 10.2854 5.9914 10.4807 6.18666L11.1878 5.47956ZM13.814 9.52C14.0093 9.71526 14.3259 9.71526 14.5212 9.52C14.7164 9.32473 14.7164 9.00815 14.5212 8.81289L13.814 9.52ZM10.0009 16.1664C9.72479 16.1664 9.50094 16.3903 9.50094 16.6664C9.50094 16.9426 9.72479 17.1664 10.0009 17.1664V16.1664ZM15.8343 17.1664C16.1104 17.1664 16.3343 16.9426 16.3343 16.6664C16.3343 16.3903 16.1104 16.1664 15.8343 16.1664V17.1664ZM4.65189 14.2947L5.27621 12.4217L4.32753 12.1055L3.7032 13.9785L4.65189 14.2947ZM5.79962 11.5748L12.0212 5.3533L11.3141 4.64619L5.09252 10.8677L5.79962 11.5748ZM14.6474 7.97953L8.42585 14.2011L9.13296 14.9082L15.3545 8.68664L14.6474 7.97953ZM7.57895 14.7245L5.70598 15.3488L6.02221 16.2975L7.89517 15.6732L7.57895 14.7245ZM8.42585 14.2011C8.2504 14.3765 8.1951 14.4302 8.13658 14.4744L8.73882 15.2727C8.86567 15.177 8.97638 15.0647 9.13296 14.9082L8.42585 14.2011ZM7.89517 15.6732C8.10524 15.6031 8.25518 15.5543 8.39749 15.4837L7.95279 14.588C7.88713 14.6206 7.81434 14.646 7.57895 14.7245L7.89517 15.6732ZM8.13658 14.4744C8.07896 14.5179 8.01744 14.5559 7.95279 14.588L8.39749 15.4837C8.51755 15.4241 8.63182 15.3534 8.73882 15.2727L8.13658 14.4744ZM14.6474 5.3533C15.1303 5.83622 15.2801 5.99538 15.3559 6.1484L16.252 5.70438C16.0849 5.36725 15.7803 5.07202 15.3545 4.64619L14.6474 5.3533ZM15.3545 8.68664C15.7803 8.26081 16.0849 7.96558 16.252 7.62845L15.3559 7.18443C15.2801 7.33745 15.1303 7.49661 14.6474 7.97953L15.3545 8.68664ZM15.3559 6.1484C15.5177 6.4748 15.5177 6.85803 15.3559 7.18443L16.252 7.62845C16.5523 7.02227 16.5523 6.31056 16.252 5.70438L15.3559 6.1484ZM12.0212 5.3533C12.5041 4.87038 12.6632 4.72058 12.8163 4.64475L12.3722 3.74873C12.0351 3.91579 11.7399 4.22037 11.3141 4.64619L12.0212 5.3533ZM15.3545 4.64619C14.9287 4.22037 14.6334 3.91579 14.2963 3.74873L13.8523 4.64475C14.0053 4.72058 14.1645 4.87038 14.6474 5.3533L15.3545 4.64619ZM12.8163 4.64475C13.1427 4.483 13.5259 4.483 13.8523 4.64475L14.2963 3.74873C13.6901 3.44834 12.9784 3.44834 12.3722 3.74873L12.8163 4.64475ZM5.27621 12.4217C5.35467 12.1863 5.3801 12.1136 5.4127 12.0479L4.51702 11.6032C4.44636 11.7455 4.39755 11.8954 4.32753 12.1055L5.27621 12.4217ZM5.09252 10.8677C4.93594 11.0243 4.82367 11.135 4.72797 11.2619L5.52629 11.8641C5.57043 11.8056 5.62418 11.7503 5.79962 11.5748L5.09252 10.8677ZM5.4127 12.0479C5.4448 11.9832 5.48282 11.9217 5.52629 11.8641L4.72797 11.2619C4.64725 11.3689 4.57663 11.4831 4.51702 11.6032L5.4127 12.0479ZM3.7032 13.9785C3.57065 14.3761 3.45978 14.7072 3.39753 14.9721C3.33702 15.2296 3.29702 15.519 3.39601 15.7966L4.33792 15.4608C4.34037 15.4676 4.31995 15.4181 4.37101 15.2008C4.42033 14.9909 4.51303 14.7113 4.65189 14.2947L3.7032 13.9785ZM5.70598 15.3488C5.2894 15.4877 5.00974 15.5804 4.79985 15.6297C4.58253 15.6807 4.53306 15.6603 4.53993 15.6628L4.20405 16.6047C4.48165 16.7037 4.7711 16.6637 5.0286 16.6032C5.29351 16.5409 5.62454 16.43 6.02221 16.2975L5.70598 15.3488ZM3.39601 15.7966C3.53044 16.1736 3.82708 16.4702 4.20405 16.6047L4.53993 15.6628C4.44568 15.6292 4.37152 15.555 4.33792 15.4608L3.39601 15.7966ZM10.4807 6.18666L13.814 9.52L14.5212 8.81289L11.1878 5.47956L10.4807 6.18666ZM10.0009 17.1664H15.8343V16.1664H10.0009V17.1664Z" fill="#0066FF"/>
</g>
</svg>
