<svg width="20" height="20" viewBox="0 0 20 20" fill="none" xmlns="http://www.w3.org/2000/svg">
<g id="swap items">
<path id="Icon" d="M12.5 14.1663H4.16651M12.5 14.1663C12.5 14.9429 12.5 15.3312 12.6269 15.6375C12.796 16.0459 13.1205 16.3703 13.5289 16.5395C13.8351 16.6663 14.2234 16.6663 15 16.6663C15.7766 16.6663 16.1649 16.6663 16.4711 16.5395C16.8795 16.3703 17.204 16.0459 17.3731 15.6375C17.5 15.3312 17.5 14.9429 17.5 14.1663C17.5 13.3898 17.5 13.0015 17.3731 12.6952C17.204 12.2868 16.8795 11.9624 16.4711 11.7932C16.1649 11.6663 15.7766 11.6663 15 11.6663C14.2234 11.6663 13.8351 11.6663 13.5289 11.7932C13.1205 11.9624 12.796 12.2868 12.6269 12.6952C12.5 13.0015 12.5 13.3898 12.5 14.1663ZM4.99984 16.6663L3.0891 14.7556C2.76366 14.4302 2.76366 13.9025 3.0891 13.5771L4.99984 11.6663M7.5 5.83301C7.5 7.21372 6.38071 8.33301 5 8.33301C3.61929 8.33301 2.5 7.21372 2.5 5.83301C2.5 4.4523 3.61929 3.33301 5 3.33301C6.38071 3.33301 7.5 4.4523 7.5 5.83301ZM7.5 5.83301L15.8333 5.83301M15 8.33301L16.9107 6.42226C17.2362 6.09683 17.2362 5.56919 16.9107 5.24375L15 3.33301" stroke="#0066FF" stroke-linecap="round"/>
</g>
</svg>
