<svg width="104" height="36" viewBox="0 0 104 36" fill="none" xmlns="http://www.w3.org/2000/svg">
<g id="Logo">
<g id="Group">
<path id="Vector" d="M65.6321 27.3318V28.2753C65.3908 28.4083 65.053 28.5172 64.5945 28.614C64.136 28.7107 63.6775 28.747 63.2069 28.747C62.1573 28.747 61.4092 28.4688 60.9628 27.9366C60.5043 27.3922 60.2871 26.4971 60.2871 25.2512C60.2871 24.0052 60.5284 23.1706 60.999 22.6263C61.4695 22.0819 62.2176 21.8037 63.2431 21.8037C64.1963 21.8037 64.884 22.0214 65.3063 22.4448C65.7166 22.8803 65.9217 23.594 65.9217 24.598C65.9217 24.7794 65.9217 24.9488 65.9217 25.106C65.9217 25.2633 65.8975 25.4447 65.8613 25.6625H61.4213C61.4213 26.4003 61.5781 26.9326 61.8797 27.2592C62.1814 27.5737 62.6761 27.7309 63.4121 27.7309C63.7982 27.7309 64.2084 27.6946 64.6307 27.6221C65.0409 27.5495 65.3908 27.4527 65.6562 27.3439L65.6321 27.3318ZM64.8961 24.4407C64.8961 23.848 64.7634 23.4246 64.498 23.1706C64.2446 22.9287 63.8223 22.7956 63.2311 22.7956C62.5554 22.7956 62.0849 22.9287 61.8194 23.219C61.5419 23.5093 61.4092 24.0053 61.4092 24.7189H64.884C64.884 24.7189 64.884 24.6585 64.884 24.5859C64.884 24.5133 64.884 24.4649 64.884 24.4407H64.8961Z" fill="white"/>
<path id="Vector_2" d="M69.9137 25.1428L72.1458 28.6266H70.9152L69.226 25.9049L67.5489 28.6266H66.3906L68.6227 25.1428L66.4871 21.9131H67.8023L69.2984 24.3928L70.891 21.9131H72.0734L69.9258 25.1307L69.9137 25.1428Z" fill="white"/>
<path id="Vector_3" d="M74.151 30.6953H73.041V21.9254H74.0062L74.0786 22.5182H74.1148C74.3923 22.2762 74.7302 22.1069 75.1163 21.9738C75.5024 21.8408 75.9247 21.7803 76.359 21.7803C77.2639 21.7803 77.9275 22.0585 78.3136 22.5907C78.7118 23.1351 78.9048 24.0181 78.9048 25.2519C78.9048 26.4858 78.6635 27.3688 78.1809 27.9131C77.6983 28.4575 76.902 28.7236 75.7919 28.7236C75.4541 28.7236 75.1525 28.6994 74.875 28.651C74.5975 28.6026 74.3682 28.5421 74.151 28.4454V30.6953ZM77.7827 25.264C77.7827 24.3447 77.65 23.6915 77.3966 23.3407C77.1433 22.9778 76.6607 22.7964 75.9609 22.7964C75.623 22.7964 75.3093 22.8448 75.0077 22.9294C74.706 23.0262 74.4165 23.1714 74.151 23.3407V27.4293C74.3803 27.514 74.6095 27.5865 74.8508 27.6349C75.0921 27.6833 75.3576 27.7075 75.6592 27.7075C76.4917 27.7075 77.0709 27.526 77.3484 27.1874C77.6379 26.8366 77.7827 26.1955 77.7827 25.264Z" fill="white"/>
<path id="Vector_4" d="M80.8971 28.6388H79.7871V21.9253H80.8006L80.8489 22.4939H80.9092C81.2591 22.2882 81.609 22.131 81.9589 22.0342C82.3088 21.9253 82.6587 21.877 83.0086 21.877H83.3102C83.3102 21.877 83.3947 21.877 83.4309 21.877V22.9535C83.4309 22.9535 83.2982 22.9293 83.1896 22.9293C83.093 22.9293 82.9483 22.9293 82.7431 22.9293C82.4174 22.9293 82.1037 22.9656 81.79 23.0503C81.4763 23.135 81.1746 23.2438 80.8971 23.4011V28.6509V28.6388Z" fill="white"/>
<path id="Vector_5" d="M89.1223 27.3327V28.2762C88.881 28.4093 88.5432 28.5182 88.0847 28.6149C87.6262 28.7117 87.1677 28.748 86.6972 28.748C85.6475 28.748 84.8994 28.4698 84.453 27.9376C83.9945 27.3932 83.7773 26.4981 83.7773 25.2522C83.7773 24.0062 84.0187 23.1716 84.4892 22.6272C84.9598 22.0829 85.7078 21.8047 86.7334 21.8047C87.6866 21.8047 88.3743 22.0224 88.7966 22.4458C89.2068 22.8813 89.4119 23.5949 89.4119 24.5989C89.4119 24.7804 89.4119 24.9497 89.4119 25.107C89.4119 25.2643 89.3878 25.4457 89.3516 25.6634H84.9115C84.9115 26.4013 85.0683 26.9335 85.37 27.2602C85.6716 27.5747 86.1663 27.7319 86.9023 27.7319C87.2884 27.7319 87.6986 27.6956 88.1209 27.623C88.5432 27.5505 88.881 27.4537 89.1465 27.3448L89.1223 27.3327ZM88.3984 24.4417C88.3984 23.849 88.2657 23.4256 88.0002 23.1716C87.7469 22.9296 87.3246 22.7966 86.7334 22.7966C86.0577 22.7966 85.5872 22.9296 85.3217 23.22C85.0442 23.5103 84.9115 24.0062 84.9115 24.7199H88.3863C88.3863 24.7199 88.3863 24.6594 88.3863 24.5869V24.4417H88.3984Z" fill="white"/>
<path id="Vector_6" d="M93.0317 22.7962C92.4526 22.7962 92.0544 22.8688 91.8252 23.0019C91.5959 23.1349 91.4873 23.4131 91.4873 23.8365C91.4873 24.0542 91.5356 24.2236 91.6442 24.3325C91.7528 24.4413 91.9096 24.526 92.1389 24.5623L93.8522 24.8163C94.3951 24.901 94.7691 25.0582 94.9863 25.3244C95.2035 25.5905 95.3121 25.9897 95.3121 26.534C95.3121 27.3203 95.119 27.8767 94.7571 28.2275C94.383 28.5783 93.7677 28.7476 92.911 28.7476C92.4043 28.7476 91.9217 28.7234 91.4753 28.663C91.0288 28.6025 90.6669 28.5299 90.3773 28.4452V27.3928C90.6669 27.4775 91.0168 27.5622 91.4391 27.6227C91.8614 27.6831 92.2836 27.7073 92.7301 27.7073C93.2971 27.7073 93.6712 27.6227 93.8883 27.4654C94.0935 27.3082 94.202 27.0058 94.202 26.5945C94.202 26.3405 94.1417 26.1348 94.0211 26.0259C93.9004 25.9171 93.6832 25.8203 93.3816 25.784L91.6683 25.53C91.2339 25.4695 90.9082 25.3002 90.7031 25.0219C90.498 24.7437 90.3773 24.3566 90.3652 23.8486C90.3652 23.147 90.5704 22.6269 90.9926 22.3003C91.4149 21.9737 92.0544 21.8164 92.9352 21.8164C93.2971 21.8164 93.6229 21.8164 93.9245 21.8406C94.2262 21.8648 94.5278 21.889 94.8536 21.9495V22.9414C94.6123 22.9051 94.3468 22.8688 94.0211 22.8567C93.7194 22.8325 93.3816 22.8083 93.0196 22.8083L93.0317 22.7962Z" fill="white"/>
<path id="Vector_7" d="M98.8618 22.7962C98.2826 22.7962 97.8845 22.8688 97.6552 23.0019C97.426 23.1349 97.3174 23.4131 97.3174 23.8365C97.3174 24.0542 97.3657 24.2236 97.4743 24.3325C97.5828 24.4413 97.7397 24.526 97.9689 24.5623L99.6943 24.8163C100.237 24.901 100.611 25.0582 100.828 25.3244C101.046 25.5905 101.154 25.9897 101.154 26.534C101.154 27.3203 100.961 27.8767 100.599 28.2275C100.225 28.5783 99.6098 28.7476 98.7532 28.7476C98.2464 28.7476 97.7638 28.7234 97.3174 28.663C96.871 28.6025 96.509 28.5299 96.2194 28.4452V27.3928C96.509 27.4775 96.8589 27.5622 97.2812 27.6227C97.7035 27.6831 98.1258 27.7073 98.5722 27.7073C99.1393 27.7073 99.5133 27.6227 99.7305 27.4654C99.9356 27.3082 100.044 27.0058 100.044 26.5945C100.044 26.3405 99.9839 26.1348 99.8632 26.0259C99.7426 25.9171 99.5254 25.8203 99.2237 25.784L97.4984 25.53C97.064 25.4695 96.7383 25.3002 96.5331 25.0219C96.316 24.7437 96.2074 24.3566 96.1953 23.8486C96.1953 23.147 96.4004 22.6269 96.8227 22.3003C97.245 21.9737 97.8845 21.8164 98.7653 21.8164C99.1272 21.8164 99.453 21.8164 99.7546 21.8406C100.056 21.8648 100.358 21.889 100.684 21.9495V22.9414C100.442 22.9051 100.177 22.8688 99.8511 22.8567C99.5495 22.8325 99.2117 22.8083 98.8497 22.8083L98.8618 22.7962Z" fill="white"/>
</g>
<g id="Group_2">
<path id="Vector_8" d="M14.0041 5.31641V7.96551H10.3603V17.7878H7.71798V7.96551H4.07422V5.31641H14.0041Z" fill="white"/>
<path id="Vector_9" d="M15.5098 5.31641H18.1521V10.2154H23.4247V5.31641H26.067V17.7757H23.4247V12.8766H18.1521V17.7757H15.5098V5.31641Z" fill="white"/>
<path id="Vector_10" d="M36.4681 5.31678V7.96589H30.5681V10.2158H35.346V12.8649H30.5681V15.1269H36.4681V17.776H27.9258V5.30469H36.4681V5.31678Z" fill="white"/>
<path id="Vector_11" d="M38.3164 5.31641H40.9587V10.2154H46.2313V5.31641H48.8737V17.7757H46.2313V12.8766H40.9587V17.7757H38.3164V5.31641Z" fill="white"/>
<path id="Vector_12" d="M50.7324 12.8645V5.31641H53.3748V12.8645C53.3748 13.5903 53.6281 14.2072 54.1469 14.7274C54.6658 15.2475 55.2811 15.5016 56.0171 15.5016C56.7531 15.5016 57.3564 15.2475 57.8752 14.7274C58.394 14.2072 58.6474 13.5903 58.6474 12.8645V5.31641H61.2897V12.8645C61.2897 14.3282 60.7709 15.5741 59.7453 16.6023C58.7197 17.6305 57.477 18.1507 56.0171 18.1507C54.5572 18.1507 53.3144 17.6305 52.2889 16.6023C51.2512 15.5741 50.7324 14.3282 50.7324 12.8645Z" fill="white"/>
<path id="Vector_13" d="M65.1832 5.31641L69.3579 10.917L73.5446 5.31641H75.5716V17.7757H72.9293V10.542L69.9612 14.5218H68.7546L65.7744 10.5058V17.7757H63.1562V5.31641H65.1953H65.1832Z" fill="white"/>
<path id="Vector_14" d="M86.4795 16.2636H80.0969L79.385 17.7757H76.4531L82.2928 5.31641H84.2474L90.0871 17.7757H87.1793L86.4674 16.2636H86.4795ZM85.2488 13.6266L83.2942 9.45337L81.3396 13.6266H85.2488Z" fill="white"/>
<path id="Vector_15" d="M93.6228 10.4453V17.7878H90.9805V5.31641H93.1402L98.5093 12.6589V5.31641H101.152V17.7757H98.9919L93.6228 10.4453Z" fill="white"/>
</g>
</g>
</svg>
