<svg width="24" height="24" viewBox="0 0 24 24" fill="none" xmlns="http://www.w3.org/2000/svg">
<g id="Credit Card Icon">
<path id="Icon" d="M3.45602 7.23996L3.88477 7.49721H3.88477L3.45602 7.23996ZM5.06783 4.55361L5.49658 4.81086V4.81086L5.06783 4.55361ZM18.9322 4.55361L18.5034 4.81086V4.81086L18.9322 4.55361ZM20.544 7.23996L20.1152 7.49721L20.544 7.23996ZM17.476 3.09479L17.3239 3.57109L17.3239 3.57109L17.476 3.09479ZM18.1883 3.49806L18.5185 3.12257L18.5185 3.12257L18.1883 3.49806ZM5.81171 3.49806L6.14188 3.87354L6.14188 3.87354L5.81171 3.49806ZM6.52395 3.09479L6.37185 2.61849L6.37185 2.61849L6.52395 3.09479ZM20.9738 8.23113L20.4803 8.31184V8.31185L20.9738 8.23113ZM20.8586 7.8153L21.3232 7.63063L21.3232 7.63063L20.8586 7.8153ZM19.908 20.782L19.681 20.3365L19.908 20.782ZM20.782 19.908L20.3365 19.681L20.782 19.908ZM3.21799 19.908L2.77248 20.135H2.77248L3.21799 19.908ZM4.09202 20.782L4.31901 20.3365H4.31901L4.09202 20.782ZM3.02623 8.23113L2.53278 8.15043L3.02623 8.23113ZM3.14141 7.8153L2.67676 7.63063H2.67676L3.14141 7.8153ZM4 7.5C3.72386 7.5 3.5 7.72386 3.5 8C3.5 8.27614 3.72386 8.5 4 8.5V7.5ZM20 8.5C20.2761 8.5 20.5 8.27614 20.5 8C20.5 7.72386 20.2761 7.5 20 7.5V8.5ZM10 11.5C9.72386 11.5 9.5 11.7239 9.5 12C9.5 12.2761 9.72386 12.5 10 12.5V11.5ZM14 12.5C14.2761 12.5 14.5 12.2761 14.5 12C14.5 11.7239 14.2761 11.5 14 11.5V12.5ZM11.5 8C11.5 8.27614 11.7239 8.5 12 8.5C12.2761 8.5 12.5 8.27614 12.5 8H11.5ZM12.5 3C12.5 2.72386 12.2761 2.5 12 2.5C11.7239 2.5 11.5 2.72386 11.5 3H12.5ZM2.5 8.88635V17.8H3.5V8.88635H2.5ZM6.2 21.5H17.8V20.5H6.2V21.5ZM21.5 17.8V8.88635H20.5V17.8H21.5ZM3.88477 7.49721L5.49658 4.81086L4.63908 4.29637L3.02728 6.98271L3.88477 7.49721ZM7.81181 3.5H16.1882V2.5H7.81181V3.5ZM18.5034 4.81086L20.1152 7.49721L20.9727 6.98271L19.3609 4.29637L18.5034 4.81086ZM16.1882 3.5C16.8819 3.5 17.1189 3.50562 17.3239 3.57109L17.6282 2.61849C17.2395 2.49438 16.8158 2.5 16.1882 2.5V3.5ZM19.3609 4.29637C19.038 3.75816 18.8248 3.39196 18.5185 3.12257L17.8581 3.87354C18.0198 4.01567 18.1465 4.216 18.5034 4.81086L19.3609 4.29637ZM17.3239 3.57109C17.5209 3.63401 17.7028 3.73698 17.8581 3.87354L18.5185 3.12257C18.2596 2.89497 17.9565 2.72335 17.6282 2.61849L17.3239 3.57109ZM5.49658 4.81086C5.8535 4.216 5.98025 4.01567 6.14188 3.87354L5.48155 3.12257C5.17518 3.39196 4.96201 3.75817 4.63908 4.29637L5.49658 4.81086ZM7.81181 2.5C7.18416 2.5 6.76047 2.49438 6.37185 2.61849L6.67606 3.57109C6.88109 3.50562 7.11809 3.5 7.81181 3.5V2.5ZM6.14188 3.87354C6.29719 3.73698 6.47905 3.63401 6.67606 3.57109L6.37185 2.61849C6.0435 2.72335 5.74039 2.89497 5.48154 3.12257L6.14188 3.87354ZM21.5 8.88635C21.5 8.57215 21.5015 8.36006 21.4672 8.15042L20.4803 8.31185C20.4985 8.42291 20.5 8.54073 20.5 8.88635H21.5ZM20.1152 7.49721C20.2931 7.79357 20.3524 7.89538 20.3939 7.99997L21.3232 7.63063C21.2448 7.43323 21.1344 7.25214 20.9727 6.98271L20.1152 7.49721ZM21.4672 8.15043C21.4381 7.97248 21.3898 7.7982 21.3232 7.63063L20.3939 7.99996C20.4339 8.1005 20.4629 8.20507 20.4803 8.31184L21.4672 8.15043ZM17.8 21.5C18.3518 21.5 18.7957 21.5004 19.1543 21.4711C19.5187 21.4413 19.8388 21.3784 20.135 21.2275L19.681 20.3365C19.5493 20.4036 19.3755 20.4497 19.0729 20.4744C18.7645 20.4996 18.3683 20.5 17.8 20.5V21.5ZM20.5 17.8C20.5 18.3683 20.4996 18.7645 20.4744 19.0729C20.4497 19.3755 20.4036 19.5493 20.3365 19.681L21.2275 20.135C21.3784 19.8388 21.4413 19.5187 21.4711 19.1543C21.5004 18.7957 21.5 18.3518 21.5 17.8H20.5ZM20.135 21.2275C20.6054 20.9878 20.9878 20.6054 21.2275 20.135L20.3365 19.681C20.1927 19.9632 19.9632 20.1927 19.681 20.3365L20.135 21.2275ZM2.5 17.8C2.5 18.3518 2.49961 18.7957 2.52891 19.1543C2.55868 19.5187 2.62159 19.8388 2.77248 20.135L3.66349 19.681C3.5964 19.5493 3.55031 19.3755 3.52559 19.0729C3.50039 18.7645 3.5 18.3683 3.5 17.8H2.5ZM6.2 20.5C5.6317 20.5 5.23554 20.4996 4.92712 20.4744C4.62454 20.4497 4.45069 20.4036 4.31901 20.3365L3.86502 21.2275C4.16117 21.3784 4.48126 21.4413 4.84569 21.4711C5.20428 21.5004 5.6482 21.5 6.2 21.5V20.5ZM2.77248 20.135C3.01217 20.6054 3.39462 20.9878 3.86502 21.2275L4.31901 20.3365C4.03677 20.1927 3.8073 19.9632 3.66349 19.681L2.77248 20.135ZM3.5 8.88635C3.5 8.54073 3.5015 8.42291 3.51967 8.31184L2.53278 8.15043C2.4985 8.36006 2.5 8.57215 2.5 8.88635H3.5ZM3.02728 6.98271C2.86562 7.25214 2.75521 7.43323 2.67676 7.63063L3.60606 7.99996C3.64762 7.89538 3.70695 7.79358 3.88477 7.49721L3.02728 6.98271ZM3.51967 8.31184C3.53713 8.20507 3.5661 8.1005 3.60606 7.99996L2.67676 7.63063C2.61016 7.7982 2.56189 7.97248 2.53278 8.15043L3.51967 8.31184ZM4 8.5H20V7.5H4V8.5ZM10 12.5H14V11.5H10V12.5ZM12.5 8V3H11.5V8H12.5Z" fill="#0066FF"/>
</g>
</svg>
