<svg width="24" height="24" viewBox="0 0 24 24" fill="none" xmlns="http://www.w3.org/2000/svg">
<g id="Home Icon">
<path id="Icon" d="M16.8 22V21.5V22ZM7.2 22V22.5V22ZM4 18.8H3.5H4ZM4 5.2H4.5H4ZM4.21799 3.09202L3.77249 2.86502L3.77249 2.86502L4.21799 3.09202ZM7.2 2V2.5V2ZM5.09202 2.21799L4.86503 1.77248L4.86502 1.77248L5.09202 2.21799ZM5.09202 21.782L4.86502 22.2275H4.86502L5.09202 21.782ZM4.21799 20.908L4.66349 20.681H4.66349L4.21799 20.908ZM18.908 21.782L18.681 21.3365L18.908 21.782ZM20 18.8H20.5H20ZM19.782 20.908L19.3365 20.681L19.782 20.908ZM20.5 8C20.5 7.72386 20.2761 7.5 20 7.5C19.7239 7.5 19.5 7.72386 19.5 8H20.5ZM14 2.5C14.2761 2.5 14.5 2.27614 14.5 2C14.5 1.72386 14.2761 1.5 14 1.5V2.5ZM19.8293 7.82929L20.1828 7.47574L19.8293 7.82929ZM14.1707 2.17071L13.8172 2.52427V2.52427L14.1707 2.17071ZM19.7586 8V8.5V8ZM15 8V7.5V8ZM14 7H14.5H14ZM14 2.24142L13.5 2.24142V2.24142H14ZM8 11.5C7.72386 11.5 7.5 11.7239 7.5 12C7.5 12.2761 7.72386 12.5 8 12.5V11.5ZM16 12.5C16.2761 12.5 16.5 12.2761 16.5 12C16.5 11.7239 16.2761 11.5 16 11.5V12.5ZM8 7.5C7.72386 7.5 7.5 7.72386 7.5 8C7.5 8.27614 7.72386 8.5 8 8.5V7.5ZM10 8.5C10.2761 8.5 10.5 8.27614 10.5 8C10.5 7.72386 10.2761 7.5 10 7.5V8.5ZM8 15.5C7.72386 15.5 7.5 15.7239 7.5 16C7.5 16.2761 7.72386 16.5 8 16.5V15.5ZM16 16.5C16.2761 16.5 16.5 16.2761 16.5 16C16.5 15.7239 16.2761 15.5 16 15.5V16.5ZM16.8 21.5H7.2V22.5H16.8V21.5ZM4.5 18.8L4.5 5.2H3.5L3.5 18.8H4.5ZM4.5 5.2C4.5 4.6317 4.50039 4.23554 4.52559 3.92712C4.55031 3.62454 4.5964 3.45069 4.66349 3.31901L3.77249 2.86502C3.62159 3.16117 3.55868 3.48126 3.52891 3.84569C3.49961 4.20428 3.5 4.6482 3.5 5.2H4.5ZM7.2 1.5C6.6482 1.5 6.20428 1.49961 5.84569 1.52891C5.48126 1.55868 5.16117 1.62159 4.86503 1.77248L5.31902 2.66349C5.45069 2.5964 5.62454 2.55031 5.92712 2.52559C6.23554 2.50039 6.6317 2.5 7.2 2.5V1.5ZM4.66349 3.31901C4.8073 3.03677 5.03677 2.8073 5.31902 2.66349L4.86502 1.77248C4.39462 2.01217 4.01217 2.39462 3.77249 2.86502L4.66349 3.31901ZM7.2 21.5C6.6317 21.5 6.23554 21.4996 5.92712 21.4744C5.62454 21.4497 5.45069 21.4036 5.31901 21.3365L4.86502 22.2275C5.16117 22.3784 5.48126 22.4413 5.84569 22.4711C6.20428 22.5004 6.6482 22.5 7.2 22.5V21.5ZM3.5 18.8C3.5 19.3518 3.49961 19.7957 3.52891 20.1543C3.55868 20.5187 3.62159 20.8388 3.77248 21.135L4.66349 20.681C4.5964 20.5493 4.55031 20.3755 4.52559 20.0729C4.50039 19.7645 4.5 19.3683 4.5 18.8H3.5ZM5.31901 21.3365C5.03677 21.1927 4.8073 20.9632 4.66349 20.681L3.77248 21.135C4.01217 21.6054 4.39462 21.9878 4.86502 22.2275L5.31901 21.3365ZM16.8 22.5C17.3518 22.5 17.7957 22.5004 18.1543 22.4711C18.5187 22.4413 18.8388 22.3784 19.135 22.2275L18.681 21.3365C18.5493 21.4036 18.3755 21.4497 18.0729 21.4744C17.7645 21.4996 17.3683 21.5 16.8 21.5V22.5ZM19.5 18.8C19.5 19.3683 19.4996 19.7645 19.4744 20.0729C19.4497 20.3755 19.4036 20.5493 19.3365 20.681L20.2275 21.135C20.3784 20.8388 20.4413 20.5187 20.4711 20.1543C20.5004 19.7957 20.5 19.3518 20.5 18.8H19.5ZM19.135 22.2275C19.6054 21.9878 19.9878 21.6054 20.2275 21.135L19.3365 20.681C19.1927 20.9632 18.9632 21.1927 18.681 21.3365L19.135 22.2275ZM19.5 8V18.8H20.5V8H19.5ZM7.2 2.5L14 2.5V1.5L7.2 1.5V2.5ZM20.1828 7.47574L14.5243 1.81716L13.8172 2.52427L19.4757 8.18284L20.1828 7.47574ZM19.7586 7.5L15 7.5V8.5L19.7586 8.5V7.5ZM14.5 7V2.24142H13.5V7H14.5ZM15 7.5C14.7239 7.5 14.5 7.27614 14.5 7H13.5C13.5 7.82843 14.1716 8.5 15 8.5V7.5ZM14.5243 1.81716C14.1463 1.43918 13.5 1.70688 13.5 2.24142L14.5 2.24142C14.5 2.59778 14.0691 2.77625 13.8172 2.52427L14.5243 1.81716ZM19.4757 8.18284C19.2237 7.93086 19.4022 7.5 19.7586 7.5V8.5C20.2931 8.5 20.5608 7.85372 20.1828 7.47574L19.4757 8.18284ZM8 12.5H16V11.5H8V12.5ZM8 8.5H10V7.5H8V8.5ZM8 16.5H16V15.5H8V16.5Z" fill="#0066FF"/>
</g>
</svg>
