<svg width="24" height="24" viewBox="0 0 24 24" fill="none" xmlns="http://www.w3.org/2000/svg">
<g id="Money">
<path id="Icon" d="M11.999 21.7725C17.3962 21.7725 21.7715 17.3972 21.7715 12C21.7715 6.60282 17.3962 2.22754 11.999 2.22754C6.60184 2.22754 2.22656 6.60282 2.22656 12C2.22656 17.3972 6.60184 21.7725 11.999 21.7725Z" stroke="#0066FF" stroke-linecap="round"/>
<path id="Icon_2" d="M15.1276 9.49705C15.1276 8.1149 14.0071 6.99446 12.625 6.99446H11.3737C9.99154 6.99446 8.87109 8.1149 8.87109 9.49705C8.87109 10.8792 9.99154 11.9996 11.3737 11.9996H12.625C14.0071 11.9996 15.1276 13.1201 15.1276 14.5022C15.1276 15.8844 14.0071 17.0048 12.625 17.0048H11.3737C9.99154 17.0048 8.87109 15.8844 8.87109 14.5022M11.9993 5.74316L11.9993 18.2561" stroke="#0066FF" stroke-linecap="round"/>
</g>
</svg>
