<svg width="85" height="84" viewBox="0 0 85 84" fill="none" xmlns="http://www.w3.org/2000/svg">
<g id="Logo">
<g id="Icon">
<path d="M46.065 43.1996C46.065 45.0772 44.543 46.5992 42.6655 46.5992C40.7879 46.5992 39.2659 45.0772 39.2659 43.1996C39.2659 41.3221 40.7879 39.8001 42.6655 39.8001C44.543 39.8001 46.065 41.3221 46.065 43.1996Z" fill="#0066FF" fill-opacity="0.2"/>
<path fill-rule="evenodd" clip-rule="evenodd" d="M59.6632 43.1996C59.6632 52.5872 52.0531 60.1974 42.6655 60.1974C33.2779 60.1974 25.6677 52.5872 25.6677 43.1996C25.6677 33.812 33.2779 26.2019 42.6655 26.2019C52.0531 26.2019 59.6632 33.812 59.6632 43.1996ZM42.6655 46.5992C44.543 46.5992 46.065 45.0772 46.065 43.1996C46.065 41.3221 44.543 39.8001 42.6655 39.8001C40.7879 39.8001 39.2659 41.3221 39.2659 43.1996C39.2659 45.0772 40.7879 46.5992 42.6655 46.5992Z" fill="#0066FF" fill-opacity="0.2"/>
<path d="M49.3154 10.6191C49.7213 10.7015 50.1172 10.4393 50.1996 10.0333C50.282 9.6274 50.0197 9.23153 49.6138 9.14913L49.3154 10.6191ZM45.315 43.1996C45.315 44.6629 44.1288 45.8492 42.6655 45.8492V47.3492C44.9572 47.3492 46.815 45.4914 46.815 43.1996H45.315ZM42.6655 45.8492C41.2022 45.8492 40.0159 44.6629 40.0159 43.1996H38.5159C38.5159 45.4914 40.3737 47.3492 42.6655 47.3492V45.8492ZM40.0159 43.1996C40.0159 41.7363 41.2022 40.5501 42.6655 40.5501V39.0501C40.3737 39.0501 38.5159 40.9079 38.5159 43.1996H40.0159ZM42.6655 40.5501C44.1288 40.5501 45.315 41.7363 45.315 43.1996H46.815C46.815 40.9079 44.9572 39.0501 42.6655 39.0501V40.5501ZM58.9132 43.1996C58.9132 52.173 51.6389 59.4474 42.6655 59.4474V60.9474C52.4673 60.9474 60.4132 53.0015 60.4132 43.1996H58.9132ZM42.6655 59.4474C33.6921 59.4474 26.4177 52.173 26.4177 43.1996H24.9177C24.9177 53.0015 32.8636 60.9474 42.6655 60.9474V59.4474ZM26.4177 43.1996C26.4177 34.2262 33.6921 26.9519 42.6655 26.9519V25.4519C32.8636 25.4519 24.9177 33.3978 24.9177 43.1996H26.4177ZM42.6655 26.9519C51.6389 26.9519 58.9132 34.2262 58.9132 43.1996H60.4132C60.4132 33.3978 52.4673 25.4519 42.6655 25.4519V26.9519ZM75.911 43.1996C75.911 61.5606 61.0265 76.4452 42.6655 76.4452V77.9452C61.8549 77.9452 77.411 62.3891 77.411 43.1996H75.911ZM42.6655 76.4452C24.3045 76.4452 9.41992 61.5606 9.41992 43.1996H7.91992C7.91992 62.3891 23.476 77.9452 42.6655 77.9452V76.4452ZM9.41992 43.1996C9.41992 24.8386 24.3045 9.9541 42.6655 9.9541V8.4541C23.476 8.4541 7.91992 24.0102 7.91992 43.1996H9.41992ZM42.6655 9.9541C44.9435 9.9541 47.1673 10.1831 49.3154 10.6191L49.6138 9.14913C47.3681 8.69327 45.0443 8.4541 42.6655 8.4541V9.9541ZM71.4638 26.5774C74.2921 31.4666 75.911 37.1429 75.911 43.1996H77.411C77.411 36.8722 75.719 30.9377 72.7622 25.8263L71.4638 26.5774Z" fill="#131314"/>
</g>
<path id="Icon_2" d="M46.0647 43.1994C46.0647 45.0769 44.5427 46.5989 42.6652 46.5989C40.7877 46.5989 39.2656 45.0769 39.2656 43.1994C39.2656 41.3218 40.7877 39.7998 42.6652 39.7998C44.5427 39.7998 46.0647 41.3218 46.0647 43.1994Z" fill="#0066FF" fill-opacity="0.2" stroke="#0066FF" stroke-width="1.5"/>
<path id="Icon_3" d="M63.4224 12.5081C63.4224 16.2631 60.3784 19.3072 56.6233 19.3072C52.8683 19.3072 49.8242 16.2631 49.8242 12.5081C49.8242 8.75305 52.8683 5.70898 56.6233 5.70898C60.3784 5.70898 63.4224 8.75305 63.4224 12.5081Z" stroke="#0066FF" stroke-width="1.5"/>
</g>
</svg>
