<svg width="84" height="84" viewBox="0 0 84 84" fill="none" xmlns="http://www.w3.org/2000/svg">
<g id="Frame 7">
<path id="Icon" d="M48.3867 13.9719C59.1316 16.4101 67.5899 24.8684 70.0281 35.6133M70.0281 48.3867C67.5899 59.1316 59.1316 67.5899 48.3867 70.0281M35.6133 70.0281C24.8684 67.5899 16.4101 59.1316 13.9719 48.3867M13.9719 35.6133C16.4101 24.8684 24.8684 16.4101 35.6133 13.9719M38.8066 19.6465H45.1934C46.957 19.6465 48.3867 18.2168 48.3867 16.4531V10.0664C48.3867 8.30276 46.957 6.87305 45.1934 6.87305H38.8066C37.043 6.87305 35.6133 8.30276 35.6133 10.0664V16.4531C35.6133 18.2168 37.043 19.6465 38.8066 19.6465ZM64.3535 38.8066V45.1934C64.3535 46.957 65.7832 48.3867 67.5469 48.3867H73.9336C75.6972 48.3867 77.127 46.957 77.127 45.1934V38.8066C77.127 37.043 75.6972 35.6133 73.9336 35.6133H67.5469C65.7832 35.6133 64.3535 37.043 64.3535 38.8066ZM38.8066 77.127H45.1934C46.957 77.127 48.3867 75.6972 48.3867 73.9336V67.5469C48.3867 65.7832 46.957 64.3535 45.1934 64.3535H38.8066C37.043 64.3535 35.6133 65.7832 35.6133 67.5469V73.9336C35.6133 75.6972 37.043 77.127 38.8066 77.127ZM6.87305 38.8066L6.87305 45.1934C6.87305 46.957 8.30276 48.3867 10.0664 48.3867H16.4531C18.2168 48.3867 19.6465 46.957 19.6465 45.1934V38.8066C19.6465 37.043 18.2168 35.6133 16.4531 35.6133H10.0664C8.30276 35.6133 6.87305 37.043 6.87305 38.8066Z" stroke="#131314" stroke-width="1.5"/>
<path id="Icon_2" d="M35.6133 10.0664C35.6133 8.30276 37.043 6.87305 38.8066 6.87305H45.1934C46.957 6.87305 48.3867 8.30276 48.3867 10.0664V16.4531C48.3867 18.2168 46.957 19.6465 45.1934 19.6465H38.8066C37.043 19.6465 35.6133 18.2168 35.6133 16.4531V10.0664Z" fill="#0066FF" fill-opacity="0.3" stroke="#0066FF" stroke-width="1.5"/>
<circle id="Ellipse 1277" cx="41.998" cy="42" r="7.39258" stroke="#131314" stroke-width="1.5"/>
</g>
</svg>
