<svg width="84" height="84" viewBox="0 0 84 84" fill="none" xmlns="http://www.w3.org/2000/svg">
<g id="Frame 7">
<path id="Icon" d="M27.6695 55.9405L39.231 52.9299M50.7925 49.9193L62.354 46.9087M28.3677 68.1041L67.6768 57.8681C70.9144 57.0251 72.5331 56.6035 73.6056 55.6515C74.549 54.814 75.2031 53.6994 75.4741 52.4674C75.7821 51.0667 75.3606 49.448 74.5176 46.2104L67.2921 18.4628C66.4491 15.2253 66.0276 13.6065 65.0755 12.534C64.238 11.5906 63.1234 10.9366 61.8914 10.6656C60.4908 10.3575 58.872 10.7791 55.6345 11.6221L16.3254 21.8581C13.0878 22.7012 11.4691 23.1227 10.3966 24.0748C9.45318 24.9122 8.79912 26.0268 8.52814 27.2589C8.22008 28.6595 8.6416 30.2783 9.48465 33.5158L16.7101 61.2634C17.5531 64.5009 17.9746 66.1197 18.9267 67.1922C19.7642 68.1356 20.8788 68.7897 22.1108 69.0606C23.5115 69.3687 25.1302 68.9472 28.3677 68.1041Z" stroke="#131314" stroke-width="1.5" stroke-linecap="round"/>
<g id="Icon_2">
<path fill-rule="evenodd" clip-rule="evenodd" d="M17.1895 36.9461V63.2296C17.1895 66.5751 17.1895 68.2478 17.8405 69.5256C18.4132 70.6496 19.3271 71.5634 20.4511 72.1361C21.7289 72.7872 23.4016 72.7872 26.7471 72.7872H67.3671C70.7125 72.7872 72.3853 72.7872 73.6631 72.1361C74.7871 71.5634 75.7009 70.6496 76.2736 69.5256C76.9247 68.2478 76.9247 66.5751 76.9247 63.2296V36.9461H17.1895Z" fill="white"/>
<path d="M67.3671 24.999H26.7471C23.4016 24.999 21.7289 24.999 20.4511 25.6501C19.3271 26.2228 18.4132 27.1366 17.8405 28.2606C17.1895 29.5384 17.1895 31.2112 17.1895 34.5567V36.9461H76.9247V34.5567C76.9247 31.2112 76.9247 29.5384 76.2736 28.2606C75.7009 27.1366 74.7871 26.2228 73.6631 25.6501C72.3853 24.999 70.7125 24.999 67.3671 24.999Z" fill="white"/>
<path d="M17.1895 63.2296V34.5567M17.1895 63.2296C17.1895 66.5751 17.1895 68.2478 17.8405 69.5256C18.4132 70.6496 19.3271 71.5634 20.4511 72.1361C21.7289 72.7872 23.4016 72.7872 26.7471 72.7872H67.367C70.7125 72.7872 72.3853 72.7872 73.6631 72.1361C74.7871 71.5634 75.7009 70.6496 76.2736 69.5256C76.9247 68.2478 76.9247 66.5751 76.9247 63.2296M17.1895 63.2296V36.9461M76.9247 63.2296V34.5567M76.9247 63.2296V36.9461M76.9247 34.5567C76.9247 31.2112 76.9247 29.5384 76.2736 28.2606C75.7009 27.1366 74.7871 26.2228 73.6631 25.6501C72.3853 24.999 70.7125 24.999 67.367 24.999H26.7471C23.4016 24.999 21.7289 24.999 20.4511 25.6501C19.3271 26.2228 18.4132 27.1366 17.8405 28.2606C17.1895 29.5384 17.1895 31.2112 17.1895 34.5567M76.9247 34.5567V36.9461M17.1895 34.5567V36.9461M17.1895 36.9461H76.9247" stroke="#131314" stroke-width="1.5" stroke-linecap="round"/>
</g>
<g id="Icon_3">
<path fill-rule="evenodd" clip-rule="evenodd" d="M17.1895 36.9461V63.2296C17.1895 66.5751 17.1895 68.2478 17.8405 69.5256C18.4132 70.6496 19.3271 71.5634 20.4511 72.1361C21.7289 72.7872 23.4016 72.7872 26.7471 72.7872H67.3671C70.7125 72.7872 72.3853 72.7872 73.6631 72.1361C74.7871 71.5634 75.7009 70.6496 76.2736 69.5256C76.9247 68.2478 76.9247 66.5751 76.9247 63.2296V36.9461H17.1895Z" fill="#F7F8FA"/>
<path d="M67.3671 24.999H26.7471C23.4016 24.999 21.7289 24.999 20.4511 25.6501C19.3271 26.2228 18.4132 27.1366 17.8405 28.2606C17.1895 29.5384 17.1895 31.2112 17.1895 34.5567V36.9461H76.9247V34.5567C76.9247 31.2112 76.9247 29.5384 76.2736 28.2606C75.7009 27.1366 74.7871 26.2228 73.6631 25.6501C72.3853 24.999 70.7125 24.999 67.3671 24.999Z" fill="#0066FF" fill-opacity="0.2"/>
<path d="M17.1895 63.2296V34.5567M17.1895 63.2296C17.1895 66.5751 17.1895 68.2478 17.8405 69.5256C18.4132 70.6496 19.3271 71.5634 20.4511 72.1361C21.7289 72.7872 23.4016 72.7872 26.7471 72.7872H67.3671C70.7125 72.7872 72.3853 72.7872 73.6631 72.1361C74.7871 71.5634 75.7009 70.6496 76.2736 69.5256C76.9247 68.2478 76.9247 66.5751 76.9247 63.2296M17.1895 63.2296V36.9461M76.9247 63.2296V34.5567M76.9247 63.2296V36.9461M76.9247 34.5567C76.9247 31.2112 76.9247 29.5384 76.2736 28.2606C75.7009 27.1366 74.7871 26.2228 73.6631 25.6501C72.3853 24.999 70.7125 24.999 67.3671 24.999H26.7471C23.4016 24.999 21.7289 24.999 20.4511 25.6501C19.3271 26.2228 18.4132 27.1366 17.8405 28.2606C17.1895 29.5384 17.1895 31.2112 17.1895 34.5567M76.9247 34.5567V36.9461M17.1895 34.5567V36.9461M17.1895 36.9461H76.9247" stroke="#131314" stroke-width="1.5" stroke-linecap="round"/>
</g>
<path id="Icon_4" d="M29.1348 60.8398H41.0818M53.0289 60.8398H64.9759" stroke="#0066FF" stroke-width="1.5" stroke-linecap="round"/>
</g>
</svg>
