<svg width="85" height="84" viewBox="0 0 85 84" fill="none" xmlns="http://www.w3.org/2000/svg">
<g id="Frame 10">
<path id="Icon" d="M72.5811 72.714C72.874 73.0069 73.3489 73.0069 73.6418 72.714C73.9346 72.4211 73.9346 71.9463 73.6418 71.6534L72.5811 72.714ZM62.9462 63.0792L72.5811 72.714L73.6418 71.6534L64.0069 62.0185L62.9462 63.0792Z" fill="#0066FF"/>
<g id="Icon_2">
<path d="M18.4353 16.6934L27.6061 24.3357C28.1689 24.8047 28.7967 25.1542 29.4563 25.3842C30.4993 25.7479 31.4191 26.6116 31.4191 27.7162V64.4308C30.0648 64.4308 28.7105 63.9706 27.6061 63.0503L15.6939 53.1235C14.3359 51.9918 13.5508 50.3155 13.5508 48.5479V18.9812C13.5508 16.4563 16.4956 15.077 18.4353 16.6934Z" fill="#0066FF" fill-opacity="0.2"/>
<path d="M18.4353 16.6934L18.9155 16.1172V16.1172L18.4353 16.6934ZM27.6061 24.3357L28.0862 23.7595L27.6061 24.3357ZM35.2321 24.3357L35.7122 24.9118L35.2321 24.3357ZM45.4744 15.8004L44.9942 15.2243V15.2243L45.4744 15.8004ZM53.1004 15.8004L52.6202 16.3766L53.1004 15.8004ZM62.8695 23.9413L62.3893 24.5175L62.8695 23.9413ZM27.6061 63.0503L28.0862 62.4741H28.0862L27.6061 63.0503ZM15.6939 53.1235L15.2137 53.6996H15.2137L15.6939 53.1235ZM31.4191 64.4308V65.1808C31.8333 65.1808 32.1691 64.845 32.1691 64.4308H31.4191ZM64.2626 39.4251C64.2626 39.8393 64.5983 40.1751 65.0126 40.1751C65.4268 40.1751 65.7626 39.8393 65.7626 39.4251H64.2626ZM29.4563 25.3842L29.2094 26.0924L29.4563 25.3842ZM66.5808 52.9139C66.5808 59.9493 60.8775 65.6527 53.842 65.6527V67.1527C61.7059 67.1527 68.0808 60.7777 68.0808 52.9139H66.5808ZM53.842 65.6527C46.8066 65.6527 41.1032 59.9493 41.1032 52.9139H39.6032C39.6032 60.7777 45.9782 67.1527 53.842 67.1527V65.6527ZM41.1032 52.9139C41.1032 45.8784 46.8066 40.1751 53.842 40.1751V38.6751C45.9782 38.6751 39.6032 45.05 39.6032 52.9139H41.1032ZM53.842 40.1751C60.8775 40.1751 66.5808 45.8784 66.5808 52.9139H68.0808C68.0808 45.05 61.7059 38.6751 53.842 38.6751V40.1751ZM17.9552 17.2695L27.1259 24.9118L28.0862 23.7595L18.9155 16.1172L17.9552 17.2695ZM35.7122 24.9118L45.9545 16.3766L44.9942 15.2243L34.7519 23.7595L35.7122 24.9118ZM52.6202 16.3766L62.3893 24.5175L63.3496 23.3652L53.5805 15.2243L52.6202 16.3766ZM28.0862 62.4741L16.174 52.5473L15.2137 53.6996L27.1259 63.6265L28.0862 62.4741ZM14.3008 48.5479V18.9812H12.8008V48.5479H14.3008ZM16.174 52.5473C14.9871 51.5582 14.3008 50.0929 14.3008 48.5479H12.8008C12.8008 50.5381 13.6848 52.4255 15.2137 53.6996L16.174 52.5473ZM45.9545 16.3766C47.8852 14.7677 50.6896 14.7677 52.6202 16.3766L53.5805 15.2243C51.0936 13.1518 47.4812 13.1518 44.9942 15.2243L45.9545 16.3766ZM27.1259 24.9118C29.6129 26.9843 33.2253 26.9843 35.7122 24.9118L34.7519 23.7595C32.8213 25.3684 30.0169 25.3684 28.0862 23.7595L27.1259 24.9118ZM18.9155 16.1172C16.4873 14.0937 12.8008 15.8204 12.8008 18.9812H14.3008C14.3008 17.0922 16.504 16.0602 17.9552 17.2695L18.9155 16.1172ZM31.4191 63.6808C30.2347 63.6808 29.0516 63.2786 28.0862 62.4741L27.1259 63.6265C28.3693 64.6626 29.8949 65.1808 31.4191 65.1808V63.6808ZM30.6691 27.7162V64.4308H32.1691V27.7162H30.6691ZM64.2626 28.5169V39.4251H65.7626V28.5169H64.2626ZM62.3893 24.5175C63.5763 25.5066 64.2626 26.9719 64.2626 28.5169H65.7626C65.7626 26.5267 64.8785 24.6393 63.3496 23.3652L62.3893 24.5175ZM27.1259 24.9118C27.7591 25.4395 28.4661 25.8333 29.2094 26.0924L29.7032 24.676C29.1273 24.4752 28.5788 24.17 28.0862 23.7595L27.1259 24.9118ZM32.1691 27.7162C32.1691 26.1619 30.902 25.0941 29.7032 24.676L29.2094 26.0924C30.0965 26.4018 30.6691 27.0613 30.6691 27.7162H32.1691Z" fill="#1E1F24"/>
</g>
<circle id="Ellipse 1277" cx="53.5381" cy="39.6865" r="4.4248" fill="#ADCCFC" stroke="#0066FF" stroke-width="1.5"/>
</g>
</svg>
