<svg width="85" height="84" viewBox="0 0 85 84" fill="none" xmlns="http://www.w3.org/2000/svg">
<g id="Frame 10">
<g id="Icon">
<path d="M42.3311 8.64941C28.8329 8.64941 17.2076 16.6685 11.9594 28.2025C11.845 28.4539 11.9609 28.7494 12.214 28.8598L42.3311 42V8.64941Z" fill="#0066FF" fill-opacity="0.2"/>
<path d="M42.3311 8.64941C23.912 8.64941 8.98047 23.581 8.98047 42C8.98047 60.419 23.912 75.3506 42.3311 75.3506C60.7501 75.3506 75.6816 60.419 75.6816 42C75.6816 23.581 60.7501 8.64941 42.3311 8.64941ZM42.3311 8.64941V42M42.3311 8.64941C28.8329 8.64941 17.2076 16.6685 11.9594 28.2025C11.845 28.4539 11.9609 28.7494 12.214 28.8598L42.3311 42M42.3311 42L28.9908 72.5755" stroke="#131314" stroke-width="1.5" stroke-linecap="round"/>
</g>
<circle id="Ellipse 1278" cx="42.3291" cy="42" r="6.61816" fill="white" stroke="#131314" stroke-width="1.5" stroke-linecap="round"/>
</g>
</svg>
