<svg width="85" height="84" viewBox="0 0 85 84" fill="none" xmlns="http://www.w3.org/2000/svg">
<path d="M31.2964 13.9424H24.2503C20.9618 13.9424 19.3176 13.9424 18.0615 14.5824C16.9567 15.1453 16.0584 16.0436 15.4955 17.1484C14.8555 18.4045 14.8555 20.0487 14.8555 23.3372V30.3834C14.8555 33.6719 14.8555 35.3161 15.4955 36.5722C16.0584 37.677 16.9567 38.5753 18.0615 39.1382C19.3176 39.7782 20.9618 39.7782 24.2503 39.7782H31.2964C34.585 39.7782 36.2292 39.7782 37.4852 39.1382C38.5901 38.5753 39.4884 37.677 40.0513 36.5722C40.6913 35.3161 40.6913 33.6719 40.6913 30.3834V23.3372C40.6913 20.0487 40.6913 18.4045 40.0513 17.1484C39.4884 16.0436 38.5901 15.1453 37.4852 14.5824C36.2292 13.9424 34.585 13.9424 31.2964 13.9424Z" stroke="#1E1F24" style="stroke:#1E1F24;stroke:color(display-p3 0.1176 0.1216 0.1412);stroke-opacity:1;" stroke-width="1.5"/>
<path d="M28.7131 22.1631H26.8341C25.5187 22.1631 24.861 22.1631 24.3586 22.4191C23.9167 22.6443 23.5573 23.0036 23.3322 23.4455C23.0762 23.9479 23.0762 24.6056 23.0762 25.921V27.8C23.0762 29.1154 23.0762 29.7731 23.3322 30.2755C23.5573 30.7175 23.9167 31.0768 24.3586 31.3019C24.861 31.5579 25.5187 31.5579 26.8341 31.5579H26.8341H28.7131H28.7131C30.0285 31.5579 30.6862 31.5579 31.1886 31.3019C31.6305 31.0768 31.9898 30.7175 32.215 30.2755C32.471 29.7731 32.471 29.1154 32.471 27.8V27.8V25.921V25.921C32.471 24.6056 32.471 23.9479 32.215 23.4455C31.9898 23.0036 31.6305 22.6443 31.1886 22.4191C30.6862 22.1631 30.0285 22.1631 28.7131 22.1631Z" stroke="#0066FF" style="stroke:#0066FF;stroke:color(display-p3 0.0000 0.4000 1.0000);stroke-opacity:1;" stroke-width="1.5"/>
<path d="M33.6452 60.6627V53.6165C33.6452 50.328 33.6452 48.6838 33.0052 47.4277C32.4422 46.3229 31.544 45.4246 30.4391 44.8617C29.1831 44.2217 27.5388 44.2217 24.2503 44.2217C20.9618 44.2217 19.3176 44.2217 18.0615 44.8617C16.9567 45.4246 16.0584 46.3229 15.4955 47.4277C14.8555 48.6838 14.8555 50.328 14.8555 53.6165V60.6627C14.8555 63.9512 14.8555 65.5954 15.4955 66.8515C16.0584 67.9563 16.9567 68.8546 18.0615 69.4175C19.3176 70.0575 20.9618 70.0575 24.2503 70.0575C27.5388 70.0575 29.1831 70.0575 30.4391 69.4175C31.544 68.8546 32.4422 67.9563 33.0052 66.8515C33.6452 65.5954 33.6452 63.9512 33.6452 60.6627Z" stroke="#1E1F24" style="stroke:#1E1F24;stroke:color(display-p3 0.1176 0.1216 0.1412);stroke-opacity:1;" stroke-width="1.5"/>
<path d="M61.0797 13.9424H54.0335C50.745 13.9424 49.1008 13.9424 47.8447 14.5824C46.7399 15.1453 45.8416 16.0436 45.2787 17.1484C44.6387 18.4045 44.6387 20.0487 44.6387 23.3372V30.3834C44.6387 33.6719 44.6387 35.3161 45.2787 36.5722C45.8416 37.677 46.7399 38.5753 47.8447 39.1382C49.1008 39.7782 50.745 39.7782 54.0335 39.7782H61.0797C64.3682 39.7782 66.0124 39.7782 67.2684 39.1382C68.3733 38.5753 69.2716 37.677 69.8345 36.5722C70.4745 35.3161 70.4745 33.6719 70.4745 30.3834V23.3372C70.4745 20.0487 70.4745 18.4045 69.8345 17.1484C69.2716 16.0436 68.3733 15.1453 67.2684 14.5824C66.0124 13.9424 64.3682 13.9424 61.0797 13.9424Z" stroke="#1E1F24" style="stroke:#1E1F24;stroke:color(display-p3 0.1176 0.1216 0.1412);stroke-opacity:1;" stroke-width="1.5"/>
<path d="M61.0817 44.2217H47.1917C43.9032 44.2217 42.259 44.2217 41.0029 44.8617C39.8981 45.4246 38.9998 46.3229 38.4369 47.4277C37.7969 48.6838 37.7969 50.328 37.7969 53.6165V60.6627C37.7969 63.9512 37.7969 65.5954 38.4369 66.8515C38.9998 67.9563 39.8981 68.8546 41.0029 69.4175C42.259 70.0575 43.9032 70.0575 47.1917 70.0575H61.0817C64.3702 70.0575 66.0144 70.0575 67.2705 69.4175C68.3753 68.8546 69.2736 67.9563 69.8365 66.8515C70.4765 65.5954 70.4765 63.9512 70.4765 60.6627V53.6165C70.4765 50.328 70.4765 48.6838 69.8365 47.4277C69.2736 46.3229 68.3753 45.4246 67.2705 44.8617C66.0144 44.2217 64.3702 44.2217 61.0817 44.2217Z" fill="#C6DBFB" stroke="#1E1F24" style="fill:#C6DBFB;fill:color(display-p3 0.7765 0.8588 0.9843);fill-opacity:1;stroke:#1E1F24;stroke:color(display-p3 0.1176 0.1216 0.1412);stroke-opacity:1;" stroke-width="1.5"/>
</svg>
