<svg width="24" height="24" viewBox="0 0 24 24" fill="none" xmlns="http://www.w3.org/2000/svg">
<g id="Home Icon">
<path id="Icon" d="M22.5757 23.4243C22.8101 23.6586 23.1899 23.6586 23.4243 23.4243C23.6586 23.1899 23.6586 22.8101 23.4243 22.5757L22.5757 23.4243ZM4.64018 4.36692L5.0243 3.90599L4.64018 4.36692ZM7.71963 6.93313L8.10374 6.47219H8.10374L7.71963 6.93313ZM10.2804 6.93313L10.6645 7.39406L10.2804 6.93313ZM13.7196 4.06707L13.3355 3.60614V3.60614L13.7196 4.06707ZM16.2804 4.06707L15.8963 4.52801V4.52801L16.2804 4.06707ZM19.5607 6.80071L19.1766 7.26165L19.1766 7.26165L19.5607 6.80071ZM7.71963 19.9331L8.10374 19.4722L8.10374 19.4722L7.71963 19.9331ZM3.71963 16.5998L3.33552 17.0607H3.33552L3.71963 16.5998ZM9 20.9967C9.33137 20.9967 9.6 20.7281 9.6 20.3967C9.6 20.0653 9.33137 19.7967 9 19.7967V20.9967ZM9.6 8.0001C9.6 7.66873 9.33137 7.4001 9 7.4001C8.66863 7.4001 8.4 7.66873 8.4 8.0001H9.6ZM8.4 20.0001C8.4 20.3315 8.66863 20.6001 9 20.6001C9.33137 20.6001 9.6 20.3315 9.6 20.0001H8.4ZM19.6804 10C19.6804 10.3314 19.949 10.6 20.2804 10.6C20.6117 10.6 20.8804 10.3314 20.8804 10H19.6804ZM20.4588 16.5294C20.4588 18.6996 18.6996 20.4588 16.5294 20.4588V21.6588C19.3623 21.6588 21.6588 19.3623 21.6588 16.5294H20.4588ZM16.5294 20.4588C14.3593 20.4588 12.6 18.6996 12.6 16.5294H11.4C11.4 19.3623 13.6965 21.6588 16.5294 21.6588V20.4588ZM12.6 16.5294C12.6 14.3593 14.3593 12.6 16.5294 12.6V11.4C13.6965 11.4 11.4 13.6965 11.4 16.5294H12.6ZM16.5294 12.6C18.6996 12.6 20.4588 14.3593 20.4588 16.5294H21.6588C21.6588 13.6965 19.3623 11.4 16.5294 11.4V12.6ZM19.3404 20.189L22.5757 23.4243L23.4243 22.5757L20.189 19.3404L19.3404 20.189ZM4.25607 4.82785L7.33552 7.39406L8.10374 6.47219L5.0243 3.90599L4.25607 4.82785ZM10.6645 7.39406L14.1037 4.52801L13.3355 3.60614L9.89626 6.47219L10.6645 7.39406ZM15.8963 4.52801L19.1766 7.26165L19.9448 6.33978L16.6645 3.60614L15.8963 4.52801ZM8.10374 19.4722L4.10374 16.1389L3.33552 17.0607L7.33552 20.3941L8.10374 19.4722ZM3.6 15.0633V5.13514H2.4V15.0633H3.6ZM4.10374 16.1389C3.78455 15.8729 3.6 15.4788 3.6 15.0633H2.4C2.4 15.835 2.74274 16.5667 3.33552 17.0607L4.10374 16.1389ZM14.1037 4.52801C14.6229 4.09535 15.3771 4.09535 15.8963 4.52801L16.6645 3.60614C15.7003 2.80264 14.2997 2.80264 13.3355 3.60614L14.1037 4.52801ZM7.33552 7.39406C8.29972 8.19756 9.70028 8.19756 10.6645 7.39406L9.89626 6.47219C9.37707 6.90485 8.62293 6.90485 8.10374 6.47219L7.33552 7.39406ZM5.0243 3.90599C3.98217 3.03755 2.4 3.7786 2.4 5.13514H3.6C3.6 4.79601 3.99554 4.61074 4.25607 4.82785L5.0243 3.90599ZM9 19.7967C8.68117 19.7967 8.3634 19.6886 8.10374 19.4722L7.33552 20.3941C7.81755 20.7958 8.40931 20.9967 9 20.9967V19.7967ZM8.4 8.0001V20.0001H9.6V8.0001H8.4ZM19.6804 8.33716V10H20.8804V8.33716H19.6804ZM19.1766 7.26165C19.4958 7.52764 19.6804 7.92166 19.6804 8.33716H20.8804C20.8804 7.56553 20.5376 6.83377 19.9448 6.33978L19.1766 7.26165Z" fill="#0066FF"/>
</g>
</svg>
