<svg width="44" height="44" viewBox="0 0 44 44" fill="none" xmlns="http://www.w3.org/2000/svg">
<g id="scale-02">
<path id="Icon" d="M29.3333 38.5H29.7C32.7803 38.5 34.3204 38.5 35.4969 37.9005C36.5318 37.3732 37.3732 36.5318 37.9005 35.4969C38.5 34.3204 38.5 32.7803 38.5 29.7V14.3C38.5 11.2197 38.5 9.67957 37.9005 8.50305C37.3732 7.46816 36.5318 6.62677 35.4969 6.09946C34.3204 5.5 32.7803 5.5 29.7 5.5H14.3C11.2197 5.5 9.67957 5.5 8.50305 6.09946C7.46816 6.62677 6.62677 7.46816 6.09946 8.50305C5.5 9.67957 5.5 11.2197 5.5 14.3V14.6667M21.0833 22.9167L31.1667 12.8333M31.1667 12.8333H22M31.1667 12.8333V22M11.3667 38.5H16.1333C18.1869 38.5 19.2136 38.5 19.998 38.1004C20.6879 37.7488 21.2488 37.1879 21.6004 36.498C22 35.7136 22 34.6869 22 32.6333V27.8667C22 25.8131 22 24.7864 21.6004 24.002C21.2488 23.3121 20.6879 22.7512 19.998 22.3996C19.2136 22 18.1869 22 16.1333 22H11.3667C9.31314 22 8.28638 22 7.50203 22.3996C6.81211 22.7512 6.25118 23.3121 5.89964 24.002C5.5 24.7864 5.5 25.8131 5.5 27.8667V32.6333C5.5 34.6869 5.5 35.7136 5.89964 36.498C6.25118 37.1879 6.81211 37.7488 7.50203 38.1004C8.28638 38.5 9.31314 38.5 11.3667 38.5Z" stroke="white" stroke-width="1.7" stroke-linecap="round" stroke-linejoin="round"/>
</g>
</svg>
