<svg width="56" height="56" viewBox="0 0 56 56" fill="none" xmlns="http://www.w3.org/2000/svg">
<rect width="56" height="56" rx="13" fill="#E8173C"/>
<path d="M16.2266 21.9202L27.9999 28.7335L39.6932 21.9601" stroke="white" stroke-width="1.5" stroke-linecap="round" stroke-linejoin="round"/>
<path d="M28 40.8134V28.7201" stroke="white" stroke-width="1.5" stroke-linecap="round" stroke-linejoin="round"/>
<path d="M40.8141 24.2268V31.7735C40.8141 31.8401 40.8142 31.8934 40.8008 31.9601C39.8675 31.1467 38.6675 30.6668 37.3341 30.6668C36.0808 30.6668 34.9208 31.1068 34.0008 31.8401C32.7741 32.8134 32.0008 34.3201 32.0008 36.0001C32.0008 37.0001 32.2808 37.9468 32.7741 38.7468C32.8941 38.9601 33.0408 39.1601 33.2008 39.3468L30.7608 40.6935C29.2408 41.5468 26.7608 41.5468 25.2408 40.6935L18.1208 36.7468C16.5075 35.8534 15.1875 33.6135 15.1875 31.7735V24.2268C15.1875 22.3868 16.5075 20.1468 18.1208 19.2534L25.2408 15.3067C26.7608 14.4534 29.2408 14.4534 30.7608 15.3067L37.8808 19.2534C39.4942 20.1468 40.8141 22.3868 40.8141 24.2268Z" stroke="white" stroke-width="1.5" stroke-linecap="round" stroke-linejoin="round"/>
<path d="M42.6667 36C42.6667 37 42.3867 37.9466 41.8934 38.7466C41.6134 39.2266 41.2533 39.6533 40.84 40C39.9067 40.84 38.68 41.3333 37.3333 41.3333C35.3867 41.3333 33.6933 40.2933 32.7733 38.7466C32.28 37.9466 32 37 32 36C32 34.32 32.7733 32.8133 34 31.84C34.92 31.1066 36.08 30.6666 37.3333 30.6666C40.28 30.6666 42.6667 33.0533 42.6667 36Z" stroke="white" stroke-width="1.5" stroke-miterlimit="10" stroke-linecap="round" stroke-linejoin="round"/>
<path d="M37.416 33.3098V36.2086M37.416 37.9498V38.0789" stroke="white" stroke-width="1.5" stroke-miterlimit="10" stroke-linecap="round" stroke-linejoin="round"/>
</svg>
