<svg width="24" height="25" viewBox="0 0 24 25" fill="none" xmlns="http://www.w3.org/2000/svg">
<path d="M12.0207 0.0518799C9.98805 0.0520297 7.98877 0.568972 6.21076 1.55413C4.43276 2.53929 2.93442 3.96032 1.85653 5.68369H11.4088V12.0519H0C3.54461e-06 14.4244 0.703271 16.7436 2.02093 18.7166C3.33859 20.6895 5.21151 22.2276 7.40302 23.1364C9.59452 24.0453 12.0063 24.2841 14.3335 23.8228C16.6607 23.3615 18.7989 22.2206 20.4779 20.5445C22.157 18.8683 23.3015 16.7321 23.7669 14.4057C24.2322 12.0792 23.9976 9.6671 23.0925 7.47403C22.1874 5.28096 20.6526 3.40539 18.6819 2.08432C16.7113 0.763253 14.3932 0.055981 12.0207 0.0518799ZM6.36819 16.9577L5.49697 16.045L4.62575 16.9577L4.80207 15.7027L3.53673 15.6094L4.62575 14.9663L3.93086 13.9291L5.11322 14.3751L5.49697 13.172L5.88072 14.3751L7.06309 13.9291L6.36819 14.9663L7.40536 15.6094L6.14001 15.7131L6.36819 16.9577ZM15.8583 12.6638L15.4019 12.1867L14.9455 12.6638L15.0389 12.0104L14.3855 11.9482L14.9455 11.6163L14.5825 11.0666L15.2048 11.2947L15.4019 10.6724L15.599 11.2947L16.2213 11.0666L15.8583 11.6163L16.4183 11.9482L15.7649 12.0104L15.8583 12.6638ZM17.3725 7.08386L17.9844 7.31203L18.1919 6.68974L18.3889 7.31203L19.0009 7.08386L18.669 7.63356L19.2394 7.96545L18.586 8.02768L18.669 8.68109L18.223 8.204L17.7666 8.68109L17.86 8.02768L17.1962 7.96545L17.7666 7.63356L17.3725 7.08386ZM18.7208 16.8332L18.2645 16.3561L17.8081 16.8332L17.9015 16.1798L17.2481 16.1279L17.8081 15.7857L17.4451 15.236L18.0674 15.4745L18.2645 14.8419L18.4615 15.4745L19.0838 15.236L18.7208 15.7857L19.2809 16.1279L18.6275 16.1798L18.7208 16.8332ZM21.0544 12.3941L20.7433 12.1971L20.4218 12.3941L20.5151 12.0311L20.2247 11.7926H20.5981L20.7433 11.4607L20.8781 11.8133H21.2515L20.9715 12.0519L21.0544 12.3941ZM21.2826 9.38636L21.4797 8.76406L21.6871 9.38636L22.299 9.15819L21.936 9.70789L22.5065 10.0398L21.8427 10.102L21.936 10.7554L21.4797 10.2783L21.0337 10.7554L21.1167 10.102L20.4633 10.0398L21.0337 9.70789L20.6707 9.15819L21.2826 9.38636Z" fill="#003E9C"/>
<path d="M0.664062 12.0519H4.54306V9.96722L0.664062 12.0519Z" fill="#003E9C"/>
<path d="M6.36816 12.0519H10.2472L6.36816 9.92572V12.0519Z" fill="#003E9C"/>
<path d="M11.3772 11.44V9.78052H8.34863L11.3772 11.44Z" fill="#003E9C"/>
<path d="M2.81098 9.78052H0.238816C0.148203 10.2706 0.0893097 10.766 0.0625 11.2637L2.81098 9.78052Z" fill="#003E9C"/>
<path d="M2.75856 7.95507L1.11985 7.06311C0.983761 7.35407 0.862599 7.65177 0.756836 7.95507H2.75856Z" fill="#003E9C"/>
<path d="M11.3779 7.95512V6.29565L8.28711 7.95512H11.3779Z" fill="#003E9C"/>
<path d="M10.4235 5.68372H6.36816V7.87213L10.4235 5.68372Z" fill="#003E9C"/>
<path d="M4.5426 7.70619V5.68372H1.85634L1.60742 6.09858L4.5426 7.70619Z" fill="#003E9C"/>
<path d="M6.09863 8.22477H6.68982H7.78921H11.3778V7.95511H8.28705L11.3778 6.29564V5.69409L7.17728 7.95511H6.5861L10.797 5.68372H10.4236L6.36829 7.87213V5.68372H6.09863V8.01734V8.22477Z" fill="white"/>
<path d="M1.60751 6.09858L1.32748 6.62754L3.74407 7.95511H3.1114L1.16153 6.91794C1.12958 6.97818 1.10186 7.04056 1.07856 7.10463L2.71728 7.99659H0.757035C0.717962 8.08468 0.683348 8.17469 0.65332 8.26626H4.80198V5.68372H4.54269V7.75805L1.60751 6.09858Z" fill="white"/>
<path d="M4.80234 9.5108H0.290674C0.279363 9.60174 0.26204 9.69182 0.238816 9.78047H2.81098L0.0625 11.2636C0.0625 11.4503 0.0625 11.637 0.0625 11.8237L3.76518 9.74935H4.34599L0.197329 12.0207H0.674427L4.55342 9.94641V12.0207H4.81271V9.5108H4.80234Z" fill="white"/>
<path d="M7.39509 9.5108H6.81428H6.09863V9.78047V12.0519H6.36829V9.92567L10.2473 12.0519H11.3778V11.9793L7.30174 9.78047H7.89293L11.3778 11.6681V11.4399L8.34928 9.78047H11.3778V9.5108H7.86181H7.39509Z" fill="white"/>
<path d="M0 11.8237C0 11.9067 0 11.9793 0 12.0519H0.165946L4.31461 9.78052H3.73379L0 11.8237Z" fill="#E30613"/>
<path d="M10.7968 5.68372L6.58594 7.95511H7.17712L11.3776 5.69409L10.7968 5.68372Z" fill="#E30613"/>
<path d="M3.74418 7.95501L1.32758 6.62744L1.20312 6.87636L3.153 7.91353L3.74418 7.95501Z" fill="#E30613"/>
<path d="M7.30176 9.78052L11.3778 11.9793V11.6682L7.89294 9.78052H7.30176Z" fill="#E30613"/>
<path d="M6.69032 8.22477H6.09914V5.68372H4.80268V8.22477H0.654026C0.508823 8.65001 0.394732 9.07525 0.291016 9.51085H4.80268V12.0519H6.09914V9.51085H11.4094V8.22477H6.69032Z" fill="#E30613"/>
<path d="M6.36857 14.956L7.06347 13.8981L5.8811 14.344L5.49735 13.1513L5.1136 14.344L3.93123 13.8981L4.62613 14.956L3.53711 15.599L4.80245 15.7131L4.62613 16.9577L5.49735 16.045L6.36857 16.9577L6.19225 15.7131L7.45759 15.599L6.36857 14.956Z" fill="white"/>
<path d="M18.7208 15.7857L19.0838 15.236L18.4615 15.4745L18.2645 14.8419L18.057 15.4745L17.4451 15.236L17.8081 15.7857L17.248 16.1176L17.9015 16.1798L17.8081 16.8332L18.2645 16.3561L18.7208 16.8332L18.6275 16.1798L19.2809 16.1176L18.7208 15.7857Z" fill="white"/>
<path d="M15.8585 11.6162L16.2215 11.0665L15.5992 11.2947L15.4022 10.6724L15.2051 11.2947L14.5828 11.0665L14.9458 11.6162L14.3857 11.9481L15.0392 12.0104L14.9458 12.6534L15.4022 12.1867L15.8585 12.6534L15.7652 12.0104L16.4186 11.9481L15.8585 11.6162Z" fill="white"/>
<path d="M17.8288 8.0277L17.7355 8.68111L18.1918 8.20402L18.6378 8.68111L18.5548 8.0277L19.2083 7.96547L18.6378 7.63358L19.0008 7.08388L18.3889 7.31206L18.1918 6.68976L17.9844 7.31206L17.3725 7.08388L17.7355 7.63358L17.165 7.96547L17.8288 8.0277Z" fill="white"/>
<path d="M20.4629 10.0398L21.1163 10.102L21.0333 10.7451L21.4793 10.2784L21.9357 10.7451L21.8423 10.102L22.5061 10.0398L21.9357 9.70792L22.2987 9.15822L21.6867 9.3864L21.4793 8.7641L21.2823 9.3864L20.66 9.15822L21.0333 9.70792L20.4629 10.0398Z" fill="white"/>
<path d="M20.878 11.7614L20.7432 11.4088L20.598 11.7614L20.2246 11.7822L20.5046 12.0311L20.4217 12.3941L20.7432 12.1971L21.0543 12.3941L20.9714 12.0311L21.2514 11.7822L20.878 11.7614Z" fill="white"/>
</svg>
