<svg width="44" height="44" viewBox="0 0 44 44" fill="none" xmlns="http://www.w3.org/2000/svg">
<rect x="0.5" y="0.5" width="43" height="43" rx="3.5" stroke="white"/>
<path d="M13.667 17H30.3337M20.3337 21.1667V25.3334M23.667 21.1667V25.3334M15.3337 17H28.667L27.3503 28.85C27.3052 29.2578 27.1112 29.6347 26.8055 29.9084C26.4999 30.1821 26.104 30.3334 25.6937 30.3334H18.307C17.8967 30.3334 17.5008 30.1821 17.1951 29.9084C16.8894 29.6347 16.6955 29.2578 16.6503 28.85L15.3337 17ZM18.1212 14.6225C18.256 14.3367 18.4692 14.095 18.7362 13.9258C19.0031 13.7565 19.3126 13.6667 19.6287 13.6667H24.372C24.6882 13.6665 24.9979 13.7563 25.265 13.9256C25.532 14.0948 25.7455 14.3365 25.8803 14.6225L27.0003 17H17.0003L18.1212 14.6225V14.6225Z" stroke="white" stroke-linecap="round" stroke-linejoin="round"/>
</svg>
