						<svg width="48" height="48" viewBox="0 0 48 48" fill="none" xmlns="http://www.w3.org/2000/svg">
						<rect x="0.5" y="0.5" width="47" height="47" rx="11.5" fill="white"/>
						<rect x="0.5" y="0.5" width="47" height="47" rx="11.5" stroke="#D3D8E5"/>
						<path d="M14 18H34M22 23V28M26 23V28M16 18H32L30.42 32.22C30.3658 32.7094 30.1331 33.1616 29.7663 33.49C29.3994 33.8184 28.9244 34 28.432 34H19.568C19.0756 34 18.6006 33.8184 18.2337 33.49C17.8669 33.1616 17.6342 32.7094 17.58 32.22L16 18ZM19.345 15.147C19.5068 14.804 19.7627 14.514 20.083 14.3109C20.4033 14.1078 20.7747 14 21.154 14H26.846C27.2254 13.9998 27.5971 14.1075 27.9176 14.3106C28.2381 14.5137 28.4942 14.8038 28.656 15.147L30 18H18L19.345 15.147V15.147Z" stroke="#E8173C" stroke-linecap="round" stroke-linejoin="round"/>
					</svg>	