<svg width="176" height="22" viewBox="0 0 176 22" fill="none" xmlns="http://www.w3.org/2000/svg">
<g id="burgerprints_logo.svg" clip-path="url(#clip0_3484_5941)">
<g id="Clip path group">
<mask id="mask0_3484_5941" style="mask-type:luminance" maskUnits="userSpaceOnUse" x="0" y="1" width="176" height="20">
<g id="clip0_593_87">
<path id="Vector" d="M175.658 1.19922H0.556641V20.8002H175.658V1.19922Z" fill="white"/>
</g>
</mask>
<g mask="url(#mask0_3484_5941)">
<g id="Group">
<path id="Vector_2" d="M0.556641 18.6058V3.39355H8.10114C9.16133 3.39355 10.0243 3.56615 10.7393 3.93597C11.4296 4.28114 11.9474 4.77425 12.3172 5.39064C12.6624 6.00701 12.8596 6.69736 12.8596 7.48633C12.8596 8.12737 12.7363 8.74374 12.4898 9.31082C12.2432 9.90255 11.7994 10.371 11.1337 10.7162V10.7655C11.8241 10.9874 12.3665 11.3818 12.8103 11.949C13.2541 12.516 13.4513 13.2064 13.4513 13.9953C13.4513 14.9076 13.2541 15.7211 12.8596 16.4115C12.4651 17.1019 11.8981 17.6442 11.1337 18.0388C10.3694 18.4333 9.45719 18.6058 8.3477 18.6058H0.556641ZM3.93441 9.55737H7.85459C8.42167 9.55737 8.89011 9.40944 9.18598 9.13823C9.5065 8.86703 9.65443 8.42323 9.65443 7.85615C9.65443 7.31374 9.48184 6.8946 9.16133 6.59874C8.8408 6.32753 8.32305 6.1796 7.6327 6.1796H3.93441V9.55737ZM3.93441 15.7459H7.85459C8.5696 15.7459 9.08736 15.5979 9.45719 15.3021C9.82701 15.0061 9.9996 14.5377 9.9996 13.8721C9.9996 13.2803 9.82701 12.8365 9.48184 12.5406C9.13667 12.2448 8.66822 12.0968 8.02718 12.0968H3.93441V15.7459Z" fill="#0051C6"/>
<path id="Vector_3" d="M22.3763 18.8277C20.971 18.8277 19.7629 18.5812 18.7274 18.0881C17.6919 17.595 16.9028 16.88 16.3605 15.9184C15.8181 14.9815 15.5469 13.8228 15.5469 12.4667V3.39355H18.9V11.9736C18.9 13.3296 19.2205 14.2911 19.8369 14.8336C20.4779 15.376 21.3408 15.6472 22.475 15.6472C23.6091 15.6472 24.4967 15.376 25.0885 14.8336C25.6802 14.2911 26.0006 13.3296 26.0006 11.9736V3.39355H29.2552V12.4667C29.2552 13.8228 28.9593 14.9568 28.3922 15.9184C27.8252 16.8553 27.0116 17.595 26.0006 18.0881C24.9651 18.5812 23.757 18.8277 22.3763 18.8277Z" fill="#0051C6"/>
<path id="Vector_4" d="M32.1426 18.6058V3.39355H39.2679C40.3774 3.39355 41.339 3.5908 42.1526 3.96063C42.9662 4.35512 43.5826 4.89753 44.051 5.58787C44.4948 6.30288 44.7167 7.14116 44.7167 8.15202C44.7167 9.01496 44.5441 9.75462 44.2236 10.3956C43.8785 11.012 43.4347 11.5298 42.8676 11.9243C42.3005 12.3187 41.6102 12.6146 40.8212 12.8118C40.0323 13.0091 39.194 13.1078 38.3063 13.1078H35.5204V18.6058H32.1426ZM35.5204 10.4203H38.7995C39.6131 10.4203 40.2542 10.2478 40.6979 9.87789C41.1417 9.50806 41.3636 8.9903 41.3636 8.29995C41.3636 7.6096 41.1417 7.09185 40.7226 6.77132C40.2788 6.45081 39.6378 6.30288 38.7995 6.30288H35.545V10.4203H35.5204ZM41.7828 18.6058L38.3063 12.6886L41.4869 12.0475L45.5304 18.5812H41.7828V18.6058Z" fill="#0051C6"/>
<path id="Vector_5" d="M55.218 18.8277C53.4181 18.8277 51.8649 18.5072 50.5827 17.8661C49.3007 17.2252 48.3145 16.3129 47.6241 15.1541C46.9338 13.9706 46.6133 12.5899 46.6133 10.9874C46.6133 9.70527 46.8352 8.59579 47.2542 7.60958C47.6981 6.64803 48.2898 5.8344 49.0788 5.16871C49.8431 4.50302 50.7553 4.00992 51.7908 3.68939C52.8264 3.36888 53.9112 3.19629 55.0947 3.19629C55.785 3.19629 56.5 3.27026 57.1904 3.39353C57.8807 3.54146 58.5711 3.7387 59.2614 3.98526L59.9517 4.25647L59.3847 6.79596L58.5464 6.64803C57.93 6.52475 57.363 6.42613 56.7959 6.35216C56.2288 6.27819 55.7111 6.25354 55.1933 6.25354C54.1824 6.25354 53.2949 6.42613 52.5305 6.74665C51.7662 7.09182 51.1745 7.58493 50.7307 8.29993C50.2869 8.99027 50.0896 9.90251 50.0896 11.0367C50.0896 12.1215 50.2869 13.0337 50.706 13.7487C51.1252 14.4637 51.7169 15.0061 52.5058 15.3513C53.2949 15.6965 54.2318 15.8937 55.3412 15.8937C55.7357 15.8937 56.1549 15.8691 56.5986 15.8198C57.0424 15.7705 57.4862 15.6965 57.93 15.5979V12.6393H54.0099V9.95182H61.0612V17.3237C60.5681 17.5949 60.0011 17.8415 59.36 18.0634C58.719 18.2853 58.0532 18.4579 57.363 18.6058C56.6233 18.7538 55.9083 18.8277 55.218 18.8277Z" fill="#0051C6"/>
<path id="Vector_6" d="M63.7734 18.6058V3.39355H75.4354V6.32753H67.1512V9.43409H74.5724V12.2448H67.1512V15.6472H75.608V18.6058H63.7734Z" fill="#0051C6"/>
<path id="Vector_7" d="M78.0234 18.6058V3.39355H85.1488C86.2583 3.39355 87.2199 3.5908 88.0334 3.96063C88.847 4.35512 89.4635 4.89753 89.9319 5.58787C90.3757 6.30288 90.5976 7.14116 90.5976 8.15202C90.5976 9.01496 90.425 9.75462 90.1045 10.3956C89.7593 11.012 89.3155 11.5298 88.7485 11.9243C88.1814 12.3187 87.4911 12.6146 86.7021 12.8118C85.9131 13.0091 85.0749 13.1078 84.1872 13.1078H81.4012V18.6058H78.0234ZM81.4012 10.4203H84.6803C85.494 10.4203 86.135 10.2478 86.5788 9.87789C87.0226 9.50806 87.2445 8.9903 87.2445 8.29995C87.2445 7.6096 87.0226 7.09185 86.6034 6.77132C86.1596 6.45081 85.5187 6.30288 84.6803 6.30288H81.4259V10.4203H81.4012ZM87.639 18.6058L84.1626 12.6886L87.3431 12.0475L91.3866 18.5812H87.639V18.6058Z" fill="#0051C6"/>
<path id="Vector_8" d="M94.3203 18.6059V3.39355H101.495C102.629 3.39355 103.591 3.61545 104.404 4.03459C105.217 4.45373 105.81 5.04545 106.229 5.83442C106.647 6.62339 106.87 7.53563 106.87 8.62046C106.87 9.70529 106.647 10.6422 106.204 11.4558C105.76 12.2694 105.144 12.8858 104.33 13.305C103.517 13.7488 102.555 13.946 101.47 13.946H97.698L97.7227 18.5812H94.3203V18.6059ZM97.698 11.0367H100.854C101.668 11.0367 102.309 10.8394 102.752 10.4696C103.196 10.0751 103.418 9.4834 103.418 8.64512C103.418 7.78218 103.196 7.19046 102.752 6.82063C102.309 6.47546 101.668 6.27822 100.854 6.27822H97.698V11.0367ZM109.261 18.6059V3.39355H116.387C117.496 3.39355 118.458 3.5908 119.271 3.96062C120.085 4.35511 120.701 4.89752 121.17 5.58787C121.614 6.30288 121.836 7.14115 121.836 8.15202C121.836 9.01495 121.663 9.7546 121.342 10.3957C120.997 11.012 120.553 11.5297 119.986 11.9243C119.419 12.3188 118.728 12.6146 117.94 12.8119C117.151 13.0091 116.313 13.1077 115.425 13.1077H112.639V18.6059H109.261ZM112.639 10.4203H115.918C116.732 10.4203 117.373 10.2477 117.817 9.87789C118.261 9.50805 118.482 8.9903 118.482 8.29995C118.482 7.6096 118.261 7.09184 117.841 6.77132C117.398 6.45081 116.757 6.30288 115.918 6.30288H112.664V10.4203H112.639ZM118.877 18.6059L115.401 12.6886L118.581 12.0476L122.625 18.5812H118.877V18.6059ZM124.646 18.6059V3.39355H128.024V18.5812H124.646V18.6059ZM131.328 18.6059V3.39355H134.286L141.929 12.4913H141.979V3.39355H145.332V18.5812H142.62L134.73 9.11357H134.681V18.5812H131.328V18.6059ZM152.63 18.6059V6.35219H147.6V3.39355H161.013V6.35219H156.008V18.6059H152.63Z" fill="#E96D1F"/>
<path id="Vector_9" d="M175.659 9.23682L166.438 10.5435L171.838 1.19922H166.66L159.979 12.7625L169.174 11.4804L163.8 20.8001H168.978L175.659 9.23682Z" fill="#E96D1F"/>
</g>
</g>
</g>
</g>
<defs>
<clipPath id="clip0_3484_5941">
<rect width="175.102" height="21.4013" fill="white" transform="translate(0.556641 0.298828)"/>
</clipPath>
</defs>
</svg>
