													<svg width="20" height="20" viewBox="0 0 20 20" fill="none"
														xmlns="http://www.w3.org/2000/svg">
														<path
															d="M13.3333 10.75V14.25C13.3333 17.1666 12.1666 18.3333 9.24996 18.3333H5.74996C2.83329 18.3333 1.66663 17.1666 1.66663 14.25V10.75C1.66663 7.83329 2.83329 6.66663 5.74996 6.66663H9.24996C12.1666 6.66663 13.3333 7.83329 13.3333 10.75Z"
															stroke="#375DE2" stroke-linecap="round" stroke-linejoin="round" />
														<path
															d="M18.3333 5.74996V9.24996C18.3333 12.1666 17.1666 13.3333 14.25 13.3333H13.3333V10.75C13.3333 7.83329 12.1666 6.66663 9.24996 6.66663H6.66663V5.74996C6.66663 2.83329 7.83329 1.66663 10.75 1.66663H14.25C17.1666 1.66663 18.3333 2.83329 18.3333 5.74996Z"
															stroke="#375DE2" stroke-linecap="round" stroke-linejoin="round" />
													</svg>