<svg width="56" height="56" viewBox="0 0 56 56" fill="none" xmlns="http://www.w3.org/2000/svg">
<rect width="56" height="56" rx="13" fill="#2C882F"/>
<path d="M42.6667 35.88C42.6934 36.88 42.4267 37.8267 41.9467 38.64C41.6801 39.12 41.3201 39.56 40.9201 39.92C40.0001 40.7733 38.7867 41.2933 37.44 41.3333C35.4934 41.3733 33.7734 40.3734 32.8267 38.84C32.3201 38.0534 32.0134 37.1067 32.0001 36.1067C31.9601 34.4267 32.7067 32.9067 33.9067 31.9067C34.8134 31.16 35.9601 30.6933 37.2134 30.6667C40.1601 30.6 42.6001 32.9333 42.6667 35.88Z" stroke="white" stroke-width="1.5" stroke-miterlimit="10" stroke-linecap="round" stroke-linejoin="round"/>
<path d="M35.2534 36.04L36.6001 37.3199L39.3868 34.6266" stroke="white" stroke-width="1.5" stroke-linecap="round" stroke-linejoin="round"/>
<path d="M16.2268 21.9199L28.0001 28.7332L39.6934 21.9599" stroke="white" stroke-width="1.5" stroke-linecap="round" stroke-linejoin="round"/>
<path d="M28 40.8132V28.7198" stroke="white" stroke-width="1.5" stroke-linecap="round" stroke-linejoin="round"/>
<path d="M40.8134 24.2266V31.7733C40.8134 31.84 40.8134 31.8933 40.8001 31.9599C39.8668 31.1466 38.6667 30.6667 37.3334 30.6667C36.0801 30.6667 34.9201 31.1067 34.0001 31.84C32.7734 32.8133 32.0001 34.32 32.0001 36C32.0001 37 32.2801 37.9466 32.7734 38.7466C32.8934 38.96 33.0401 39.16 33.2001 39.3467L30.7601 40.6933C29.2401 41.5467 26.7601 41.5467 25.2401 40.6933L18.1201 36.7466C16.5067 35.8533 15.1868 33.6133 15.1868 31.7733V24.2266C15.1868 22.3866 16.5067 20.1467 18.1201 19.2533L25.2401 15.3066C26.7601 14.4533 29.2401 14.4533 30.7601 15.3066L37.8801 19.2533C39.4934 20.1467 40.8134 22.3866 40.8134 24.2266Z" stroke="white" stroke-width="1.5" stroke-linecap="round" stroke-linejoin="round"/>
</svg>
