<svg width="52" height="52" viewBox="0 0 52 52" fill="none" xmlns="http://www.w3.org/2000/svg">
<circle cx="10.9578" cy="41.0422" r="10.9578" fill="#D4FF8E"/>
<path d="M49.8329 38.8049C49.8762 40.4299 49.4429 41.9683 48.6629 43.2899C48.2295 44.0699 47.6446 44.785 46.9946 45.37C45.4996 46.7567 43.5279 47.6017 41.3395 47.6667C38.1762 47.7317 35.3812 46.1067 33.8429 43.615C33.0195 42.3367 32.5212 40.7984 32.4996 39.1734C32.4346 36.4434 33.6479 33.9733 35.5979 32.3483C37.0712 31.135 38.9346 30.3767 40.9712 30.3333C45.7596 30.225 49.7246 34.0166 49.8329 38.8049Z" stroke="#0066FF" stroke-width="2" stroke-miterlimit="10" stroke-linecap="round" stroke-linejoin="round"/>
<path d="M37.7861 39.065L39.9745 41.145L44.5028 36.7682" stroke="#0066FF" stroke-width="2" stroke-linecap="round" stroke-linejoin="round"/>
<path d="M6.86914 16.12L26.0008 27.1916L45.0024 16.1849" stroke="#0066FF" stroke-width="2" stroke-linecap="round" stroke-linejoin="round"/>
<path d="M26.001 46.8216V27.1699" stroke="#0066FF" stroke-width="2" stroke-linecap="round" stroke-linejoin="round"/>
<path d="M46.822 19.8683V32.1317C46.822 32.2401 46.822 32.3266 46.8004 32.435C45.2837 31.1133 43.3337 30.3334 41.167 30.3334C39.1303 30.3334 37.2453 31.0484 35.7503 32.24C33.757 33.8217 32.5003 36.27 32.5003 39C32.5003 40.625 32.9553 42.1634 33.757 43.4634C33.952 43.81 34.1903 44.135 34.4503 44.4384L30.4854 46.6267C28.0154 48.0134 23.9853 48.0134 21.5153 46.6267L9.94534 40.2134C7.32367 38.7617 5.17871 35.1217 5.17871 32.1317V19.8683C5.17871 16.8783 7.32367 13.2384 9.94534 11.7867L21.5153 5.37331C23.9853 3.98665 28.0154 3.98665 30.4854 5.37331L42.0554 11.7867C44.677 13.2384 46.822 16.8783 46.822 19.8683Z" stroke="#0066FF" stroke-width="2" stroke-linecap="round" stroke-linejoin="round"/>
</svg>
