<svg width="153" height="22" viewBox="0 0 153 22" fill="none" xmlns="http://www.w3.org/2000/svg">
<g clip-path="url(#clip0_2139_915)">
<path d="M0.515625 17.541H21.0272L19.9067 19.0877H0.515625V17.541Z" fill="#D40511"/>
<path d="M0.515625 14.6729H23.1112L21.9884 16.2164H0.515625V14.6729Z" fill="#D40511"/>
<path d="M0.515625 20.4124H18.9448L17.8289 21.9481H0.515625V20.4124Z" fill="#D40511"/>
<path d="M152.189 19.0879H131.758L132.878 17.5427H152.189V19.0879Z" fill="#D40511"/>
<path d="M152.191 21.9481L129.682 21.9497L130.797 20.4124H152.191V21.9481Z" fill="#D40511"/>
<path d="M134.96 14.6729H152.19V16.218L133.84 16.2188L134.96 14.6729Z" fill="#D40511"/>
<path d="M20.3828 21.9481L30.1162 8.53784H42.1946C43.5296 8.53784 43.5121 9.05185 42.8601 9.94842C42.1975 10.8587 41.0699 12.424 40.3951 13.3482C40.0526 13.8176 39.4331 14.6729 41.4853 14.6729H57.6665C56.3208 16.5423 51.9555 21.9481 44.1178 21.9481H20.3828Z" fill="#D40511"/>
<path d="M76.125 14.6716L70.8474 21.948H56.9238C56.9238 21.948 62.1993 14.6727 62.204 14.6727L76.125 14.6716Z" fill="#D40511"/>
<path d="M96.2594 14.6729L90.9787 21.9481H77.0605C77.0605 21.9481 82.3365 14.6729 82.3412 14.6729H96.2594Z" fill="#D40511"/>
<path d="M100.786 14.6728C100.786 14.6728 99.7687 16.0833 99.2744 16.7602C97.5261 19.1564 99.0712 21.9474 104.777 21.9474H127.13L132.41 14.6721L100.786 14.6728Z" fill="#D40511"/>
<path d="M27.1897 0.198242L22.3438 6.87475H48.7543C50.0891 6.87475 50.0717 7.38876 49.4192 8.28533C48.7567 9.19461 47.6476 10.7779 46.9728 11.702C46.6302 12.1704 46.0107 13.0256 48.0631 13.0256H58.8632C58.8632 13.0256 60.6043 10.6232 62.0632 8.61492C64.0485 5.88284 62.2354 0.198242 55.1383 0.198242H27.1897Z" fill="#D40511"/>
<path d="M97.4551 13.0256H63.4004L72.7129 0.198242H86.6313L81.2949 7.55285H87.5073L92.8476 0.198242H106.765L97.4551 13.0256Z" fill="#D40511"/>
<path d="M126.04 0.198242L116.729 13.0256H101.98C101.98 13.0256 111.294 0.198242 111.299 0.198242H126.04Z" fill="#D40511"/>
</g>
<defs>
<clipPath id="clip0_2139_915">
<rect width="151.674" height="21.7517" fill="white" transform="translate(0.515625 0.198242)"/>
</clipPath>
</defs>
</svg>
