<svg width="52" height="52" viewBox="0 0 52 52" fill="none" xmlns="http://www.w3.org/2000/svg">
<circle cx="10.9578" cy="41.0422" r="10.9578" fill="#D4FF8E"/>
<path d="M25.9997 47.6666C37.9658 47.6666 47.6663 37.9662 47.6663 26C47.6663 14.0338 37.9658 4.33331 25.9997 4.33331C14.0335 4.33331 4.33301 14.0338 4.33301 26C4.33301 37.9662 14.0335 47.6666 25.9997 47.6666Z" stroke="#0066FF" stroke-width="2" stroke-linecap="round" stroke-linejoin="round"/>
<path d="M17.3331 6.5H19.4998C15.2748 19.1533 15.2748 32.8467 19.4998 45.5H17.3331" stroke="#0066FF" stroke-width="2" stroke-linecap="round" stroke-linejoin="round"/>
<path d="M32.5 6.5C36.725 19.1533 36.725 32.8467 32.5 45.5" stroke="#0066FF" stroke-width="2" stroke-linecap="round" stroke-linejoin="round"/>
<path d="M6.5 34.6667V32.5C19.1533 36.725 32.8467 36.725 45.5 32.5V34.6667" stroke="#0066FF" stroke-width="2" stroke-linecap="round" stroke-linejoin="round"/>
<path d="M6.5 19.5C19.1533 15.275 32.8467 15.275 45.5 19.5" stroke="#0066FF" stroke-width="2" stroke-linecap="round" stroke-linejoin="round"/>
</svg>
