<svg width="52" height="52" viewBox="0 0 52 52" fill="none" xmlns="http://www.w3.org/2000/svg">
<circle cx="10.9578" cy="41.0422" r="10.9578" fill="#D4FF8E"/>
<path d="M47.6667 17.9185V9.16516C47.6667 5.72016 46.28 4.3335 42.835 4.3335H34.0817C30.6367 4.3335 29.25 5.72016 29.25 9.16516V17.9185C29.25 21.3635 30.6367 22.7502 34.0817 22.7502H42.835C46.28 22.7502 47.6667 21.3635 47.6667 17.9185Z" stroke="#333333" stroke-width="2" stroke-linecap="round" stroke-linejoin="round"/>
<path d="M22.7497 18.4597V8.62301C22.7497 5.56801 21.363 4.33301 17.918 4.33301H9.16467C5.71967 4.33301 4.33301 5.56801 4.33301 8.62301V18.438C4.33301 21.5147 5.71967 22.728 9.16467 22.728H17.918C21.363 22.7497 22.7497 21.5147 22.7497 18.4597Z" stroke="#333333" stroke-width="2" stroke-linecap="round" stroke-linejoin="round"/>
<path d="M22.7497 42.835V34.0817C22.7497 30.6367 21.363 29.25 17.918 29.25H9.16467C5.71967 29.25 4.33301 30.6367 4.33301 34.0817V42.835C4.33301 46.28 5.71967 47.6667 9.16467 47.6667H17.918C21.363 47.6667 22.7497 46.28 22.7497 42.835Z" stroke="#333333" stroke-width="2" stroke-linecap="round" stroke-linejoin="round"/>
<path d="M31.417 37.917H44.417" stroke="#0066FF" stroke-width="2" stroke-linecap="round"/>
<path d="M37.917 44.417V31.417" stroke="#0066FF" stroke-width="2" stroke-linecap="round"/>
</svg>
