<svg width="24" height="25" viewBox="0 0 24 25" fill="none" xmlns="http://www.w3.org/2000/svg">
<path d="M12 24.0415C18.6274 24.0415 24 18.6689 24 12.0415C24 5.41409 18.6274 0.0415039 12 0.0415039C5.37258 0.0415039 0 5.41409 0 12.0415C0 18.6689 5.37258 24.0415 12 24.0415Z" fill="#003E9C"/>
<path d="M12 2.37512L12.2593 3.18411H13.1202L12.4253 3.68195L12.6949 4.50131L12 3.9931L11.3051 4.50131L11.5748 3.68195L10.8799 3.18411H11.7407L12 2.37512Z" fill="#FFCC00"/>
<path d="M7.65432 3.547L7.91361 4.35599H8.77446L8.07956 4.8642L8.34922 5.67319L7.65432 5.17535L6.95942 5.67319L7.22908 4.8642L6.53418 4.35599H7.39503L7.65432 3.547Z" fill="#FFCC00"/>
<path d="M4.5635 6.63788L4.83316 7.44687H5.68364L4.98874 7.95508L5.2584 8.76407L4.5635 8.25586L3.87897 8.76407L4.13826 7.95508L3.44336 7.44687H4.3042L4.5635 6.63788Z" fill="#FFCC00"/>
<path d="M3.39162 10.9835L3.65092 11.7925H4.51176L3.81686 12.3007L4.07615 13.1097L3.39162 12.6015L2.69672 13.1097L2.96639 12.3007L2.27148 11.7925H3.12196L3.39162 10.9835Z" fill="#FFCC00"/>
<path d="M4.5635 15.3293L4.83316 16.1383H5.68364L4.98874 16.6361L5.2584 17.4555L4.5635 16.9473L3.87897 17.4555L4.13826 16.6361L3.44336 16.1383H4.3042L4.5635 15.3293Z" fill="#FFCC00"/>
<path d="M7.65432 18.42L7.91361 19.229H8.77446L8.07956 19.7269L8.34922 20.5462L7.65432 20.038L6.95942 20.5462L7.22908 19.7269L6.53418 19.229H7.39503L7.65432 18.42Z" fill="#FFCC00"/>
<path d="M12 19.592L12.2593 20.401H13.1202L12.4253 20.9092L12.6949 21.7182L12 21.2204L11.3051 21.7182L11.5748 20.9092L10.8799 20.401H11.7407L12 19.592Z" fill="#FFCC00"/>
<path d="M16.3457 18.42L16.605 19.229H17.4659L16.771 19.7269L17.0406 20.5462L16.3457 20.038L15.6612 20.5462L15.9205 19.7269L15.2256 19.229H16.0864L16.3457 18.42Z" fill="#FFCC00"/>
<path d="M19.4365 15.3293L19.6958 16.1383H20.5567L19.8618 16.6361L20.1211 17.4555L19.4365 16.9473L18.7416 17.4555L19.0113 16.6361L18.3164 16.1383H19.1669L19.4365 15.3293Z" fill="#FFCC00"/>
<path d="M20.6084 10.9835L20.8781 11.7925H21.7286L21.0337 12.3007L21.3033 13.1097L20.6084 12.6015L19.9239 13.1097L20.1832 12.3007L19.4883 11.7925H20.3491L20.6084 10.9835Z" fill="#FFCC00"/>
<path d="M19.4365 6.63788L19.6958 7.44687H20.5567L19.8618 7.95508L20.1211 8.76407L19.4365 8.25586L18.7416 8.76407L19.0113 7.95508L18.3164 7.44687H19.1669L19.4365 6.63788Z" fill="#FFCC00"/>
<path d="M16.3457 3.547L16.605 4.35599H17.4659L16.771 4.8642L17.0406 5.67319L16.3457 5.17535L15.6612 5.67319L15.9205 4.8642L15.2256 4.35599H16.0864L16.3457 3.547Z" fill="#FFCC00"/>
<path d="M12 2.37512L12.2593 3.18411H13.1202L12.4253 3.68195L12.6949 4.50131L12 3.9931L11.3051 4.50131L11.5748 3.68195L10.8799 3.18411H11.7407L12 2.37512Z" fill="#FFCC00"/>
</svg>
