<svg width="56" height="56" viewBox="0 0 56 56" fill="none" xmlns="http://www.w3.org/2000/svg">
<rect width="56" height="56" rx="13" fill="#8B3B21"/>
<path d="M39.1667 33.1666C40.1403 31.3155 40.5002 29.402 40.5002 27.1666C40.5002 19.8066 34.5268 13.8333 27.1668 13.8333C19.8068 13.8333 13.8335 19.8066 13.8335 27.1666C13.8335 34.5266 19.8068 40.4999 27.1668 40.4999C27.5032 40.4999 27.8366 40.4874 28.1667 40.4629" stroke="white" stroke-width="1.5" stroke-linecap="round" stroke-linejoin="round"/>
<path d="M22.7265 31.4066L26.8598 28.9399C27.5798 28.5133 28.1665 27.4866 28.1665 26.6466V21.1799" stroke="white" stroke-width="1.5" stroke-linecap="round" stroke-linejoin="round"/>
<path d="M35.1665 33.1667V36.1667" stroke="white" stroke-width="1.5" stroke-linecap="round" stroke-linejoin="round"/>
<path d="M35.1671 42.1593H30.9245C28.4952 42.1593 27.48 40.3152 28.6562 38.0621L30.8405 33.8831L32.8988 29.9569C34.145 27.57 36.1892 27.57 37.4354 29.9569L39.4937 33.8906L41.678 38.0695C42.8542 40.3226 41.832 42.1667 39.4097 42.1667H35.1671V42.1593Z" stroke="white" stroke-width="1.5" stroke-linecap="round" stroke-linejoin="round"/>
<path d="M35.1665 38.5918H35.1755" stroke="white" stroke-width="1.5" stroke-linecap="round" stroke-linejoin="round"/>
</svg>
