<svg width="115" height="32" viewBox="0 0 115 32" fill="none" xmlns="http://www.w3.org/2000/svg">
<g clip-path="url(#clip0_2139_957)">
<path d="M107.011 27.0085C107.011 24.8797 108.727 23.4282 110.688 23.4282C112.649 23.4282 114.366 24.8797 114.366 27.0085C114.366 29.1373 112.649 30.5887 110.688 30.5887C108.776 30.5887 107.011 29.1373 107.011 27.0085ZM110.737 26.6214C111.375 26.6214 111.522 26.2827 111.522 25.9925C111.522 25.6538 111.326 25.3635 110.737 25.3635H109.953V26.6214H110.737ZM109.904 27.1536V29.1373H109.266V24.8313H110.884C111.816 24.8313 112.257 25.2183 112.257 26.0408C112.257 26.5247 111.914 26.9117 111.473 26.9601C111.865 27.0085 111.963 27.3471 112.061 27.9277C112.11 28.3148 112.208 28.9921 112.355 29.1373H111.571C111.375 28.7502 111.424 28.1696 111.277 27.6858C111.179 27.2988 110.982 27.202 110.541 27.202L109.904 27.1536ZM113.679 27.0085C113.679 25.2667 112.453 24.0088 110.737 24.0088C109.021 24.0088 107.795 25.2667 107.795 27.0085C107.795 28.7502 109.021 30.0081 110.737 30.0081C112.404 30.0081 113.679 28.7502 113.679 27.0085Z" fill="#FF6200"/>
<path d="M94.311 30.5891L90.0942 25.896L85.9264 30.5891H77.1006L85.7303 21.0095L77.1006 11.4783H86.2206L90.4865 16.1229L94.5562 11.4783H103.333L94.7523 21.0095L103.48 30.5891H94.311Z" fill="#FF6200"/>
<path d="M60.1846 30.5888V0.495361H77.1008V7.22043H67.3433V11.478H77.1008V17.9128H67.3433V23.8638H77.1008V30.5888H60.1846Z" fill="#FF6200"/>
<path d="M48.7105 25.9926C46.0628 25.9926 44.4447 23.5735 44.4447 21.0576C44.4447 18.3482 45.8666 15.784 48.7105 15.784C51.6525 15.784 52.8292 18.3966 52.8292 21.0576C52.8292 23.6219 51.6034 25.9926 48.7105 25.9926ZM23.3607 18.0096C23.802 16.1227 25.322 14.8648 27.1852 14.8648C29.2446 14.8648 30.6665 16.0743 31.0588 18.0096H23.3607ZM53.0254 0.495361V12.7843H52.9273C51.3583 10.9942 49.3479 10.3652 47.0924 10.3652C42.3853 10.3652 38.855 13.5101 37.6292 17.6709C36.2072 13.0746 32.5788 10.2685 27.1362 10.2685C22.7233 10.2685 19.291 12.2038 17.4768 15.397V11.478H8.40579V7.22043H18.3104V0.495361H0.31543V30.5888H8.40579V17.9128H16.4962C16.251 18.8321 16.1039 19.8481 16.1039 20.8641C16.1039 27.1537 20.9581 31.5565 27.1852 31.5565C32.3827 31.5565 35.815 29.1374 37.6782 24.7346H30.7156C29.784 26.041 29.0485 26.428 27.1852 26.428C25.0278 26.428 23.1155 24.5411 23.1155 22.3156H37.2369C37.8253 27.2989 41.7969 31.6049 47.1905 31.6049C49.495 31.6049 51.6525 30.4921 52.9763 28.5568H53.0744V30.4921H60.2331V0.495361H53.0254Z" fill="#4D148C"/>
</g>
<defs>
<clipPath id="clip0_2139_957">
<rect width="114.05" height="31.1579" fill="white" transform="translate(0.31543 0.495117)"/>
</clipPath>
</defs>
</svg>
