<svg width="24" height="25" viewBox="0 0 24 25" fill="none" xmlns="http://www.w3.org/2000/svg">
<path d="M14.4893 23.7822C17.425 23.1402 20.0147 21.4237 21.7494 18.9698L14.4893 14.9871V23.7822Z" fill="#003E9C"/>
<path d="M2.34375 4.93692L7.1562 7.56095L9.42759 8.80554V0.321533C6.58496 0.950558 4.06758 2.59072 2.34375 4.93692Z" fill="#003E9C"/>
<path d="M0.269531 14.5618C0.421971 15.2449 0.6301 15.9144 0.89183 16.5636L4.61525 14.5618H0.269531Z" fill="#003E9C"/>
<path d="M9.42812 23.7615V15.0908L2.16797 18.9698C3.90568 21.4166 6.49514 23.1256 9.42812 23.7615Z" fill="#003E9C"/>
<path d="M0.881459 7.5506C0.618545 8.18413 0.413727 8.84024 0.269531 9.51084H4.47005L0.881459 7.5506Z" fill="#003E9C"/>
<path d="M23.2019 16.325C23.4208 15.7509 23.5976 15.1616 23.7309 14.5618H19.9971L23.2019 16.325Z" fill="#003E9C"/>
<path d="M23.7301 9.51084C23.5956 8.89549 23.4118 8.29198 23.1804 7.70618L19.8096 9.51084H23.7301Z" fill="#003E9C"/>
<path d="M21.9154 5.27917C20.1698 2.72898 17.5114 0.946759 14.4893 0.300781V9.27226L17.0303 7.9032L21.9154 5.27917Z" fill="#003E9C"/>
<path d="M17.0304 10.2472H23.8549C23.8549 9.99829 23.7823 9.74937 23.7305 9.51082H19.81L23.1808 7.70615C23.0098 7.24747 22.8088 6.80053 22.5792 6.36821L17.0304 9.37599L16.7503 9.53156H15.1738L17.0822 8.4944L22.2681 5.7148C22.1747 5.57996 22.1021 5.43476 22.0088 5.29993L17.0304 7.90321L14.4893 9.27227V0.300795C14.2508 0.300795 13.9915 0.217821 13.7529 0.186707V10.2472H17.0304Z" fill="white"/>
<path d="M9.42803 3.21523V8.80555L7.15664 7.56096L2.3442 4.93693C2.01596 5.38178 1.71465 5.84588 1.44186 6.32673L7.15664 9.43822H7.21887H5.58015L1.10997 7.032C1.027 7.20832 0.954396 7.37427 0.881795 7.55058L4.47039 9.51083H0.321726C0.321726 9.74937 0.238752 9.99829 0.197266 10.2472H10.2163V0.197083C9.96736 0.197083 9.71844 0.269684 9.47989 0.321542L9.42803 3.21523Z" fill="white"/>
<path d="M5.99512 13.8359H0.145508C0.145508 14.0848 0.218109 14.3337 0.269968 14.5723H4.61569L0.892267 16.574C1.05236 16.9751 1.23591 17.3664 1.44196 17.746L7.18786 14.5619H8.81621L1.83609 18.3994L2.20947 18.9698L9.46962 15.0908V23.7615C9.70817 23.8134 9.95709 23.8445 10.206 23.886V13.8359H6.05735H5.99512Z" fill="white"/>
<path d="M17.3623 13.8358H13.7529V23.8963C13.9915 23.8963 14.2508 23.8341 14.4893 23.7822V14.9871L21.7495 18.9698C22.0646 18.523 22.3487 18.0552 22.5999 17.5696L17.103 14.5618H18.7313L22.9837 16.8643L23.2015 16.3146L19.9967 14.5618H23.7305C23.7823 14.3233 23.8134 14.0744 23.8549 13.8254H17.3623V13.8358Z" fill="white"/>
<path d="M1.44141 17.7459C1.56587 17.9741 1.7007 18.1815 1.83553 18.3993L8.81565 14.5618H7.1873L1.44141 17.7459Z" fill="#E30613"/>
<path d="M17.0304 9.37597L22.5792 6.36819C22.4547 6.14001 22.3095 5.92221 22.1747 5.69403L16.9889 8.47363L15.1738 9.5108H16.8022L17.0304 9.37597Z" fill="#E30613"/>
<path d="M7.15605 9.51085L1.44127 6.39935C1.31681 6.62753 1.21309 6.86608 1.10938 7.10463L5.57956 9.51085H7.15605Z" fill="#E30613"/>
<path d="M17.1035 14.5618L22.642 17.5696C22.7664 17.3414 22.8805 17.1133 22.9842 16.8747L18.7319 14.5618H17.1035Z" fill="#E30613"/>
<path d="M23.8548 10.2472H13.7528V0.186707C13.1727 0.0967194 12.587 0.0481954 12 0.0415039C11.385 0.0460772 10.7712 0.0980898 10.1642 0.197079V10.2472H0.145203C0.054816 10.8412 0.0062953 11.4407 0 12.0415C0.0062953 12.6423 0.054816 13.2418 0.145203 13.8358H10.1642V23.8963C10.7712 23.9953 11.385 24.0473 12 24.0519C12.5872 24.0418 13.173 23.9898 13.7528 23.8963V13.8358H23.8548C23.9452 13.2418 23.9937 12.6423 24 12.0415C23.9937 11.4407 23.9452 10.8412 23.8548 10.2472Z" fill="#E30613"/>
</svg>
