<svg width="56" height="56" viewBox="0 0 56 56" fill="none" xmlns="http://www.w3.org/2000/svg">
<rect width="56" height="56" rx="13" fill="#375DE2"/>
<path d="M24.0399 40.9201L27.1466 38.3067C27.6132 37.9067 28.3866 37.9067 28.8532 38.3067L31.9599 40.9201C32.6799 41.2801 33.5599 40.9201 33.8266 40.1467L34.4132 38.3734C34.5599 37.9467 34.4132 37.3201 34.0932 37.0001L31.0666 33.9601C30.8399 33.7467 30.6666 33.3201 30.6666 33.0134V29.2134C30.6666 28.6534 31.0799 28.3867 31.5999 28.6001L38.1466 31.4267C39.1732 31.8667 40.0132 31.3201 40.0132 30.2001V28.4801C40.0132 27.5867 39.3466 26.5601 38.5199 26.2134L31.0666 23.0001C30.8532 22.9067 30.6666 22.6267 30.6666 22.3867V18.3867C30.6666 17.1334 29.7466 15.6534 28.6266 15.0801C28.2266 14.8801 27.7599 14.8801 27.3599 15.0801C26.2399 15.6534 25.3199 17.1467 25.3199 18.4001V22.4001C25.3199 22.6401 25.1332 22.9201 24.9199 23.0134L17.4799 26.2267C16.6532 26.5601 15.9866 27.5867 15.9866 28.4801V30.2001C15.9866 31.3201 16.8266 31.8667 17.8532 31.4267L24.3999 28.6001C24.9066 28.3734 25.3332 28.6534 25.3332 29.2134V33.0134C25.3332 33.3201 25.1599 33.7467 24.9466 33.9601L21.9199 37.0001C21.5999 37.3201 21.4532 37.9334 21.5999 38.3734L22.1866 40.1467C22.4266 40.9201 23.3066 41.2934 24.0399 40.9201Z" stroke="white" stroke-width="1.5" stroke-linecap="round" stroke-linejoin="round"/>
</svg>
