<svg width="100" height="26" viewBox="0 0 100 26" fill="none" xmlns="http://www.w3.org/2000/svg">
<path d="M44.8275 11.8529H39.5468V6.95703H37.2344V19.0406H39.5468V13.9523H44.8275V19.0406H47.1399V6.95703H44.8275V11.8529Z" fill="#333333"/>
<path d="M57.12 6.95703H49.4297V14.0889C49.4297 15.8884 49.8289 17.1914 50.6252 18.0023C51.4216 18.811 52.6874 19.2164 54.4228 19.2164C56.1582 19.2164 57.3785 18.7965 58.1997 17.9547C59.0229 17.1129 59.4324 15.8242 59.4324 14.0909V6.95703H57.12ZM56.5408 16.4013C56.1561 16.8253 55.4487 17.0384 54.4207 17.0384C53.3927 17.0384 52.706 16.8295 52.3192 16.4117C51.9345 15.9938 51.7401 15.2203 51.7401 14.0889V8.89098H57.1179V14.0889C57.1179 15.2058 56.9255 15.9773 56.5388 16.4013H56.5408Z" fill="#333333"/>
<path d="M67.4958 13.8365L64.4304 6.95703H61.5781V19.0406H63.7561V10.6367L66.4926 16.6702H68.4018L71.1569 10.6574V19.0406H73.3349V6.95703H70.5798L67.4958 13.8365Z" fill="#333333"/>
<path d="M79.1739 6.95703L74.5469 19.0427H76.9752L77.8232 16.5751H82.8163L83.683 19.0427H86.1113L81.5629 6.95703H79.1739ZM78.4996 14.6659L79.3476 12.219C79.5027 11.7557 79.6662 11.2552 79.8399 10.7153C80.0136 10.1755 80.1708 9.66249 80.3115 9.17435C80.4666 9.70179 80.6321 10.2375 80.812 10.7836C80.992 11.3296 81.1533 11.8074 81.294 12.219L82.142 14.6659H78.4996Z" fill="#333333"/>
<path d="M96.0336 15.3402L90.2897 6.95703H88.0352V19.0406H90.2132V10.8498L95.9385 19.0406H98.193V6.95703H96.0336V15.3402Z" fill="#333333"/>
<path d="M25.4779 10.1316C24.2307 5.96793 20.371 2.93359 15.802 2.93359C11.5783 2.93359 7.96067 5.52736 6.45281 9.2091V9.2029C2.93447 9.99716 0.675781 11.2279 0.675781 12.6075C0.675781 13.9871 2.79589 15.1392 6.126 15.9355C7.37324 20.0992 11.2329 23.1335 15.802 23.1335C20.0256 23.1335 23.6432 20.5398 25.1511 16.858V16.8642C28.6694 16.07 30.9281 14.8393 30.9281 13.4597C30.9281 12.08 28.808 10.9279 25.4779 10.1316ZM24.0073 15.2012C23.0496 18.8375 19.7402 21.5181 15.804 21.5181C12.2815 21.5181 9.26169 19.3711 7.97721 16.314C7.55526 15.3067 7.31946 14.2001 7.31946 13.0398V13.0336C7.31946 8.34865 11.117 4.54901 15.804 4.54901C19.3265 4.54901 22.3464 6.696 23.6308 9.75309C22.6773 9.58762 21.6534 9.44904 20.5779 9.34562C18.979 9.18221 17.2602 9.09121 15.4669 9.09121C13.7956 9.09121 12.1885 9.1698 10.6847 9.31252V10.1357H10.6765V12.7647H10.6806C10.7571 15.5301 13.02 17.7474 15.802 17.7474C18.5839 17.7474 20.8488 15.5301 20.9233 12.7647H20.9274V10.839H21.095C21.49 10.8514 22.4994 10.9486 23.2192 11.596C23.2978 11.6746 23.3723 11.7553 23.4447 11.838C23.8066 12.2869 24.454 13.3914 24.0093 15.2012H24.0073ZM19.1941 10.8411V12.7481C19.1279 14.5683 17.6366 16.0224 15.7999 16.0224C13.9631 16.0224 12.4718 14.5662 12.4056 12.7481V10.8411H19.1921H19.1941Z" fill="#0066FF"/>
</svg>
