<svg width="212" height="88" viewBox="0 0 212 88" fill="none" xmlns="http://www.w3.org/2000/svg">
<g id="a" clip-path="url(#clip0_3484_6214)">
<g id="Group">
<path id="Vector" d="M140.614 16.957L132.977 22.3438L150.12 28.5412C151.252 28.9556 152.007 30.0365 152.007 31.2436V51.6916L157.182 47.9623V26.9739C157.146 24.5597 155.636 22.3978 153.372 21.5871L140.614 16.957Z" fill="#0066FF"/>
<path id="Vector_2" d="M147.046 29.1L136.588 39.5853H145.645L150.407 34.7931V31.0277C150.407 30.5773 150.119 30.199 149.706 30.0369L147.046 29.082V29.1Z" fill="#0066FF"/>
<path id="Vector_3" d="M175.853 41.3151L183.49 35.9284L166.347 29.7309C165.215 29.3165 164.46 28.2356 164.46 27.0285V6.5625L159.285 10.2918V31.2983C159.321 33.7124 160.831 35.8743 163.095 36.685L175.853 41.3151Z" fill="#0066FF"/>
<path id="Vector_4" d="M169.438 29.1727L179.897 18.6875H170.84L166.078 23.4797V27.245C166.078 27.6954 166.366 28.0738 166.779 28.2359L169.438 29.1908V29.1727Z" fill="#0066FF"/>
</g>
<g id="fullfillment" filter="url(#filter0_d_3484_6214)">
<path d="M67.3662 76.4829H65.8945V75.0908H67.3662V74.8522C67.3662 73.712 67.6446 72.8701 68.2015 72.3265C68.7583 71.7696 69.6134 71.4912 70.7669 71.4912C71.0586 71.4912 71.3503 71.5045 71.6419 71.531C71.9336 71.5575 72.2054 71.5973 72.4573 71.6503V73.0424C72.2982 73.0026 72.0795 72.9761 71.801 72.9629C71.5359 72.9364 71.2707 72.9231 71.0056 72.9231C70.2498 72.9231 69.7261 73.0623 69.4345 73.3407C69.1428 73.6059 68.9969 74.0964 68.9969 74.8124V75.0908H72.159V76.4829H68.9969V84.9151H67.3662V76.4829Z" fill="#051063"/>
<path d="M76.347 85.0742C75.2598 85.0742 74.4444 84.8024 73.9009 84.2588C73.3573 83.7152 73.0855 82.8999 73.0855 81.8127V75.0908H74.7162V81.6138C74.7162 82.29 74.8886 82.7805 75.2333 83.0855C75.578 83.3904 76.1216 83.5429 76.8641 83.5429C77.3148 83.5429 77.7656 83.4899 78.2164 83.3838C78.6804 83.2645 79.1445 83.0855 79.6085 82.8468V75.0908H81.2393V84.9151H79.7477L79.6682 84.0997H79.6284C78.939 84.4577 78.3423 84.7096 77.8385 84.8554C77.3347 85.0013 76.8375 85.0742 76.347 85.0742Z" fill="#051063"/>
<path d="M84.9002 71.6901V84.9151H83.2695V71.6901H84.9002Z" fill="#051063"/>
<path d="M87.8914 76.4829H86.4198V75.0908H87.8914V74.8522C87.8914 73.712 88.1433 72.8701 88.6471 72.3265C89.1509 71.7696 89.9133 71.4912 90.9342 71.4912C91.1728 71.4912 91.3982 71.5045 91.6103 71.531C91.8357 71.5443 92.0876 71.584 92.3661 71.6503V73.0424C92.2202 73.0027 92.0412 72.9761 91.8291 72.9629C91.6302 72.9364 91.4314 72.9231 91.2325 72.9231C90.6093 72.9231 90.1652 73.0623 89.9 73.3407C89.6481 73.6192 89.5222 74.1097 89.5222 74.8124V75.0908H92.0677V76.4829H89.5222V84.9151H87.8914V76.4829ZM95.8463 73.3805H94.0962V71.6901H95.8463V73.3805ZM95.7867 84.9151H94.1559V75.0908H95.7867V84.9151Z" fill="#051063"/>
<path d="M99.4383 71.6901V84.9151H97.8075V71.6901H99.4383Z" fill="#051063"/>
<path d="M103.095 71.6901V84.9151H101.464V71.6901H103.095Z" fill="#051063"/>
<path d="M106.752 84.9151H105.121V75.0908H106.612L106.692 75.8465H106.752C107.335 75.5151 107.865 75.2764 108.343 75.1306C108.82 74.9715 109.297 74.8919 109.774 74.8919C110.331 74.8919 110.809 74.9781 111.206 75.1505C111.604 75.3228 111.916 75.5814 112.141 75.9261H112.201C112.731 75.5946 113.288 75.3427 113.871 75.1704C114.468 74.9848 115.064 74.8919 115.661 74.8919C116.602 74.8919 117.312 75.1439 117.789 75.6477C118.279 76.1382 118.525 76.8674 118.525 77.8353V84.9151H116.894V78.0341C116.894 77.464 116.742 77.0464 116.437 76.7812C116.132 76.5028 115.648 76.3636 114.985 76.3636C114.614 76.3636 114.222 76.4233 113.811 76.5426C113.4 76.6487 112.989 76.8078 112.578 77.0199C112.605 77.1525 112.618 77.285 112.618 77.4176C112.632 77.5502 112.638 77.6894 112.638 77.8353V84.9151H111.007V78.0341C111.007 77.464 110.855 77.0464 110.55 76.7812C110.245 76.5028 109.761 76.3636 109.098 76.3636C108.767 76.3636 108.415 76.4233 108.044 76.5426C107.673 76.6487 107.242 76.8343 106.752 77.0994V84.9151Z" fill="#051063"/>
<path d="M127.847 83.0059V84.3782C127.502 84.5638 126.992 84.7295 126.316 84.8753C125.653 85.0079 124.977 85.0742 124.287 85.0742C122.749 85.0742 121.649 84.6765 120.986 83.881C120.323 83.0855 119.992 81.7729 119.992 79.9433C119.992 78.18 120.336 76.9006 121.026 76.1051C121.715 75.2963 122.816 74.8919 124.327 74.8919C125.732 74.8919 126.74 75.2101 127.35 75.8465C127.96 76.4697 128.265 77.5171 128.265 78.9887C128.265 79.2539 128.258 79.4992 128.245 79.7245C128.232 79.9499 128.205 80.2217 128.165 80.5399H121.642C121.656 81.6271 121.874 82.4027 122.299 82.8667C122.736 83.3308 123.485 83.5628 124.546 83.5628C125.116 83.5628 125.713 83.5097 126.336 83.4037C126.959 83.2976 127.463 83.165 127.847 83.0059ZM126.773 78.77C126.76 77.8949 126.568 77.2784 126.196 76.9204C125.825 76.5492 125.202 76.3636 124.327 76.3636C123.346 76.3636 122.65 76.5757 122.239 77C121.841 77.411 121.642 78.1402 121.642 79.1876H126.753C126.753 79.1611 126.753 79.1014 126.753 79.0086C126.767 78.9025 126.773 78.823 126.773 78.77Z" fill="#051063"/>
<path d="M131.408 84.9151H129.777V75.0908H131.189L131.269 76.0454H131.328C131.859 75.6477 132.409 75.356 132.979 75.1704C133.562 74.9848 134.212 74.8919 134.928 74.8919C136.015 74.8919 136.837 75.1637 137.394 75.7073C137.964 76.2509 138.249 77.053 138.249 78.1137V84.9151H136.618V78.3126C136.618 77.6496 136.433 77.1591 136.061 76.8409C135.69 76.5227 135.12 76.3636 134.351 76.3636C133.874 76.3636 133.383 76.4432 132.879 76.6023C132.389 76.7481 131.898 76.9668 131.408 77.2585V84.9151Z" fill="#051063"/>
<path d="M145.843 83.3838V84.756C145.631 84.8488 145.339 84.9217 144.968 84.9748C144.61 85.0411 144.265 85.0742 143.934 85.0742C142.741 85.0742 141.885 84.809 141.368 84.2787C140.865 83.7484 140.613 82.8336 140.613 81.5343V76.4829H139.141V75.0908H140.633L140.891 72.7043H142.243V75.0908H145.744V76.4829H142.243V81.4746C142.243 82.2834 142.389 82.8336 142.681 83.1253C142.986 83.4169 143.516 83.5628 144.272 83.5628C144.511 83.5628 144.782 83.5429 145.087 83.5031C145.405 83.4633 145.657 83.4236 145.843 83.3838Z" fill="#051063"/>
</g>
<g id="Group_2">
<path id="Vector_5" d="M16.0489 45.9102V49.8556H10.622V64.4845H6.68664V49.8556H1.25977V45.9102H16.0489Z" fill="#051063"/>
<path id="Vector_6" d="M18.2949 45.9092H22.2303V53.2056H30.0831V45.9092H34.0185V64.4655H30.0831V57.1691H22.2303V64.4655H18.2949V45.9092Z" fill="#051063"/>
<path id="Vector_7" d="M49.5078 45.9096V49.8551H40.7205V53.206H47.8366V57.1515H40.7205V60.5205H49.5078V64.466H36.7852V45.8916H49.5078V45.9096Z" fill="#051063"/>
<path id="Vector_8" d="M52.2578 45.9092H56.1932V53.2056H64.046V45.9092H67.9814V64.4655H64.046V57.1691H56.1932V64.4655H52.2578V45.9092Z" fill="#051063"/>
<path id="Vector_9" d="M70.748 57.1511V45.9092H74.6834V57.1511C74.6834 58.232 75.0608 59.1508 75.8335 59.9255C76.6062 60.7002 77.5227 61.0785 78.6188 61.0785C79.715 61.0785 80.6135 60.7002 81.3862 59.9255C82.1589 59.1508 82.5362 58.232 82.5362 57.1511V45.9092H86.4716V57.1511C86.4716 59.331 85.6989 61.1866 84.1715 62.718C82.644 64.2493 80.7932 65.024 78.6188 65.024C76.4445 65.024 74.5936 64.2493 73.0662 62.718C71.5207 61.1866 70.748 59.331 70.748 57.1511Z" fill="#051063"/>
<path id="Vector_10" d="M92.2767 45.9092L98.4943 54.2505L104.73 45.9092H107.749V64.4655H103.813V53.692L99.3928 59.6193H97.5958L93.1573 53.638V64.4655H89.2578V45.9092H92.2947H92.2767Z" fill="#051063"/>
<path id="Vector_11" d="M123.993 62.2135H114.487L113.427 64.4655H109.061L117.758 45.9092H120.669L129.366 64.4655H125.036L123.975 62.2135H123.993ZM122.161 58.2861L119.249 52.0706L116.338 58.2861H122.161Z" fill="#051063"/>
<path id="Vector_12" d="M134.631 53.5479V64.4835H130.695V45.9092H133.912L141.908 56.8448V45.9092H145.844V64.4655H142.627L134.631 53.5479Z" fill="#051063"/>
</g>
</g>
<defs>
<filter id="filter0_d_3484_6214" x="61.7945" y="67.3912" width="88.1492" height="21.783" filterUnits="userSpaceOnUse" color-interpolation-filters="sRGB">
<feFlood flood-opacity="0" result="BackgroundImageFix"/>
<feColorMatrix in="SourceAlpha" type="matrix" values="0 0 0 0 0 0 0 0 0 0 0 0 0 0 0 0 0 0 127 0" result="hardAlpha"/>
<feOffset/>
<feGaussianBlur stdDeviation="2.05"/>
<feComposite in2="hardAlpha" operator="out"/>
<feColorMatrix type="matrix" values="0 0 0 0 0 0 0 0 0 0 0 0 0 0 0 0 0 0 0.11 0"/>
<feBlend mode="normal" in2="BackgroundImageFix" result="effect1_dropShadow_3484_6214"/>
<feBlend mode="normal" in="SourceGraphic" in2="effect1_dropShadow_3484_6214" result="shape"/>
</filter>
<clipPath id="clip0_3484_6214">
<rect width="212" height="88" fill="white"/>
</clipPath>
</defs>
</svg>
