<svg width="156" height="70" viewBox="0 0 156 70" fill="none" xmlns="http://www.w3.org/2000/svg">
<g clip-path="url(#clip0_2628_658)">
<path d="M143.019 3H106.808V16.7489H129.507C133.111 16.6854 136.547 15.209 139.074 12.6376C141.602 10.0663 143.018 6.60541 143.019 3Z" fill="#0066FF"/>
<path d="M83.8415 3V24.0255H69.4261V3H3.32031C3.32144 6.60718 4.73949 10.0696 7.26897 12.6413C9.79844 15.2129 13.2369 16.6881 16.8436 16.7489H23.4892V55.9294H39.1978V16.7489H53.7113V55.9294H69.4199V34.5466H83.8352V55.9294H99.5437V3H83.8415Z" fill="#0066FF"/>
<path d="M122.514 42.1222V34.5719H128.825C131.628 34.5714 134.315 33.4578 136.296 31.4762C138.277 29.4945 139.39 26.8071 139.39 24.0049H111.901C110.55 24.0049 109.255 24.5415 108.299 25.4967C107.344 26.4519 106.808 27.7474 106.808 29.0983V55.9296H129.212C132.874 55.9296 136.386 54.4749 138.975 51.8855C141.565 49.2962 143.019 45.7842 143.019 42.1222H122.514Z" fill="#0066FF"/>
</g>
<defs>
<clipPath id="clip0_2628_658">
<rect width="139.699" height="52.9294" fill="white" transform="translate(3.32031 3)"/>
</clipPath>
</defs>
</svg>
