<svg width="104" height="36" viewBox="0 0 104 36" fill="none" xmlns="http://www.w3.org/2000/svg">
<g id="Logo" clip-path="url(#clip0_3484_6282)">
<g id="Group">
<path id="Vector" d="M14.0041 5.31641V7.96551H10.3603V17.7878H7.71798V7.96551H4.07422V5.31641H14.0041Z" fill="white"/>
<path id="Vector_2" d="M15.5098 5.31641H18.1521V10.2154H23.4247V5.31641H26.067V17.7757H23.4247V12.8766H18.1521V17.7757H15.5098V5.31641Z" fill="white"/>
<path id="Vector_3" d="M36.4681 5.31678V7.96589H30.5681V10.2158H35.346V12.8649H30.5681V15.1269H36.4681V17.776H27.9258V5.30469H36.4681V5.31678Z" fill="white"/>
<path id="Vector_4" d="M38.3164 5.31641H40.9587V10.2154H46.2313V5.31641H48.8737V17.7757H46.2313V12.8766H40.9587V17.7757H38.3164V5.31641Z" fill="white"/>
<path id="Vector_5" d="M50.7324 12.8645V5.31641H53.3748V12.8645C53.3748 13.5903 53.6281 14.2072 54.1469 14.7274C54.6658 15.2475 55.2811 15.5016 56.0171 15.5016C56.7531 15.5016 57.3564 15.2475 57.8752 14.7274C58.394 14.2072 58.6474 13.5903 58.6474 12.8645V5.31641H61.2897V12.8645C61.2897 14.3282 60.7709 15.5741 59.7453 16.6023C58.7197 17.6305 57.477 18.1507 56.0171 18.1507C54.5572 18.1507 53.3144 17.6305 52.2889 16.6023C51.2512 15.5741 50.7324 14.3282 50.7324 12.8645Z" fill="white"/>
<path id="Vector_6" d="M65.1832 5.31641L69.3579 10.917L73.5446 5.31641H75.5716V17.7757H72.9293V10.542L69.9612 14.5218H68.7546L65.7744 10.5058V17.7757H63.1562V5.31641H65.1953H65.1832Z" fill="white"/>
<path id="Vector_7" d="M86.4795 16.2636H80.0969L79.385 17.7757H76.4531L82.2928 5.31641H84.2474L90.0871 17.7757H87.1793L86.4674 16.2636H86.4795ZM85.2488 13.6266L83.2942 9.45337L81.3396 13.6266H85.2488Z" fill="white"/>
<g id="fullfillment" filter="url(#filter0_d_3484_6282)">
<path d="M48.4013 25.9891H47.4121V25.0533H48.4013V24.8929C48.4013 24.1265 48.5885 23.5606 48.9628 23.1952C49.3371 22.8209 49.9119 22.6338 50.6872 22.6338C50.8833 22.6338 51.0793 22.6427 51.2754 22.6605C51.4714 22.6783 51.6541 22.7051 51.8235 22.7407V23.6765C51.7165 23.6497 51.5695 23.6319 51.3823 23.623C51.2041 23.6052 51.0258 23.5963 50.8476 23.5963C50.3396 23.5963 49.9876 23.6898 49.7916 23.877C49.5955 24.0552 49.4975 24.385 49.4975 24.8662V25.0533H51.6229V25.9891H49.4975V31.657H48.4013V25.9891Z" fill="white"/>
<path d="M54.438 31.7639C53.7072 31.7639 53.1591 31.5812 52.7938 31.2159C52.4284 30.8505 52.2457 30.3024 52.2457 29.5716V25.0533H53.3418V29.438C53.3418 29.8925 53.4577 30.2222 53.6894 30.4272C53.9211 30.6321 54.2865 30.7346 54.7855 30.7346C55.0886 30.7346 55.3916 30.699 55.6946 30.6277C56.0065 30.5475 56.3184 30.4272 56.6303 30.2667V25.0533H57.7264V31.657H56.7239L56.6704 31.1089H56.6437C56.1802 31.3495 55.7792 31.5189 55.4406 31.6169C55.1019 31.7149 54.7677 31.7639 54.438 31.7639Z" fill="white"/>
<path d="M60.1873 22.7675V31.657H59.0911V22.7675H60.1873Z" fill="white"/>
<path d="M62.1979 25.9891H61.2087V25.0534H62.1979V24.8929C62.1979 24.1265 62.3672 23.5606 62.7058 23.1952C63.0445 22.8209 63.5569 22.6338 64.2431 22.6338C64.4035 22.6338 64.555 22.6427 64.6976 22.6605C64.8491 22.6694 65.0184 22.6962 65.2056 22.7407V23.6765C65.1076 23.6497 64.9873 23.6319 64.8447 23.623C64.711 23.6052 64.5773 23.5963 64.4436 23.5963C64.0248 23.5963 63.7262 23.6898 63.548 23.877C63.3787 24.0641 63.294 24.3939 63.294 24.8662V25.0534H65.0051V25.9891H63.294V31.657H62.1979V25.9891ZM67.5449 23.9037H66.3686V22.7675H67.5449V23.9037ZM67.5048 31.657H66.4087V25.0534H67.5048V31.657Z" fill="white"/>
<path d="M69.9594 22.7675V31.657H68.8632V22.7675H69.9594Z" fill="white"/>
<path d="M72.4173 22.7675V31.657H71.3211V22.7675H72.4173Z" fill="white"/>
<path d="M74.8751 31.657H73.779V25.0534H74.7816L74.835 25.5613H74.8751C75.2673 25.3385 75.6237 25.1781 75.9446 25.0801C76.2654 24.9731 76.5862 24.9197 76.907 24.9197C77.2813 24.9197 77.6022 24.9776 77.8695 25.0935C78.1369 25.2093 78.3463 25.3831 78.4978 25.6148H78.5379C78.8944 25.392 79.2687 25.2227 79.6608 25.1068C80.0618 24.9821 80.4628 24.9197 80.8639 24.9197C81.4966 24.9197 81.9734 25.089 82.2942 25.4277C82.624 25.7574 82.7888 26.2475 82.7888 26.8981V31.657H81.6927V27.0318C81.6927 26.6486 81.5902 26.3678 81.3852 26.1896C81.1802 26.0025 80.855 25.9089 80.4094 25.9089C80.1598 25.9089 79.8969 25.949 79.6207 26.0292C79.3444 26.1005 79.0682 26.2074 78.7919 26.35C78.8097 26.4391 78.8186 26.5283 78.8186 26.6174C78.8275 26.7065 78.832 26.8001 78.832 26.8981V31.657H77.7358V27.0318C77.7358 26.6486 77.6334 26.3678 77.4284 26.1896C77.2234 26.0025 76.8981 25.9089 76.4525 25.9089C76.2297 25.9089 75.9936 25.949 75.7441 26.0292C75.4945 26.1005 75.2049 26.2253 74.8751 26.4035V31.657Z" fill="white"/>
<path d="M89.055 30.3737V31.2961C88.8233 31.4208 88.4802 31.5322 88.0257 31.6303C87.5801 31.7194 87.1256 31.7639 86.6622 31.7639C85.6285 31.7639 84.8888 31.4966 84.4432 30.9619C83.9976 30.4272 83.7748 29.5449 83.7748 28.3151C83.7748 27.1298 84.0065 26.2698 84.4699 25.7351C84.9333 25.1915 85.673 24.9197 86.689 24.9197C87.6336 24.9197 88.3109 25.1336 88.7208 25.5613C89.1308 25.9802 89.3358 26.6842 89.3358 27.6734C89.3358 27.8517 89.3313 28.0165 89.3224 28.168C89.3135 28.3195 89.2957 28.5022 89.2689 28.7161H84.8843C84.8932 29.4469 85.0403 29.9682 85.3255 30.2801C85.6195 30.592 86.1231 30.748 86.836 30.748C87.2192 30.748 87.6202 30.7123 88.0391 30.6411C88.458 30.5698 88.7966 30.4806 89.055 30.3737ZM88.3332 27.5264C88.3243 26.9382 88.1951 26.5238 87.9455 26.2832C87.696 26.0337 87.2771 25.9089 86.689 25.9089C86.0295 25.9089 85.5616 26.0515 85.2853 26.3367C85.018 26.6129 84.8843 27.1031 84.8843 27.8071H88.3198C88.3198 27.7893 88.3198 27.7492 88.3198 27.6868C88.3287 27.6155 88.3332 27.562 88.3332 27.5264Z" fill="white"/>
<path d="M91.4485 31.657H90.3523V25.0534H91.3014L91.3549 25.695H91.395C91.7515 25.4277 92.1213 25.2316 92.5045 25.1068C92.8967 24.9821 93.3333 24.9197 93.8146 24.9197C94.5453 24.9197 95.0979 25.1024 95.4722 25.4678C95.8554 25.8331 96.047 26.3723 96.047 27.0852V31.657H94.9508V27.2189C94.9508 26.7733 94.8261 26.4436 94.5765 26.2297C94.327 26.0158 93.9438 25.9089 93.4269 25.9089C93.1061 25.9089 92.7763 25.9624 92.4377 26.0693C92.108 26.1673 91.7782 26.3144 91.4485 26.5104V31.657Z" fill="white"/>
<path d="M101.151 30.6277V31.5501C101.009 31.6124 100.813 31.6615 100.563 31.6971C100.323 31.7417 100.091 31.7639 99.8682 31.7639C99.0661 31.7639 98.4913 31.5857 98.1437 31.2292C97.8051 30.8728 97.6358 30.2578 97.6358 29.3845V25.9891H96.6465V25.0534H97.6491L97.8229 23.4492H98.7319V25.0534H101.085V25.9891H98.7319V29.3444C98.7319 29.888 98.8299 30.2578 99.026 30.4539C99.231 30.65 99.5874 30.748 100.095 30.748C100.256 30.748 100.439 30.7346 100.643 30.7079C100.857 30.6812 101.027 30.6544 101.151 30.6277Z" fill="white"/>
</g>
<path id="Vector_8" d="M93.6228 10.4453V17.7878H90.9805V5.31641H93.1402L98.5093 12.6589V5.31641H101.152V17.7757H98.9919L93.6228 10.4453Z" fill="white"/>
</g>
</g>
<defs>
<filter id="filter0_d_3484_6282" x="43.3121" y="18.5338" width="61.9402" height="17.3299" filterUnits="userSpaceOnUse" color-interpolation-filters="sRGB">
<feFlood flood-opacity="0" result="BackgroundImageFix"/>
<feColorMatrix in="SourceAlpha" type="matrix" values="0 0 0 0 0 0 0 0 0 0 0 0 0 0 0 0 0 0 127 0" result="hardAlpha"/>
<feOffset/>
<feGaussianBlur stdDeviation="2.05"/>
<feComposite in2="hardAlpha" operator="out"/>
<feColorMatrix type="matrix" values="0 0 0 0 0 0 0 0 0 0 0 0 0 0 0 0 0 0 0.11 0"/>
<feBlend mode="normal" in2="BackgroundImageFix" result="effect1_dropShadow_3484_6282"/>
<feBlend mode="normal" in="SourceGraphic" in2="effect1_dropShadow_3484_6282" result="shape"/>
</filter>
<clipPath id="clip0_3484_6282">
<rect width="104" height="36" fill="white"/>
</clipPath>
</defs>
</svg>
