<svg width="444" height="94" viewBox="0 0 444 94" fill="none" xmlns="http://www.w3.org/2000/svg">
<path d="M200.797 41.6765H176.782V18.9727H166.265V75.0082H176.782V51.4122H200.797V75.0082H211.314V18.9727H200.797V41.6765Z" fill="black"/>
<path d="M256.702 18.9727H221.727V52.0454C221.727 60.3903 223.543 66.4331 227.164 70.1931C230.786 73.9435 236.543 75.8235 244.435 75.8235C252.328 75.8235 257.878 73.8764 261.612 69.9725C265.356 66.0686 267.218 60.0929 267.218 52.055V18.9727H256.702ZM254.068 62.769C252.318 64.7354 249.101 65.7233 244.426 65.7233C239.751 65.7233 236.628 64.7546 234.869 62.817C233.119 60.8795 232.235 57.2921 232.235 52.0454V27.9411H256.692V52.0454C256.692 57.225 255.817 60.8027 254.058 62.769H254.068Z" fill="black"/>
<path d="M303.886 50.8752L289.945 18.9727H276.973V75.0082H286.879V36.0366L299.324 64.016H308.006L320.536 36.1325V75.0082H330.442V18.9727H317.912L303.886 50.8752Z" fill="black"/>
<path d="M357.006 18.9727L335.963 75.0178H347.007L350.863 63.5747H373.571L377.513 75.0178H388.556L367.871 18.9727H357.006ZM353.94 54.7215L357.796 43.3743C358.502 41.2258 359.245 38.9046 360.035 36.4011C360.825 33.8976 361.54 31.5188 362.18 29.2552C362.885 31.7011 363.638 34.1854 364.456 36.7176C365.275 39.2499 366.008 41.4656 366.648 43.3743L370.505 54.7215H353.94Z" fill="black"/>
<path d="M433.681 57.8484L407.558 18.9727H397.305V75.0082H407.21V37.0246L433.248 75.0082H443.501V18.9727H433.681V57.8484Z" fill="black"/>
<path d="M112.797 33.6961C107.124 14.3877 89.5714 0.316513 68.7918 0.316513C49.5831 0.316513 33.1307 12.3447 26.2731 29.4181V29.3894C10.2722 33.0726 0 38.7798 0 45.1775C0 51.5753 9.64195 56.9179 24.7869 60.6108C30.4592 79.9192 48.0122 93.9904 68.7918 93.9904C88.0004 93.9904 104.453 81.9622 111.31 64.8887V64.9175C127.311 61.2343 137.584 55.5271 137.584 49.1294C137.584 42.7316 127.942 37.389 112.797 33.6961ZM106.108 57.2057C101.753 74.0681 86.7023 86.4992 68.8012 86.4992C52.7814 86.4992 39.0475 76.5428 33.2059 62.3661C31.2869 57.6949 30.2146 52.5632 30.2146 47.1822V47.1535C30.2146 25.4279 47.4854 7.80774 68.8012 7.80774C84.8209 7.80774 98.5548 17.7641 104.396 31.9408C100.06 31.1735 95.4036 30.5308 90.512 30.0512C83.2406 29.2934 75.4236 28.8714 67.2679 28.8714C59.6672 28.8714 52.3581 29.2359 45.5194 29.8977V33.7153H45.4818V45.9065H45.5006C45.8486 58.7308 56.1397 69.0132 68.7918 69.0132C81.4439 69.0132 91.7443 58.7308 92.083 45.9065H92.1018V36.9765H92.8637C94.6604 37.0341 99.2509 37.4849 102.524 40.4871C102.882 40.8516 103.221 41.2257 103.55 41.6094C105.196 43.6908 108.14 48.8128 106.118 57.2057H106.108ZM84.2189 36.9861V45.8298C83.9179 54.2706 77.1356 61.0136 68.7824 61.0136C60.4292 61.0136 53.6469 54.261 53.3458 45.8298V36.9861H84.2095H84.2189Z" fill="url(#paint0_linear_98_589)"/>
<defs>
<linearGradient id="paint0_linear_98_589" x1="37.8247" y1="14.2055" x2="101.21" y2="79.0786" gradientUnits="userSpaceOnUse">
<stop stop-color="#FF843D"/>
<stop offset="1" stop-color="#FF9D42"/>
</linearGradient>
</defs>
</svg>
