<svg width="351" height="209" viewBox="0 0 351 209" fill="none" xmlns="http://www.w3.org/2000/svg">
<path d="M160.941 102.683C165.505 102.671 169.72 105.115 171.977 109.078L197.687 154.27L209.052 156.844C230.52 165.054 223.26 205.686 223.26 205.686L67.2522 205.414C56.7805 205.179 47.125 199.21 42.7032 189.713C27.42 156.872 87.2333 112.33 98.7241 104.169C99.93 103.312 101.367 102.853 102.845 102.849L160.941 102.679V102.683Z" fill="white"/>
<path d="M96.8036 105.549C94.1684 107.469 90.3395 110.344 85.8975 113.95C95.8454 121.429 111.612 129.489 128.929 124.852C128.929 124.852 103.609 121.015 96.8036 105.549Z" fill="#17171E"/>
<path d="M155.695 124.957C163.946 124.673 171.133 122.058 177.252 118.355L173.171 111.181C169.038 120.621 155.695 124.957 155.695 124.957Z" fill="#17171E"/>
<path d="M166.748 89.2828C149.483 69.0581 123.858 72.9602 109.801 77.1911C100.235 80.0699 93.8883 89.4371 95.2241 99.3363C97.973 119.703 129.494 124.957 129.494 124.957H155.699C155.699 124.957 188.848 115.172 166.748 89.2828Z" fill="white"/>
<path d="M129.494 124.957C129.494 124.957 97.973 119.703 95.2241 99.3363C93.8883 89.4371 100.235 80.0699 109.801 77.1911C123.858 72.9602 149.483 69.0581 166.748 89.2828C188.848 115.172 155.699 124.957 155.699 124.957" stroke="#17171E" stroke-width="1.21811" stroke-miterlimit="10" stroke-linecap="round"/>
<path d="M121.769 70.3646C123.979 68.1542 123.979 64.5704 121.769 62.36C119.558 60.1495 115.974 60.1495 113.764 62.36C111.554 64.5704 111.554 68.1542 113.764 70.3646C115.974 72.5751 119.558 72.5751 121.769 70.3646Z" fill="white"/>
<path d="M121.769 70.3646C123.979 68.1542 123.979 64.5704 121.769 62.36C119.558 60.1495 115.974 60.1495 113.764 62.36C111.554 64.5704 111.554 68.1542 113.764 70.3646C115.974 72.5751 119.558 72.5751 121.769 70.3646Z" stroke="#17171E" stroke-width="1.21811" stroke-miterlimit="10"/>
<path d="M119.554 75.8154V97.5952C119.554 100.669 121.158 103.519 123.781 105.119L146.961 119.233L155.695 102.663V82.0237L119.554 75.8154Z" fill="white"/>
<path d="M119.554 75.8154V96.4827C119.554 100.247 121.515 103.739 124.731 105.696L146.961 119.229L154.083 105.716C155.143 103.706 155.695 101.469 155.695 99.1991V95.4189" stroke="#17171E" stroke-width="1.21811" stroke-miterlimit="10"/>
<path d="M146.803 97.8064C132.518 97.8064 120.585 86.9327 119.261 72.7093L116.545 43.503C116.545 43.503 165.59 30.8509 168.323 43.503C170.499 53.5931 167.823 70.541 165.241 82.8196C163.406 91.5453 155.723 97.8023 146.803 97.8023V97.8064Z" fill="white"/>
<path d="M168.782 58.2744C168.136 65.9972 166.675 76.006 165.241 82.8234C163.406 91.5491 155.724 97.8061 146.803 97.8061C132.519 97.8061 120.289 87.2289 119.185 71.8442" stroke="#17171E" stroke-width="1.21811" stroke-miterlimit="10" stroke-linecap="round"/>
<path d="M136.38 52.3057C134.76 51.6804 133.156 51.0185 131.564 50.3283C130.33 56.634 127.082 62.55 122.388 67.0326C121.807 67.5848 121.04 68.1614 120.268 67.9178C119.785 67.7675 119.46 67.3331 119.168 66.927C118.283 65.6846 117.402 64.4462 116.517 63.2037C115.465 61.7257 114.214 60.9908 112.919 59.6671C109.76 56.4351 107.543 52.1757 107.417 47.7053C107.291 43.2307 109.484 38.6141 113.414 36.3322C117.345 34.0503 122.936 34.5862 125.933 37.9604C130.346 26.7172 143.128 19.2421 155.33 20.7688C162.841 21.7067 169.683 26.0107 174.145 31.9348C175.814 34.1477 177.158 36.5961 178.084 39.1907C179.14 42.1466 180.293 45.6994 179.083 48.765C177.134 53.6984 173.057 57.3608 167.852 58.5018C162.797 59.6103 157.518 58.652 152.499 57.4055C147.022 56.0453 141.63 54.3358 136.376 52.3016L136.38 52.3057Z" fill="#FF7614"/>
<path d="M173.131 111.575L197.688 154.27L209.053 156.844C230.52 165.054 223.26 205.686 223.26 205.686" stroke="#17171E" stroke-width="1.21811" stroke-miterlimit="10" stroke-linecap="round"/>
<path d="M96.8034 105.549C96.8034 105.549 27.3833 155.146 42.7031 189.712C46.9462 199.291 56.7763 205.178 67.2521 205.414C86.417 205.844 131.633 206.282 140.306 202.307C149.178 198.243 148.236 184.028 146.892 176.865C146.531 174.949 144.915 173.527 142.966 173.418L89.714 168.208" stroke="#17171E" stroke-width="1.21811" stroke-miterlimit="10" stroke-linecap="round"/>
<path d="M143.291 180.057L161.725 181.052L182.173 191.853C183.2 192.397 183.614 193.655 183.103 194.703C182.607 195.722 181.405 196.181 180.354 195.755L167.036 190.33C166.808 190.237 166.642 190.549 166.845 190.687L180.638 200.002C181.604 200.656 181.848 201.975 181.178 202.929C180.549 203.823 179.335 204.082 178.397 203.518L162.837 194.151C162.683 194.057 162.525 194.269 162.659 194.39L168.709 199.921C170.069 201.167 169.468 203.429 167.665 203.827C167.097 203.953 166.5 203.855 166 203.555L159.658 199.75L142.921 199.872C137.424 199.904 132.953 195.458 132.953 189.961C132.953 184.321 137.655 179.814 143.291 180.057Z" fill="white"/>
<path d="M143.291 180.057L161.725 181.052L182.173 191.853C183.2 192.397 183.614 193.655 183.103 194.703C182.607 195.722 181.405 196.181 180.354 195.755L167.036 190.33C166.808 190.237 166.642 190.549 166.845 190.687L180.638 200.002C181.604 200.656 181.848 201.975 181.178 202.929C180.549 203.823 179.335 204.082 178.397 203.518L162.837 194.151C162.683 194.057 162.525 194.269 162.659 194.39L168.709 199.921C170.069 201.167 169.468 203.429 167.665 203.827C167.097 203.953 166.5 203.855 166 203.555L159.658 199.75L142.921 199.872C137.424 199.904 132.953 195.458 132.953 189.961C132.953 184.321 137.655 179.814 143.291 180.057Z" stroke="#17171E" stroke-width="1.21811" stroke-miterlimit="10"/>
<path d="M127.643 187.706C127.817 183.548 130.322 180.06 133.822 178.416" stroke="#17171E" stroke-width="1.21811" stroke-miterlimit="10" stroke-linecap="round"/>
<path d="M95.0459 158.204C95.0459 158.204 98.2901 160.279 98.0831 165.667" stroke="#17171E" stroke-width="1.21811" stroke-miterlimit="10" stroke-linecap="round"/>
<path d="M195.739 156.763C195.739 156.763 182.684 156.966 180.809 172.302" stroke="#17171E" stroke-width="1.21811" stroke-miterlimit="10" stroke-linecap="round"/>
<path d="M203.205 165.667C203.205 165.667 192.896 165.825 191.414 177.941" stroke="#17171E" stroke-width="0.812073" stroke-miterlimit="10" stroke-linecap="round"/>
<path d="M134.943 121.92C134.943 121.92 144.221 129.59 142.82 151.569" stroke="#17171E" stroke-width="1.62415" stroke-miterlimit="10" stroke-linecap="round"/>
<path d="M153.028 121.92C153.028 121.92 147.218 127.312 150.019 151.569" stroke="#17171E" stroke-width="1.62415" stroke-miterlimit="10" stroke-linecap="round"/>
<path d="M4.60938 205.686H346.561" stroke="#17171E" stroke-width="1.21811" stroke-miterlimit="10" stroke-linecap="round"/>
<path d="M153.117 71.0322L153.543 81.0776C153.555 81.3212 153.32 81.4999 153.088 81.4308L150.173 80.5457" stroke="#17171E" stroke-width="1.21811" stroke-miterlimit="10" stroke-linecap="round"/>
<path d="M149.607 87.3297C149.607 87.3297 148.747 83.7565 145.001 85.2509" stroke="#17171E" stroke-width="1.21811" stroke-miterlimit="10" stroke-linecap="round"/>
<path d="M155.943 64.6891C155.943 64.6891 158.903 62.7848 162.184 64.6891" stroke="#17171E" stroke-width="1.21811" stroke-miterlimit="10" stroke-linecap="round"/>
<path d="M138.487 64.2673C138.487 64.2673 141.366 62.2452 144.724 64.0155" stroke="#17171E" stroke-width="1.21811" stroke-miterlimit="10" stroke-linecap="round"/>
<path d="M160.405 70.0414C160.405 70.9144 159.812 71.6209 159.085 71.6209C158.358 71.6209 157.766 70.9144 157.766 70.0414C157.766 69.1684 158.358 68.4619 159.085 68.4619C159.812 68.4619 160.405 69.1684 160.405 70.0414Z" fill="#17171E"/>
<path d="M144.16 70.0414C144.16 70.9144 143.567 71.6209 142.84 71.6209C142.113 71.6209 141.521 70.9144 141.521 70.0414C141.521 69.1684 142.113 68.4619 142.84 68.4619C143.567 68.4619 144.16 69.1684 144.16 70.0414Z" fill="#17171E"/>
<path d="M138.955 196.757H210.215V206.173H147.445C142.76 206.173 138.955 202.368 138.955 197.682V196.757Z" fill="#002DAA"/>
<path d="M284.909 206.173H179.575L201.468 148.195C203.458 142.928 208.501 139.44 214.133 139.44H299.498C304.63 139.44 308.175 144.573 306.364 149.372L284.913 206.173H284.909Z" fill="#375DE2"/>
<path d="M249.394 177.303C251.232 174.489 250.442 170.718 247.628 168.879C244.814 167.04 241.042 167.831 239.203 170.645C237.365 173.459 238.155 177.231 240.969 179.069C243.783 180.908 247.555 180.117 249.394 177.303Z" fill="white"/>
<path d="M302.68 77.6094H235.863C233.65 77.6094 232.383 75.632 233.191 73.4516L240.756 52.9874C241.401 51.2373 243.184 49.9502 244.954 49.9502H311.772C313.985 49.9502 315.251 51.9276 314.447 54.108L306.883 74.5723C306.237 76.3223 304.455 77.6094 302.685 77.6094H302.68Z" fill="#375DE2"/>
<path d="M253.595 69.9603C253.355 69.5787 253.339 69.1117 253.546 68.5595C253.753 68.0073 254.119 67.5404 254.638 67.1587C255.162 66.777 255.698 66.5862 256.25 66.5862C256.803 66.5862 257.2 66.777 257.44 67.1587C257.68 67.5404 257.696 68.0073 257.489 68.5595C257.282 69.1117 256.916 69.5787 256.396 69.9603C255.873 70.342 255.337 70.5329 254.785 70.5329C254.232 70.5329 253.834 70.342 253.599 69.9603H253.595Z" fill="white"/>
<path d="M260.047 69.9603C259.807 69.5787 259.791 69.1117 259.998 68.5595C260.205 68.0073 260.571 67.5404 261.091 67.1587C261.614 66.777 262.15 66.5862 262.702 66.5862C263.255 66.5862 263.653 66.777 263.892 67.1587C264.132 67.5404 264.148 68.0073 263.941 68.5595C263.734 69.1117 263.368 69.5787 262.849 69.9603C262.325 70.342 261.789 70.5329 261.237 70.5329C260.684 70.5329 260.287 70.342 260.047 69.9603Z" fill="white"/>
<path d="M266.503 69.9603C266.263 69.5787 266.247 69.1117 266.454 68.5595C266.661 68.0073 267.027 67.5404 267.547 67.1587C268.07 66.777 268.606 66.5862 269.159 66.5862C269.711 66.5862 270.109 66.777 270.348 67.1587C270.588 67.5404 270.604 68.0073 270.397 68.5595C270.19 69.1117 269.824 69.5787 269.305 69.9603C268.781 70.342 268.245 70.5329 267.693 70.5329C267.141 70.5329 266.743 70.342 266.507 69.9603H266.503Z" fill="white"/>
<path d="M272.954 69.9603C272.715 69.5787 272.698 69.1117 272.905 68.5595C273.113 68.0073 273.478 67.5404 273.998 67.1587C274.522 66.777 275.057 66.5862 275.61 66.5862C276.162 66.5862 276.56 66.777 276.799 67.1587C277.039 67.5404 277.055 68.0073 276.848 68.5595C276.641 69.1117 276.276 69.5787 275.756 69.9603C275.232 70.342 274.696 70.5329 274.144 70.5329C273.592 70.5329 273.194 70.342 272.954 69.9603Z" fill="white"/>
<path d="M279.41 69.9603C279.171 69.5787 279.154 69.1117 279.362 68.5595C279.569 68.0073 279.934 67.5404 280.454 67.1587C280.978 66.777 281.514 66.5862 282.066 66.5862C282.618 66.5862 283.016 66.777 283.255 67.1587C283.495 67.5404 283.511 68.0073 283.304 68.5595C283.097 69.1117 282.732 69.5787 282.212 69.9603C281.688 70.342 281.152 70.5329 280.6 70.5329C280.048 70.5329 279.65 70.342 279.41 69.9603Z" fill="white"/>
<path d="M285.863 69.9603C285.623 69.5787 285.607 69.1117 285.814 68.5595C286.021 68.0073 286.386 67.5404 286.906 67.1587C287.43 66.777 287.966 66.5862 288.518 66.5862C289.07 66.5862 289.468 66.777 289.708 67.1587C289.947 67.5404 289.964 68.0073 289.756 68.5595C289.549 69.1117 289.184 69.5787 288.664 69.9603C288.14 70.342 287.604 70.5329 287.052 70.5329C286.5 70.5329 286.102 70.342 285.867 69.9603H285.863Z" fill="white"/>
<path d="M286.357 89.6412H228.346C227.79 89.6412 227.404 89.0889 227.595 88.5692L228.789 85.2925C228.903 84.9758 229.203 84.7646 229.54 84.7646H287.551C288.107 84.7646 288.493 85.3169 288.302 85.8366L287.108 89.1133C286.994 89.43 286.694 89.6412 286.357 89.6412Z" fill="#17171E"/>
<path d="M258.138 98.813H232.472C231.916 98.813 231.53 98.2608 231.721 97.7411L232.915 94.4644C233.029 94.1477 233.329 93.9365 233.666 93.9365H259.332C259.888 93.9365 260.274 94.4887 260.083 95.0085L258.889 98.2852C258.775 98.6019 258.475 98.813 258.138 98.813Z" fill="#FF7614"/>
<path d="M238.003 107.99H221.664C221.108 107.99 220.722 107.438 220.913 106.918L222.106 103.641C222.22 103.324 222.521 103.113 222.858 103.113H239.197C239.753 103.113 240.139 103.665 239.948 104.185L238.754 107.462C238.64 107.779 238.34 107.99 238.003 107.99Z" fill="#17171E"/>
<path d="M246.858 107.99H292.273C292.61 107.99 292.911 107.779 293.025 107.462L294.218 104.185C294.409 103.665 294.023 103.113 293.467 103.113H248.052C247.715 103.113 247.414 103.324 247.301 103.641L246.107 106.918C245.916 107.438 246.302 107.99 246.858 107.99Z" fill="#17171E"/>
<path d="M248.657 117.162H225.789C225.232 117.162 224.847 116.61 225.038 116.09L226.231 112.814C226.345 112.497 226.645 112.286 226.982 112.286H249.85C250.407 112.286 250.792 112.838 250.602 113.358L249.408 116.635C249.294 116.951 248.994 117.162 248.657 117.162Z" fill="#FF7614"/>
<path d="M255.133 117.162H269.961C270.298 117.162 270.599 116.951 270.712 116.635L271.906 113.358C272.097 112.838 271.711 112.286 271.155 112.286H256.326C255.989 112.286 255.689 112.497 255.575 112.814L254.381 116.09C254.191 116.61 254.576 117.162 255.133 117.162Z" fill="#FF7614"/>
<path d="M238.473 126.338H214.984C214.428 126.338 214.042 125.786 214.233 125.266L215.427 121.99C215.54 121.673 215.841 121.462 216.178 121.462H239.667C240.223 121.462 240.609 122.014 240.418 122.534L239.225 125.811C239.111 126.127 238.81 126.338 238.473 126.338Z" fill="#17171E"/>
<path d="M244.219 126.338H300.207C300.544 126.338 300.844 126.127 300.958 125.811L302.152 122.534C302.343 122.014 301.957 121.462 301.401 121.462H245.412C245.075 121.462 244.775 121.673 244.661 121.99L243.467 125.266C243.277 125.786 243.662 126.338 244.219 126.338Z" fill="#17171E"/>
<path d="M264.191 98.813H271.821C272.158 98.813 272.458 98.6019 272.572 98.2852L273.766 95.0085C273.956 94.4887 273.571 93.9365 273.014 93.9365H265.385C265.048 93.9365 264.747 94.1477 264.634 94.4644L263.44 97.7411C263.249 98.2608 263.635 98.813 264.191 98.813Z" fill="#17171E"/>
<path d="M292.878 89.6412H306.728C307.065 89.6412 307.365 89.43 307.479 89.1133L308.673 85.8366C308.863 85.3169 308.478 84.7646 307.921 84.7646H294.071C293.734 84.7646 293.434 84.9758 293.32 85.2925L292.127 88.5692C291.936 89.0889 292.321 89.6412 292.878 89.6412Z" fill="#17171E"/>
<path d="M315.531 205.687H308.028C302.818 205.687 298.587 201.456 298.587 196.246V179.647C298.587 178.405 299.598 177.394 300.841 177.394H322.722C323.965 177.394 324.976 178.405 324.976 179.647V196.246C324.976 201.456 320.745 205.687 315.535 205.687H315.531Z" fill="white"/>
<path d="M315.531 205.687H308.028C302.818 205.687 298.587 201.456 298.587 196.246V179.647C298.587 178.405 299.598 177.394 300.841 177.394H322.722C323.965 177.394 324.976 178.405 324.976 179.647V196.246C324.976 201.456 320.745 205.687 315.535 205.687H315.531Z" stroke="#17171E" stroke-width="1.21811" stroke-miterlimit="10" stroke-linecap="round"/>
<path d="M307.841 159.638C308.536 156.219 311.069 153.368 314.106 151.651C317.144 149.933 320.652 149.227 324.123 148.886C323.401 151.484 324.826 154.12 325.695 156.674C326.69 159.597 326.953 162.857 325.914 165.765C325.317 167.433 324.257 168.948 322.869 170.056C321.46 171.181 319.836 171.437 318.175 172.01C317.318 172.306 316.522 172.85 315.613 172.887C314.297 172.943 313.177 171.916 312.458 170.812C311.861 169.898 311.419 168.879 310.728 168.022C310.075 167.218 309.315 166.605 308.796 165.679C307.776 163.868 307.427 161.672 307.841 159.634V159.638Z" fill="#FF7614"/>
<path d="M290.304 163.04C290.625 160.295 291.587 157.668 292.16 154.96C292.749 152.166 292.919 149.288 292.663 146.445C295.831 150.136 301.543 150.161 305.628 152.796C308.028 154.343 309.733 156.787 310.643 159.471C311.654 162.463 311.723 165.553 310.492 168.473C310.44 168.603 310.383 168.733 310.326 168.863C309.952 169.723 309.583 170.588 309.209 171.449C309.027 171.875 308.791 172.346 308.349 172.484C308.15 172.545 307.939 172.525 307.731 172.521C306.245 172.484 304.861 173.126 303.419 173.386C302.124 173.621 300.638 173.605 299.318 173.573C296.748 173.508 294.024 172.826 292.245 170.848C290.398 168.794 289.98 165.789 290.304 163.04Z" fill="#FF7614"/>
<path d="M320.826 153.563C316.291 160.503 315.263 169.115 314.833 177.394" stroke="#17171E" stroke-width="1.21811" stroke-miterlimit="10" stroke-linecap="round"/>
<path d="M297.15 155.41C303.237 161.346 307.541 169.09 309.376 177.393" stroke="#17171E" stroke-width="1.21811" stroke-miterlimit="10" stroke-linecap="round"/>
<path d="M49.7431 205.686H42.2395C37.0301 205.686 32.7992 201.455 32.7992 196.245V179.646C32.7992 178.404 33.8102 177.393 35.0527 177.393H56.934C58.1765 177.393 59.1875 178.404 59.1875 179.646V196.245C59.1875 201.455 54.9566 205.686 49.7471 205.686H49.7431Z" fill="#FF7614"/>
<path d="M49.7431 205.686H42.2395C37.0301 205.686 32.7992 201.455 32.7992 196.245V179.646C32.7992 178.404 33.8102 177.393 35.0527 177.393H56.934C58.1765 177.393 59.1875 178.404 59.1875 179.646V196.245C59.1875 201.455 54.9566 205.686 49.7471 205.686H49.7431Z" stroke="#17171E" stroke-width="1.21811" stroke-miterlimit="10" stroke-linecap="round"/>
<path d="M32.7998 183.248H30.0225C27.9192 183.248 26.2139 184.953 26.2139 187.057V187.727C26.2139 189.83 27.9192 191.535 30.0225 191.535H32.7998" stroke="#17171E" stroke-width="1.21811" stroke-miterlimit="10" stroke-linecap="round"/>
<path d="M55.6025 181.538V194.239" stroke="#17171E" stroke-width="1.21811" stroke-miterlimit="10" stroke-linecap="round"/>
<path d="M100.844 48.1843L99.0613 38.545C100.6 35.1018 101.412 31.2647 101.246 27.2125C100.702 13.9879 89.8402 3.30911 76.6075 3.00865C62.1404 2.67976 50.3572 14.5157 50.7754 28.9991C51.149 41.9882 61.5192 52.6832 74.4921 53.4587C79.9938 53.7876 85.1262 52.3218 89.4098 49.6338L97.8513 51.1808C99.6257 51.5057 101.177 49.9546 100.848 48.1802L100.844 48.1843Z" fill="#375DE2"/>
<path d="M75.5833 35.5C79.9555 35.5 83.5 31.9555 83.5 27.5833C83.5 23.211 79.9555 19.6666 75.5833 19.6666C71.211 19.6666 67.6666 23.211 67.6666 27.5833C67.6666 31.9555 71.211 35.5 75.5833 35.5Z" stroke="white" stroke-linecap="round" stroke-linejoin="round"/>
<path d="M84.3333 36.3334L82.6666 34.6667" stroke="white" stroke-linecap="round" stroke-linejoin="round"/>
</svg>
