<svg width="52" height="52" viewBox="0 0 52 52" fill="none" xmlns="http://www.w3.org/2000/svg">
<g id="box-tick">
<circle id="Ellipse 3" cx="10.9578" cy="41.0417" r="10.9578" fill="#D4FF8E"/>
<g id="vuesax/linear/box-tick">
<g id="box-tick_2">
<g id="Group">
<g id="Group_2">
<path id="Vector" d="M6.87109 16.1201L26.0027 27.1918L45.0044 16.185" stroke="#333333" stroke-width="2" stroke-linecap="round" stroke-linejoin="round"/>
<path id="Vector_2" d="M26.002 46.8216V27.1699" stroke="#333333" stroke-width="2" stroke-linecap="round" stroke-linejoin="round"/>
</g>
<path id="Vector_3" d="M46.823 19.868V32.1314C46.823 32.2398 46.823 32.3263 46.8013 32.4347C45.2847 31.113 43.3347 30.3331 41.168 30.3331C39.1313 30.3331 37.2463 31.0481 35.7513 32.2397C33.758 33.8214 32.5013 36.2697 32.5013 38.9997C32.5013 40.6247 32.9563 42.163 33.758 43.463C33.953 43.8097 34.1913 44.1347 34.4513 44.4381L30.4863 46.6264C28.0163 48.0131 23.9863 48.0131 21.5163 46.6264L9.94631 40.213C7.32465 38.7614 5.17969 35.1214 5.17969 32.1314V19.868C5.17969 16.878 7.32465 13.2381 9.94631 11.7864L21.5163 5.37301C23.9863 3.98634 28.0163 3.98634 30.4863 5.37301L42.0563 11.7864C44.678 13.2381 46.823 16.878 46.823 19.868Z" stroke="#333333" stroke-width="2" stroke-linecap="round" stroke-linejoin="round"/>
<path id="Vector_4" d="M49.8085 38.803C49.8518 40.428 49.4185 41.9663 48.6385 43.288C48.2051 44.068 47.6202 44.783 46.9702 45.368C45.4752 46.7547 43.5034 47.5997 41.3151 47.6647C38.1518 47.7297 35.3568 46.1047 33.8185 43.613C32.9951 42.3347 32.4968 40.7964 32.4751 39.1714C32.4101 36.4414 33.6235 33.9714 35.5735 32.3464C37.0468 31.133 38.9102 30.3747 40.9468 30.3314C45.7352 30.223 49.7001 34.0146 49.8085 38.803Z" stroke="#0066FF" stroke-width="2" stroke-miterlimit="10" stroke-linecap="round" stroke-linejoin="round"/>
<path id="Vector_5" d="M37.7617 39.0634L39.9501 41.1433L44.4784 36.7666" stroke="#0066FF" stroke-width="2" stroke-linecap="round" stroke-linejoin="round"/>
</g>
</g>
</g>
</g>
</svg>
