<svg width="56" height="56" viewBox="0 0 56 56" fill="none" xmlns="http://www.w3.org/2000/svg">
<rect width="56" height="56" rx="13" fill="#218B85"/>
<path d="M16.2268 21.9199L28.0001 28.7332L39.6934 21.9599" stroke="white" stroke-width="1.5" stroke-linecap="round" stroke-linejoin="round"/>
<path d="M28 40.8132V28.7198" stroke="white" stroke-width="1.5" stroke-linecap="round" stroke-linejoin="round"/>
<path d="M40.8134 24.2266V31.7733C40.8134 31.84 40.8134 31.8933 40.8001 31.9599C39.8668 31.1466 38.6667 30.6667 37.3334 30.6667C36.0801 30.6667 34.9201 31.1067 34.0001 31.84C32.7734 32.8133 32.0001 34.32 32.0001 36C32.0001 37 32.2801 37.9466 32.7734 38.7466C32.8934 38.96 33.0401 39.16 33.2001 39.3467L30.7601 40.6933C29.2401 41.5467 26.7601 41.5467 25.2401 40.6933L18.1201 36.7466C16.5067 35.8533 15.1868 33.6133 15.1868 31.7733V24.2266C15.1868 22.3866 16.5067 20.1467 18.1201 19.2533L25.2401 15.3066C26.7601 14.4533 29.2401 14.4533 30.7601 15.3066L37.8801 19.2533C39.4934 20.1467 40.8134 22.3866 40.8134 24.2266Z" stroke="white" stroke-width="1.5" stroke-linecap="round" stroke-linejoin="round"/>
<path d="M42.6667 36C42.6667 37.6 41.96 39.0266 40.8534 40C39.9067 40.8266 38.68 41.3333 37.3333 41.3333C34.3867 41.3333 32 38.9466 32 36C32 34.32 32.7733 32.8133 34 31.84C34.92 31.1066 36.08 30.6666 37.3333 30.6666C40.28 30.6666 42.6667 33.0533 42.6667 36Z" stroke="white" stroke-width="1.5" stroke-miterlimit="10" stroke-linecap="round" stroke-linejoin="round"/>
<path d="M37.6667 34.3333V36.3333L36 37.3333" stroke="white" stroke-width="1.5" stroke-miterlimit="10" stroke-linecap="round" stroke-linejoin="round"/>
</svg>
