<svg width="52" height="52" viewBox="0 0 52 52" fill="none" xmlns="http://www.w3.org/2000/svg">
<circle cx="10.9578" cy="41.0422" r="10.9578" fill="#D4FF8E"/>
<path d="M19.8465 23.5518C19.6299 23.5302 19.3699 23.5302 19.1315 23.5518C13.9749 23.3785 9.87988 19.1535 9.87988 13.9535C9.87988 8.64516 14.1699 4.3335 19.4999 4.3335C24.8082 4.3335 29.1199 8.64516 29.1199 13.9535C29.0982 19.1535 25.0032 23.3785 19.8465 23.5518Z" stroke="#0066FF" stroke-width="2" stroke-linecap="round" stroke-linejoin="round"/>
<path d="M35.5551 8.6665C39.7584 8.6665 43.1384 12.0682 43.1384 16.2498C43.1384 20.3448 39.8884 23.6815 35.8368 23.8332C35.6634 23.8115 35.4684 23.8115 35.2734 23.8332" stroke="#333333" stroke-width="2" stroke-linecap="round" stroke-linejoin="round"/>
<path d="M9.01355 31.5465C3.77022 35.0565 3.77022 40.7765 9.01355 44.2648C14.9719 48.2515 24.7436 48.2515 30.7019 44.2648C35.9452 40.7548 35.9452 35.0348 30.7019 31.5465C24.7652 27.5815 14.9936 27.5815 9.01355 31.5465Z" stroke="#333333" stroke-width="2" stroke-linecap="round" stroke-linejoin="round"/>
<path d="M39.7363 43.333C41.2963 43.008 42.7697 42.3797 43.983 41.448C47.363 38.913 47.363 34.7313 43.983 32.1963C42.7913 31.2863 41.3397 30.6797 39.8013 30.333" stroke="#333333" stroke-width="2" stroke-linecap="round" stroke-linejoin="round"/>
</svg>
