<svg width="18" height="14" viewBox="0 0 18 14" fill="none" xmlns="http://www.w3.org/2000/svg">
<g clip-path="url(#clip0_6102_1989)">
<path d="M17.9998 0.0742188H13.334V3.6916H16.2588C16.7232 3.67489 17.1659 3.28646 17.4915 2.60991C17.8171 1.93338 17.9997 1.02281 17.9998 0.0742188Z" fill="#0066FF"/>
<path d="M10.375 0.0742188V5.6061H8.51759V0.0742188H0C0.00014572 1.02328 0.182859 1.93425 0.508776 2.61087C0.834693 3.28749 1.27773 3.67559 1.74244 3.6916H2.59873V14.0001H4.62273V3.6916H6.49277V14.0001H8.51678V8.37425H10.3742V14.0001H12.3981V0.0742188H10.375Z" fill="#0066FF"/>
<path d="M15.3578 10.3673V8.38082H16.171C16.5321 8.38068 16.8783 8.0877 17.1336 7.56631C17.3888 7.04494 17.5323 6.33785 17.5323 5.60059H13.9903C13.8162 5.60059 13.6493 5.74178 13.5263 5.99309C13.4032 6.2444 13.334 6.58528 13.334 6.94068V14.0001H16.2208C16.6926 14.0001 17.1451 13.6174 17.4787 12.9361C17.8124 12.2548 17.9998 11.3308 17.9998 10.3673H15.3578Z" fill="#0066FF"/>
</g>
<defs>
<clipPath id="clip0_6102_1989">
<rect width="18" height="14" fill="white"/>
</clipPath>
</defs>
</svg>
