          <svg width="25" height="24" viewBox="0 0 25 24" fill="none" xmlns="http://www.w3.org/2000/svg">
            <path d="M3.67001 7.43994L12.5 12.5499L21.27 7.46991" stroke="white" stroke-linecap="round" stroke-linejoin="round"/>
            <path d="M12.5 21.6099V12.5399" stroke="white" stroke-linecap="round" stroke-linejoin="round"/>
            <path d="M22.11 12.83V9.17C22.11 7.79 21.12 6.11002 19.91 5.44002L14.57 2.48C13.43 1.84 11.57 1.84 10.43 2.48L5.09 5.44002C3.88 6.11002 2.89001 7.79 2.89001 9.17V14.83C2.89001 16.21 3.88 17.89 5.09 18.56L10.43 21.52C11 21.84 11.75 22 12.5 22C13.25 22 14 21.84 14.57 21.52" stroke="white" stroke-linecap="round" stroke-linejoin="round"/>
            <path d="M19.7 21.4C21.4673 21.4 22.9 19.9673 22.9 18.2C22.9 16.4327 21.4673 15 19.7 15C17.9327 15 16.5 16.4327 16.5 18.2C16.5 19.9673 17.9327 21.4 19.7 21.4Z" stroke="white" stroke-linecap="round" stroke-linejoin="round"/>
            <path d="M23.5 22L22.5 21" stroke="white" stroke-linecap="round" stroke-linejoin="round"/>
          </svg>