												<svg width="56" height="56" viewBox="0 0 56 56" fill="none" xmlns="http://www.w3.org/2000/svg">
													<rect width="56" height="56" rx="13" fill="#E8173C"/>
													<path d="M16.2266 21.9202L27.9999 28.7335L39.6932 21.9601" stroke="white" stroke-width="1.5" stroke-linecap="round" stroke-linejoin="round"/>
													<path d="M27.9999 40.8134V28.7201" stroke="white" stroke-width="1.5" stroke-linecap="round" stroke-linejoin="round"/>
													<path d="M40.8008 31.9601C40.8142 31.8934 40.8141 31.8401 40.8141 31.7735V24.2268C40.8141 22.3868 39.4942 20.1468 37.8808 19.2534L30.7608 15.3067C29.2408 14.4534 26.7608 14.4534 25.2408 15.3067L18.1208 19.2534C16.5075 20.1468 15.1875 22.3868 15.1875 24.2268V31.7735C15.1875 33.6135 16.5075 35.8534 18.1208 36.7468L25.2408 40.6935C26.7608 41.5468 29.2408 41.5468 30.7608 40.6935L33.2008 39.3468C33.0408 39.1601 32.8941 38.9601 32.7741 38.7468" stroke="white" stroke-width="1.5" stroke-linecap="round" stroke-linejoin="round"/>
													<path d="M32.4005 33.8575C32.2037 34.3804 32.0582 34.9624 32.0127 35.613C31.8072 38.5533 34.0211 41.1014 36.9597 41.3068C39.9044 41.5127 42.4513 39.2973 42.6568 36.357C42.8623 33.4167 40.6484 30.8686 37.7098 30.6632C36.6178 30.5869 35.5762 30.8472 34.6902 31.3528" stroke="white" stroke-width="1.5" stroke-linecap="round" stroke-linejoin="round"/>
													<path d="M34.7035 31.3286L35.9943 28.9288" stroke="white" stroke-width="1.5" stroke-linecap="round" stroke-linejoin="round"/>
													<path d="M34.7036 31.3284L36.5249 32.5361" stroke="white" stroke-width="1.5" stroke-linecap="round" stroke-linejoin="round"/>
												</svg>