<svg width="52" height="52" viewBox="0 0 52 52" fill="none" xmlns="http://www.w3.org/2000/svg">
<circle cx="10.9578" cy="41.0422" r="10.9578" fill="#D4FF8E"/>
<path d="M26.0001 30.3335H28.1668C30.5501 30.3335 32.5001 28.3835 32.5001 26.0002V4.3335H13.0001C9.75012 4.3335 6.91181 6.1318 5.43848 8.77514" stroke="#333333" stroke-width="2" stroke-linecap="round" stroke-linejoin="round"/>
<path d="M4.33301 36.833C4.33301 40.4297 7.23634 43.333 10.833 43.333H12.9997C12.9997 40.9497 14.9497 38.9997 17.333 38.9997C19.7163 38.9997 21.6663 40.9497 21.6663 43.333H30.333C30.333 40.9497 32.283 38.9997 34.6663 38.9997C37.0497 38.9997 38.9997 40.9497 38.9997 43.333H41.1663C44.763 43.333 47.6663 40.4297 47.6663 36.833V30.333H41.1663C39.9747 30.333 38.9997 29.358 38.9997 28.1663V21.6663C38.9997 20.4747 39.9747 19.4997 41.1663 19.4997H43.9613L40.2564 13.0214C39.4764 11.678 38.0464 10.833 36.4864 10.833H32.4997V25.9997C32.4997 28.383 30.5497 30.333 28.1663 30.333H25.9997" stroke="#333333" stroke-width="2" stroke-linecap="round" stroke-linejoin="round"/>
<path d="M17.3333 47.6667C19.7266 47.6667 21.6667 45.7266 21.6667 43.3333C21.6667 40.9401 19.7266 39 17.3333 39C14.9401 39 13 40.9401 13 43.3333C13 45.7266 14.9401 47.6667 17.3333 47.6667Z" stroke="#333333" stroke-width="2" stroke-linecap="round" stroke-linejoin="round"/>
<path d="M34.6663 47.6667C37.0596 47.6667 38.9997 45.7266 38.9997 43.3333C38.9997 40.9401 37.0596 39 34.6663 39C32.2731 39 30.333 40.9401 30.333 43.3333C30.333 45.7266 32.2731 47.6667 34.6663 47.6667Z" stroke="#333333" stroke-width="2" stroke-linecap="round" stroke-linejoin="round"/>
<path d="M47.6667 26V30.3333H41.1667C39.975 30.3333 39 29.3583 39 28.1667V21.6667C39 20.475 39.975 19.5 41.1667 19.5H43.9616L47.6667 26Z" stroke="#333333" stroke-width="2" stroke-linecap="round" stroke-linejoin="round"/>
<path d="M4.33301 17.333H17.333" stroke="#0066FF" stroke-width="2" stroke-linecap="round" stroke-linejoin="round"/>
<path d="M4.33301 23.833H12.9997" stroke="#0066FF" stroke-width="2" stroke-linecap="round" stroke-linejoin="round"/>
<path d="M4.33301 30.333H8.66634" stroke="#0066FF" stroke-width="2" stroke-linecap="round" stroke-linejoin="round"/>
</svg>
