<svg width="43" height="52" viewBox="0 0 43 52" fill="none" xmlns="http://www.w3.org/2000/svg">
<g clip-path="url(#clip0_2139_936)">
<path d="M7.0616 42.2733C3.49425 39.3179 1.58496 35.0376 1.58496 29.9421V5.73838C7.26258 2.73202 14.0456 1.20337 21.8837 1.20337C29.7218 1.20337 36.5048 2.73202 42.1825 5.78934V29.9931C42.1825 35.0886 40.2732 39.3688 36.7058 42.3242C33.4399 44.9739 23.0896 49.6108 21.8837 50.1204C20.6778 49.6108 10.3275 44.9739 7.0616 42.2733Z" fill="#330000"/>
<path d="M41.0783 5.48367C38.4655 5.22889 35.7523 5.07603 32.9889 5.07603C22.739 5.07603 11.7858 7.31805 2.74176 15.7257V30.146C2.74176 34.8339 4.45007 38.7574 7.71596 41.458C10.5799 43.802 19.4229 47.8784 21.9351 48.9994C24.3971 47.8784 33.1899 43.9039 36.1543 41.458C39.4202 38.7065 41.1285 34.8848 41.1285 30.146V5.48367M4.6008 28.6173V16.8976H8.26865V28.7702C8.26865 29.8402 8.51987 31.3689 10.2282 31.3689C10.8311 31.3689 11.434 31.216 11.9867 30.9103V16.9486H15.6546V33.1014C13.9965 34.1714 12.0872 34.681 10.1277 34.5791C6.45985 34.5791 4.6008 32.5918 4.6008 28.6173ZM21.1815 42.1714H17.5136V17.8658C19.021 16.9486 20.7293 16.49 22.4878 16.5409C26.8591 16.5409 29.2708 19.904 29.2708 25.3562C29.2708 30.8084 26.9093 34.5281 22.8395 34.5281C22.2868 34.5281 21.7341 34.4772 21.1815 34.3243V42.1714ZM21.1815 31.267C21.5834 31.4199 21.9854 31.4708 22.3873 31.4708C24.4976 31.4708 25.5025 29.4836 25.5025 25.4071C25.5025 21.2288 24.5981 19.4963 22.4878 19.4963C22.0356 19.4963 21.5834 19.5983 21.1815 19.7511V31.267ZM30.0747 21.4326C30.125 18.732 32.3357 16.5409 34.9987 16.5919C36.4558 16.49 37.8626 16.9486 39.0182 17.8148V21.076C38.1641 20.1588 36.9582 19.5983 35.7523 19.5473C34.6972 19.5473 33.6421 20.0059 33.5918 21.3307C33.5416 22.7065 34.647 23.2161 36.0036 24.0314C39.0685 25.8657 39.6714 27.4963 39.5709 29.6874C39.5207 32.0823 37.8626 34.681 34.245 34.681C32.8382 34.681 31.4313 34.2734 30.2255 33.509V30.095C31.1801 30.9613 32.4362 31.5218 33.7426 31.6237C35.0992 31.6237 35.9533 30.8594 35.9533 29.5345C35.9031 28.3625 35.2499 27.7511 33.6421 26.7829C30.6274 24.8466 30.0747 23.3689 30.0747 21.4326ZM6.45985 42.9357C2.74176 39.8784 0.782227 35.4453 0.782227 30.146V4.92316C6.66082 1.76394 13.7453 0.184326 21.8849 0.184326C30.0245 0.184326 37.1089 1.76394 42.9875 4.92316V30.146C42.9875 35.4453 41.028 39.8784 37.3099 42.9867C33.8933 45.7892 23.141 50.63 21.8849 51.1395C20.6288 50.579 9.87647 45.7892 6.45985 42.9357ZM35.3504 48.2351V50.4261H35.7523V49.509H35.8026C35.8528 49.5599 36.4055 50.4261 36.4055 50.4261H36.8577C36.8577 50.4261 36.2548 49.5599 36.2045 49.458C36.506 49.407 36.707 49.1523 36.707 48.8975C36.707 48.4898 36.3553 48.1841 36.0036 48.2351H35.3504ZM35.9533 48.5408C36.305 48.5408 36.3553 48.6937 36.3553 48.8465C36.3553 49.0504 36.2548 49.2032 35.8528 49.2032H35.8026V48.5408H35.9533ZM37.4607 49.3561C37.4607 50.6809 35.9031 51.3433 34.9484 50.3752C33.9938 49.407 34.6972 47.8274 36.0036 47.8274C36.8075 47.8784 37.4607 48.5408 37.4607 49.3561ZM36.0036 47.5217C34.446 47.5217 33.6421 49.458 34.7475 50.579C35.8528 51.7 37.7621 50.9357 37.7621 49.3051C37.7621 48.337 36.9582 47.5217 36.0036 47.5217Z" fill="#FFBE00"/>
</g>
<defs>
<clipPath id="clip0_2139_936">
<rect width="42.2053" height="50.9552" fill="white" transform="translate(0.78418 0.18457)"/>
</clipPath>
</defs>
</svg>
