<svg width="24" height="25" viewBox="0 0 24 25" fill="none" xmlns="http://www.w3.org/2000/svg">
<path d="M11.99 24.0415C14.231 24.0402 16.4267 23.4103 18.3276 22.2233H5.65234C7.55392 23.4087 9.7492 24.0385 11.99 24.0415Z" fill="#E30613"/>
<path d="M5.65157 22.2233H18.3269C19.1675 21.7067 19.9391 21.0853 20.623 20.374H3.35547C4.04155 21.0828 4.8128 21.704 5.65157 22.2233Z" fill="white"/>
<path d="M3.35652 20.3739H20.624C21.1724 19.8049 21.6664 19.1857 22.0993 18.5246H1.8916C2.32096 19.1855 2.81141 19.8047 3.35652 20.3739Z" fill="#E30613"/>
<path d="M1.8913 18.5247H22.099C22.4775 17.9377 22.8042 17.3189 23.0757 16.6754H0.904297C1.18346 17.3171 1.51351 17.9356 1.8913 18.5247Z" fill="white"/>
<path d="M0.903737 16.6753H23.0751C23.3253 16.077 23.5234 15.4583 23.6673 14.826H0.311523C0.460176 15.457 0.658196 16.0754 0.903737 16.6753Z" fill="#E30613"/>
<path d="M0.0517578 12.9766C0.100547 13.5996 0.197809 14.218 0.342665 14.8259H23.6985C23.8468 14.2182 23.9475 13.5999 23.9998 12.9766H0.0517578Z" fill="white"/>
<path d="M11.9893 12.9765H23.9477C23.9477 12.6545 23.9477 12.3428 23.9477 12.0207C23.9477 11.6986 23.9477 11.4181 23.9477 11.1272H11.9893V12.9765Z" fill="#E30613"/>
<path d="M11.9893 11.1273H23.9477C23.8972 10.5051 23.8035 9.88714 23.6671 9.27795H11.9893V11.1273Z" fill="white"/>
<path d="M11.9893 9.27794H23.6879C23.544 8.64561 23.3459 8.02687 23.0957 7.42859H11.9893V9.27794Z" fill="#E30613"/>
<path d="M11.9893 7.42857H23.0957C22.8342 6.78231 22.5106 6.16296 22.1295 5.57922H11.9893V7.42857Z" fill="white"/>
<path d="M11.9893 5.57914H22.1295C21.7099 4.91681 21.2262 4.29737 20.6853 3.7298H11.9893V5.57914Z" fill="#E30613"/>
<path d="M11.9893 3.7299H20.6853C20.0117 3.02417 19.2546 2.40315 18.4308 1.88055H11.9893V3.7299Z" fill="white"/>
<path d="M11.9893 1.88052H18.4308C16.6787 0.753612 14.662 0.105261 12.5815 0H11.9893V1.88052Z" fill="#E30613"/>
<path d="M11.9896 11.1272H10.6389L10.7844 11.4908H11.2935L10.8987 11.8233L11.0234 12.322L10.587 12.0519L10.1402 12.322L10.2649 11.8233L9.87011 11.4908H10.3896L10.5247 11.1272H7.54285L7.6883 11.4908H8.19738L7.80259 11.8233L7.92726 12.322L7.4909 12.0519L7.05454 12.322L7.16882 11.8233L6.77401 11.4908H7.29349L7.42856 11.1272H4.45714L4.5922 11.4908H5.11167L4.70648 11.8233L4.83117 12.322L4.39479 12.0519L3.95843 12.322L4.08312 11.8233L3.68831 11.4908H4.20779L4.34286 11.1272H1.37143L1.50649 11.4908H2.02597L1.63117 11.8233L1.75584 12.322L1.3091 12.0519L0.872721 12.322L0.997407 11.8233L0.602598 11.4908H1.09091L1.23636 11.1272H0.0519511C0.0519511 11.4181 0 11.7194 0 12.0207C0 12.322 3.16988e-06 12.6545 0.0519511 12.9765H12.0208L11.9896 11.1272Z" fill="#002B90"/>
<path d="M8.62305 11.1272H9.45422L9.03862 10.8675L8.62305 11.1272Z" fill="#002B90"/>
<path d="M5.52734 11.1272H6.35851L5.94292 10.8675L5.52734 11.1272Z" fill="#002B90"/>
<path d="M11.0239 9.77665L10.5875 9.49614L10.1408 9.77665L10.2654 9.27795H7.8031L7.92777 9.77665L7.49141 9.49614L7.05505 9.77665L7.16933 9.27795H4.71739L4.83167 9.77665L4.3953 9.49614L3.95894 9.77665L4.07322 9.27795H1.62128L1.74597 9.77665L1.29921 9.49614L0.862845 9.77665L0.987515 9.27795H0.301814C0.218698 9.61042 0.156358 9.95328 0.10441 10.3169H0.468036L0.0732422 10.6494L0.187528 11.1377H1.22649V10.9818L1.28882 11.1377H2.32778L2.45245 10.6494L2.13038 10.3065H2.63947L2.83686 9.78704L3.03426 10.3065H3.55374L3.15895 10.639L3.27324 11.1273H4.3122L4.37453 10.9715L4.43687 11.1273H5.47582L5.59011 10.639L5.24725 10.3065H5.76673L5.96414 9.78704L6.16154 10.3065H6.67062L6.27583 10.639L6.4005 11.1273H7.43946L7.50179 10.9715L7.55374 11.1273H8.5927L8.70699 10.639L8.36413 10.3065H8.88361L9.08101 9.78704L9.27842 10.3065H9.7875L9.3927 10.639L9.51737 11.1273H10.5563L10.6187 10.9715L10.6706 11.1273H12.0213V9.27795H10.9304L11.0239 9.77665Z" fill="#002B90"/>
<path d="M0.0517578 11.1273H0.197211L0.0517578 11.0338V11.1273Z" fill="#002B90"/>
<path d="M2.43066 11.1272H3.26183L2.84626 10.8675L2.43066 11.1272Z" fill="#002B90"/>
<path d="M9.23679 7.75067H9.74589L9.35108 8.08313L9.47577 8.59222L9.03939 8.3117L8.59264 8.59222L8.71731 8.08313L8.36407 7.75067H8.88355L9.00822 7.42859H6.05758L6.18225 7.75067H6.69135L6.29654 8.08313L6.42122 8.59222L5.9433 8.3117L5.50694 8.59222L5.62122 8.08313L5.2472 7.75067H5.76667L5.89134 7.42859H2.94071L3.06538 7.75067H3.58486L3.19006 8.08313L3.30435 8.59222L2.8472 8.3117L2.41084 8.59222L2.53551 8.08313L2.13032 7.75067H2.63941L2.76408 7.42859H0.883572C0.641445 8.02883 0.446909 8.64719 0.301758 9.27794H0.987458L0.592665 8.93508H1.09136L1.28877 8.4156L1.48617 8.93508H2.00565L1.61084 9.26755H4.06278L3.67837 8.92469H4.20824L4.40564 8.40521L4.60305 8.92469H5.12253L4.71733 9.25716H7.17966L6.78485 8.9143H7.30433L7.50173 8.39482L7.69914 8.9143H8.20823L7.81342 9.24677H10.2758L9.88096 8.90391H10.4004L10.5978 8.38443L10.7952 8.90391H11.3043L10.9095 9.23638H12.0004V7.42859H9.12251L9.23679 7.75067Z" fill="#002B90"/>
<path d="M9.47582 6.03637L9.03944 5.76624L8.5927 6.03637L8.70698 5.57922H6.28621L6.39011 6.03637L5.95373 5.76624L5.51737 6.03637L5.62127 5.57922H3.16933L3.27323 6.03637L2.83686 5.76624L2.40049 6.03637L2.51478 5.57922H1.84985C1.69925 5.79667 1.56052 6.02211 1.43427 6.25455V6.37922H1.95375L1.55894 6.71169L1.68363 7.22078L1.23687 6.95065L0.966743 7.11688C0.914795 7.22078 0.862847 7.32467 0.821289 7.42857H2.71219L2.78492 7.23117L2.85764 7.42857H5.80828L5.88101 7.23117L5.95373 7.42857H8.90439L8.97711 7.23117L9.04984 7.42857H11.9277V5.57922H9.40308L9.47582 6.03637ZM4.83167 7.27273L4.39529 7.0026L3.95893 7.27273L4.08362 6.76364L3.68881 6.43117H4.20829L4.40569 5.92208L4.6031 6.43117H5.12258L4.71738 6.76364L4.83167 7.27273ZM7.94855 7.27273L7.51217 7.0026L7.07581 7.27273L7.19009 6.76364L6.7953 6.43117H7.31478L7.51217 5.92208L7.70957 6.43117H8.21867L7.82386 6.76364L7.94855 7.27273ZM10.442 6.37922L10.6394 5.87013L10.8369 6.37922H11.3459L10.9511 6.71169L11.0758 7.22078L10.6394 6.95065L10.1927 7.22078L10.3174 6.71169L9.92256 6.37922H10.442Z" fill="#002B90"/>
<path d="M10.7839 3.8233H11.293L10.8982 4.15577L11.0229 4.65447L10.5865 4.38434L10.1398 4.65447L10.2645 4.15577L9.86965 3.8233H10.3891V3.7298H7.60473V3.8233H8.11381L7.71902 4.15577L7.84369 4.65447L7.40733 4.38434L6.97097 4.65447L7.08525 4.15577L6.69044 3.8233H7.20992V3.7298H4.42552V3.8233H4.945L4.53981 4.15577L4.66448 4.65447L4.22812 4.38434L3.79176 4.65447L3.91643 4.15577L3.52162 3.8233H4.20733V3.7298H3.27228C2.72827 4.29468 2.2443 4.91444 1.82812 5.57914H2.49306L2.12942 5.19473H2.63851L2.8359 4.68564L3.03331 5.19473H3.55278L3.15799 5.5272H5.59953L5.24629 5.19473H5.76577L5.96318 4.68564L6.16058 5.19473H6.66966L6.27487 5.5272H8.72681L8.36317 5.19473H8.88265L9.08005 4.68564L9.27746 5.19473H9.78654L9.39174 5.5272H12.0307V3.7298H10.7839V3.8233Z" fill="#002B90"/>
<path d="M3.30371 3.7299H4.23877L4.3946 3.31432L4.55046 3.7299H7.32448L7.48031 3.31432L7.63617 3.7299H10.4414L10.5972 3.31432L10.753 3.7299H11.9998V1.88055H10.9608L11.0128 2.10913L10.6388 1.88055H10.5037L10.1297 2.10913L10.192 1.88055H7.86474L7.91669 2.10913L7.54266 1.88055H7.41798L7.04395 2.10913V1.88055H5.55825C4.73441 2.40315 3.97732 3.02417 3.30371 3.7299ZM8.84136 2.69094L9.03875 2.18185L9.23616 2.69094H9.74525L9.35044 3.0338L9.47513 3.5325L9.03875 3.26237L8.59201 3.5325L8.71668 3.0338L8.36343 2.63899L8.84136 2.69094ZM5.72449 2.69094L5.92188 2.18185L6.11928 2.69094H6.62838L6.23357 3.0338L6.35825 3.5325L5.92188 3.26237L5.48551 3.5325L5.5998 3.0338L5.24656 2.63899L5.72449 2.69094Z" fill="#002B90"/>
<path d="M7.42871 1.88055H7.55338L7.49105 1.83899L7.42871 1.88055Z" fill="#002B90"/>
<path d="M8.19786 1.27792L7.80307 1.61039L7.87579 1.88052H10.2031L10.2654 1.61039L9.87058 1.27792H10.3901L10.5875 0.75844L10.7849 1.27792H11.294L10.8992 1.61039L10.9719 1.88052H12.0108V0H11.429C10.1001 0.0605291 8.79054 0.341408 7.55371 0.831167L7.70955 1.24675L8.19786 1.27792Z" fill="#002B90"/>
<path d="M10.5146 1.88055H10.6497L10.5874 1.83899L10.5146 1.88055Z" fill="#002B90"/>
<path d="M7.16898 1.61036L6.77417 1.27789H7.29365L7.43911 0.90387C6.78453 1.17297 6.15522 1.4998 5.55859 1.88049H7.10663L7.16898 1.61036Z" fill="#002B90"/>
<path d="M5.50645 3.48059L5.94281 3.21046L6.37917 3.48059L6.2545 2.98189L6.64931 2.63903H6.14022L5.94281 2.12994L5.74541 2.63903H5.23633L5.63112 2.98189L5.50645 3.48059Z" fill="white"/>
<path d="M8.59239 3.48059L9.03913 3.21046L9.47551 3.48059L9.35082 2.98189L9.74563 2.63903H9.23654L9.03913 2.12994L8.84174 2.63903H8.32227L8.71706 2.98189L8.59239 3.48059Z" fill="white"/>
<path d="M7.05469 2.10913L7.42871 1.88055H7.10662L7.05469 2.10913Z" fill="white"/>
<path d="M7.92774 2.10913L7.87579 1.88055H7.55371L7.92774 2.10913Z" fill="white"/>
<path d="M6.77441 1.27789L7.16922 1.61035L7.10687 1.88048H7.42896H7.4913H7.55363H7.87571L7.80299 1.61035L8.19778 1.27789H7.6887L7.53285 0.862305H7.43935L7.29389 1.23633L6.77441 1.27789Z" fill="white"/>
<path d="M10.1396 2.10913L10.5137 1.88055H10.202L10.1396 2.10913Z" fill="white"/>
<path d="M11.0234 2.10913L10.9611 1.88055H10.6494L11.0234 2.10913Z" fill="white"/>
<path d="M11.2935 1.2779H10.774L10.587 0.758423L10.3896 1.2779H9.87012L10.2649 1.61037L10.2026 1.8805H10.5143L10.587 1.83894L10.6493 1.8805H10.961L10.8987 1.61037L11.2935 1.2779Z" fill="white"/>
<path d="M2.84749 5.76624L3.28385 6.03637L3.17995 5.57922H2.52542L2.41113 6.03637L2.84749 5.76624Z" fill="white"/>
<path d="M3.16884 5.52729L3.56365 5.19482H3.04417L2.84677 4.68573L2.64936 5.19482H2.12988L2.52469 5.52729H3.16884Z" fill="white"/>
<path d="M5.94222 5.76624L6.37858 6.03637L6.27469 5.57922H5.60976L5.50586 6.03637L5.94222 5.76624Z" fill="white"/>
<path d="M6.28505 5.52729L6.67986 5.19482H6.17077L5.97336 4.68573L5.77596 5.19482H5.24609L5.6409 5.52729C5.8583 5.55341 6.07804 5.55341 6.29544 5.52729H6.28505Z" fill="white"/>
<path d="M9.03854 5.76624L9.47492 6.03637L9.36063 5.57922H8.70608L8.5918 6.03637L9.03854 5.76624Z" fill="white"/>
<path d="M9.40224 5.52729L9.79705 5.19482H9.28795L9.09055 4.68573L8.89314 5.19482H8.36328L8.75809 5.52729H9.40224Z" fill="white"/>
<path d="M3.68848 3.83369L4.08329 4.16616L3.9586 4.66486L4.39496 4.39473L4.83134 4.66486L4.71705 4.16616L5.11184 3.83369H4.59237L4.55081 3.7298H4.23912L4.19757 3.83369H3.68848Z" fill="white"/>
<path d="M4.3951 3.31421L4.23926 3.72979H4.55095L4.3951 3.31421Z" fill="white"/>
<path d="M6.77441 3.83369L7.16922 4.16616L7.05494 4.66486L7.4913 4.39473L7.92766 4.66486L7.80299 4.16616L8.19778 3.83369H7.6887L7.64714 3.7298H7.33544L7.29389 3.83369H6.77441Z" fill="white"/>
<path d="M7.49081 3.31421L7.33496 3.72979H7.64665L7.49081 3.31421Z" fill="white"/>
<path d="M9.87012 3.83369L10.2649 4.16616L10.1403 4.66486L10.587 4.39473L11.0234 4.66486L10.8987 4.16616L11.2935 3.83369H10.774L10.7428 3.7298H10.4312L10.3896 3.83369H9.87012Z" fill="white"/>
<path d="M10.5875 3.31421L10.4316 3.72979H10.7433L10.5875 3.31421Z" fill="white"/>
<path d="M2.14062 7.75067L2.53543 8.08313L2.41076 8.59222L2.84713 8.3117L3.28349 8.59222L3.1692 8.08313L3.56401 7.75067H3.04453L2.91984 7.42859H2.77439L2.64972 7.75067H2.14062Z" fill="white"/>
<path d="M2.84715 7.23114L2.77441 7.42854H2.91987L2.84715 7.23114Z" fill="white"/>
<path d="M5.23633 7.75067L5.63112 8.08313L5.50645 8.59222L5.94281 8.3117L6.37917 8.59222L6.2545 8.08313L6.64931 7.75067H6.14022L6.01555 7.42859H5.87009L5.74541 7.75067H5.23633Z" fill="white"/>
<path d="M5.94284 7.23114L5.87012 7.42854H6.01557L5.94284 7.23114Z" fill="white"/>
<path d="M8.32227 7.75067L8.71706 8.08313L8.59239 8.59222L9.03913 8.3117L9.47551 8.59222L9.35082 8.08313L9.74563 7.75067H9.23654L9.11187 7.42859H8.96641L8.84174 7.75067H8.32227Z" fill="white"/>
<path d="M9.03854 7.23114L8.96582 7.42854H9.11127L9.03854 7.23114Z" fill="white"/>
<path d="M1.74501 7.27263L1.62033 6.76354L2.01513 6.43107H1.49566V6.3064C1.3425 6.58656 1.20379 6.87438 1.08008 7.16873L1.3502 7.0025L1.74501 7.27263Z" fill="white"/>
<path d="M4.59237 6.37921L4.39496 5.87012L4.19757 6.37921H3.68848L4.08329 6.71167L3.9586 7.22076L4.39496 6.95063L4.83134 7.22076L4.71705 6.71167L5.11184 6.37921H4.59237Z" fill="white"/>
<path d="M7.6887 6.37921L7.4913 5.87012L7.29389 6.37921H6.77441L7.16922 6.71167L7.05494 7.22076L7.4913 6.95063L7.92766 7.22076L7.80299 6.71167L8.19778 6.37921H7.6887Z" fill="white"/>
<path d="M10.1403 7.22076L10.587 6.95063L11.0234 7.22076L10.8987 6.71167L11.2935 6.37921H10.774L10.587 5.87012L10.3896 6.37921H9.87012L10.2649 6.71167L10.1403 7.22076Z" fill="white"/>
<path d="M0.467252 10.3065H0.103626C0.103626 10.5455 0.041287 10.7844 0.0205078 11.0338L0.165961 11.1273C0.144843 10.9628 0.113619 10.7997 0.0724589 10.639L0.467252 10.3065Z" fill="white"/>
<path d="M3.56365 10.3065H3.04417L2.84677 9.78705L2.64936 10.3065H2.12988L2.52469 10.639L2.40001 11.1273L2.83637 10.8676L3.25196 11.1273C3.23084 10.9628 3.19962 10.7997 3.15846 10.639L3.56365 10.3065Z" fill="white"/>
<path d="M6.64869 10.3065H6.1396L5.94219 9.78705L5.74479 10.3065H5.24609L5.6409 10.639L5.52662 11.1273L5.96298 10.8676L6.37856 11.1273C6.35389 10.9626 6.3192 10.7995 6.27467 10.639L6.64869 10.3065Z" fill="white"/>
<path d="M9.7451 10.3065H9.236L9.0386 9.78705L8.84121 10.3065H8.36328L8.75809 10.639L8.6438 11.1273L9.08017 10.8676L9.49574 11.1273C9.47108 10.9626 9.43639 10.7995 9.39186 10.639L9.7451 10.3065Z" fill="white"/>
<path d="M1.29867 9.49614L1.74543 9.77665L1.62074 9.27795H0.986975L0.862305 9.77665L1.29867 9.49614Z" fill="white"/>
<path d="M1.62133 9.26747L2.01614 8.93501H1.49666L1.29926 8.41553L1.10185 8.93501H0.592773L0.987567 9.26747H1.62133Z" fill="white"/>
<path d="M4.39437 9.49614L4.83075 9.77665L4.71646 9.27795H4.07229L3.95801 9.77665L4.39437 9.49614Z" fill="white"/>
<path d="M4.70665 9.26747L5.11184 8.93501H4.59237L4.39496 8.41553L4.19757 8.93501H3.68848L4.08329 9.26747H4.71705H4.70665Z" fill="white"/>
<path d="M7.49105 9.49614L7.92741 9.77665L7.81312 9.27795H7.16897L7.05469 9.77665L7.49105 9.49614Z" fill="white"/>
<path d="M7.80299 9.26747L8.19778 8.93501H7.6887L7.4913 8.41553L7.29389 8.93501H6.77441L7.16922 9.26747H7.80299Z" fill="white"/>
<path d="M10.5864 9.49614L11.0228 9.77665L10.8981 9.27795H10.2643L10.1396 9.77665L10.5864 9.49614Z" fill="white"/>
<path d="M10.8987 9.26747L11.2935 8.93501H10.7844L10.587 8.41553L10.3896 8.93501H9.87012L10.2649 9.26747H10.8987Z" fill="white"/>
<path d="M1.10185 11.4908H0.592773L0.987567 11.8233L0.862897 12.322L1.29926 12.0519L1.74602 12.322L1.62133 11.8233L2.01614 11.4908H1.49666L1.36159 11.1272H1.24731L1.10185 11.4908Z" fill="white"/>
<path d="M1.24707 11.1273H1.36136L1.29902 10.9714L1.24707 11.1273Z" fill="white"/>
<path d="M4.19757 11.4908H3.68848L4.08329 11.8233L3.9586 12.322L4.39496 12.0519L4.83134 12.322L4.71705 11.8233L5.11184 11.4908H4.59237L4.45731 11.1272H4.34303L4.19757 11.4908Z" fill="white"/>
<path d="M4.34277 11.1273H4.45706L4.39471 10.9714L4.34277 11.1273Z" fill="white"/>
<path d="M7.29389 11.4908H6.77441L7.16922 11.8233L7.05494 12.322L7.4913 12.0519L7.92766 12.322L7.80299 11.8233L8.19778 11.4908H7.6887L7.54325 11.1272H7.42896L7.29389 11.4908Z" fill="white"/>
<path d="M7.42871 11.1273H7.543L7.49105 10.9714L7.42871 11.1273Z" fill="white"/>
<path d="M10.3896 11.4908H9.87012L10.2649 11.8233L10.1403 12.322L10.587 12.0519L11.0234 12.322L10.8987 11.8233L11.2935 11.4908H10.774L10.639 11.1272H10.5247L10.3896 11.4908Z" fill="white"/>
<path d="M10.5244 11.1273H10.6387L10.5867 10.9714L10.5244 11.1273Z" fill="white"/>
</svg>
