<svg width="20" height="20" viewBox="0 0 20 20" fill="none" xmlns="http://www.w3.org/2000/svg">
<path d="M10.0999 10.65C10.0416 10.6417 9.9666 10.6417 9.89994 10.65C8.43327 10.6 7.2666 9.40001 7.2666 7.92501C7.2666 6.41668 8.48327 5.19168 9.99993 5.19168C11.5083 5.19168 12.7333 6.41668 12.7333 7.92501C12.7249 9.40001 11.5666 10.6 10.0999 10.65Z" stroke="#0066FF" stroke-linecap="round" stroke-linejoin="round"/>
<path d="M15.6171 16.15C14.1338 17.5083 12.1671 18.3333 10.0005 18.3333C7.83379 18.3333 5.86712 17.5083 4.38379 16.15C4.46712 15.3667 4.96712 14.6 5.85879 14C8.14212 12.4833 11.8755 12.4833 14.1421 14C15.0338 14.6 15.5338 15.3667 15.6171 16.15Z" stroke="#0066FF" stroke-linecap="round" stroke-linejoin="round"/>
<path d="M10.0003 18.3333C14.6027 18.3333 18.3337 14.6024 18.3337 9.99999C18.3337 5.39762 14.6027 1.66666 10.0003 1.66666C5.39795 1.66666 1.66699 5.39762 1.66699 9.99999C1.66699 14.6024 5.39795 18.3333 10.0003 18.3333Z" stroke="#0066FF" stroke-linecap="round" stroke-linejoin="round"/>
</svg>
