<svg width="181" height="22" viewBox="0 0 181 22" fill="none" xmlns="http://www.w3.org/2000/svg">
<g clip-path="url(#clip0_2139_942)">
<path d="M31.0583 22.04L35.671 0.786133H5.0892L0.476562 22.04H31.0583Z" fill="white"/>
<path d="M23.2174 5.2442C26.7691 6.05473 26.8614 6.91029 26.8614 6.91029C29.1677 6.91029 29.7674 6.91029 30.1825 7.31556C31.5202 8.53135 29.26 11.5033 29.26 11.5033C28.9832 11.6834 3.52148 21.4098 3.52148 21.4098H30.3209L34.6106 1.64185H5.8278C5.8278 1.64185 22.8023 5.15414 23.2174 5.2442Z" fill="#333366"/>
<path d="M25.8478 8.12594C25.4788 8.30606 24.3717 8.48618 24.0027 8.5312C23.6337 8.57623 23.4492 8.57623 23.4492 8.66629C23.4492 8.80138 23.9566 8.75635 24.1411 8.75635C24.9714 8.75635 28.2464 8.5312 29.0305 8.66629C29.6301 8.75635 28.9383 9.92712 28.7537 10.6476C28.7076 10.9178 28.8921 10.7827 28.9844 10.6476C29.215 10.2874 29.8608 9.11659 29.9069 8.66629C29.9992 7.7657 29.3534 7.63062 28.2464 7.63062H26.5397C26.4013 7.63062 26.3552 7.67564 26.3091 7.7657C26.1707 7.90079 25.94 8.03588 25.8478 8.12594Z" fill="#333366"/>
<path d="M15.2386 14.7905L1.53906 21.4098L4.86016 6.23486H18.6981C18.9287 6.23486 26.1244 6.23486 26.2628 7.63078H13.8087L15.746 13.3945C17.96 12.3589 23.4029 10.1975 26.6779 10.0624C28.0617 10.0173 28.6152 10.2425 28.3385 10.4226C28.154 10.5127 26.8163 10.6928 25.7554 10.963C23.9103 11.4133 23.8181 11.4133 21.8808 12.0437C19.7128 12.7641 17.9139 13.5747 15.2386 14.7905Z" fill="#333366"/>
<path d="M43.9276 21.86C38.5769 21.86 35.3942 19.7886 36.4551 15.1506C38.2079 7.13536 39.3611 1.77686 39.3611 1.77686H43.8353C43.8353 1.77686 41.1139 14.1149 41.2061 13.8447C40.5142 16.9068 41.2061 18.753 44.6195 18.753C47.8945 18.753 49.555 16.9068 50.2469 13.8447C50.662 12.0886 52.8761 1.77686 52.8761 1.77686H57.3504C54.3521 15.1506 57.3503 1.77685 54.3983 15.1506C53.2912 19.7436 49.2321 21.86 43.9276 21.86Z" fill="#333366"/>
<path d="M81.2445 13.9798C80.5526 13.9798 79.0766 13.8898 78.3386 13.7547L78.8921 10.9178C79.4456 10.9629 80.1836 11.0529 80.8755 11.0529C83.9199 11.0529 85.0269 9.0266 85.2575 7.8108C85.7188 5.64939 84.6118 4.88389 82.9973 4.88389H79.3534L75.7555 21.4998H71.2812L75.571 1.77686H85.2575C89.6395 1.77686 90.1469 5.5143 89.5934 7.99092C88.7631 11.6833 85.2114 13.9798 81.2445 13.9798Z" fill="#333366"/>
<path d="M71.7879 4.92892H67.0369C64.5922 4.92892 63.5313 5.42424 63.3006 6.36986C62.6087 9.52192 71.3266 11.9985 70.4963 16.8617C70.0351 19.5635 67.6365 21.4998 62.0552 21.4998H55.2285L55.9204 18.3477H61.3633C63.07 18.3477 65.1457 18.4378 65.5147 16.7717C66.1605 13.9348 57.581 11.143 58.2267 6.41489C58.6419 3.57803 61.2249 1.77686 66.4372 1.77686H72.4336L71.7879 4.92892Z" fill="#333366"/>
<path d="M105.046 4.92867H100.295C97.85 4.92867 96.7891 5.424 96.5584 6.36962C95.8665 9.52168 104.584 11.9983 103.754 16.8615C103.293 19.5632 100.894 21.4995 95.313 21.4995H88.4863L89.1782 18.3474H94.6673C96.3739 18.3474 98.4496 18.4375 98.8186 16.7714C99.4644 13.9346 90.8849 11.1427 91.5307 6.41464C91.9458 3.57779 94.5289 1.77661 99.7411 1.77661H105.738L105.046 4.92867Z" fill="#333366"/>
<path d="M106.568 17.9873C105.6 17.9873 104.77 18.7528 104.77 19.7435C104.77 20.6891 105.554 21.4996 106.568 21.4996C107.537 21.4996 108.367 20.7341 108.367 19.7435C108.367 18.7528 107.537 17.9873 106.568 17.9873Z" fill="#333366"/>
<path fill-rule="evenodd" clip-rule="evenodd" d="M173.544 1.68677L169.162 21.4547H165.425L168.747 6.7751L159.844 21.4547H156.016L153.894 7.72071L150.803 21.4547H147.113L151.403 1.68677H156.754L159.014 16.2313L167.686 1.68677H173.544Z" fill="#333366"/>
<path d="M118.377 21.86C115.701 21.86 113.303 21.2746 111.55 20.0137C109.797 18.7529 108.736 16.7716 108.736 14.1149C108.736 13.3044 108.829 12.4488 109.059 11.5032C110.535 4.43356 116.578 1.28149 122.713 1.28149C124.189 1.28149 125.803 1.46161 127.233 1.73179L127.556 1.77682L126.818 4.97391L126.541 4.92888C125.526 4.83882 124.834 4.74876 123.912 4.74876C123.082 4.74876 122.297 4.79379 121.421 4.88385C119.253 5.19906 118.607 5.55929 117.408 6.32479C115.609 7.4055 114.041 9.25171 113.487 11.6833C113.349 12.3137 113.257 12.8991 113.257 13.4394C113.257 15.1956 113.995 16.4114 115.286 17.2219C116.532 18.0325 118.377 18.4827 120.452 18.4827C121.698 18.4827 122.297 18.4377 123.497 18.3026L123.958 18.2576L123.266 21.3646L123.035 21.4097C121.375 21.6798 120.083 21.86 118.377 21.86Z" fill="#333366"/>
<path d="M138.763 1.64185C132.582 1.64185 127.462 4.79391 125.986 11.6834C124.787 17.222 128.246 21.77 134.381 21.77C140.608 21.77 145.59 18.753 147.158 11.6834C148.357 5.91964 144.852 1.64185 138.763 1.64185ZM143.007 11.7284C142.038 16.6817 138.994 18.7981 135.165 18.7981C131.383 18.7981 129.307 15.601 129.999 11.7284C130.921 6.86526 134.058 4.70385 137.84 4.70385C141.623 4.65882 143.791 7.67579 143.007 11.7284Z" fill="#333366"/>
<path d="M175.756 4.16342C175.756 2.99265 176.679 2.09206 177.832 2.09206C178.985 2.09206 179.908 2.99265 179.908 4.16342C179.908 5.37921 178.985 6.2798 177.832 6.2798C176.633 6.2798 175.756 5.37921 175.756 4.16342ZM175.295 4.16342C175.295 5.55933 176.448 6.64004 177.832 6.64004C179.216 6.64004 180.369 5.55933 180.369 4.16342C180.369 2.7675 179.216 1.73183 177.832 1.73183C176.448 1.6868 175.295 2.7675 175.295 4.16342ZM176.863 5.60436H177.324V4.38856H177.832L178.616 5.64939H179.123L178.293 4.38856C178.754 4.34353 179.077 4.11839 179.077 3.62306C179.077 3.08271 178.754 2.81253 178.063 2.81253H176.909V5.60436M177.324 3.08271H177.924C178.247 3.08271 178.57 3.12774 178.57 3.533C178.57 3.9833 178.201 4.02833 177.786 4.02833H177.324V3.08271Z" fill="#333366"/>
</g>
<defs>
<clipPath id="clip0_2139_942">
<rect width="179.893" height="21.1638" fill="white" transform="translate(0.476562 0.786133)"/>
</clipPath>
</defs>
</svg>
