<svg width="736" height="254" viewBox="0 0 736 254" fill="none" xmlns="http://www.w3.org/2000/svg">
<path d="M530.327 332.113L546.037 354.86L491.475 376.427L499.262 384.679L518.503 394.307L536.828 412.645L552.863 431.443L541.41 447.948L534.538 467.203L538.661 490.585L552.863 478.207C552.863 478.207 548.281 466.745 556.986 456.2C565.69 445.656 578.975 447.948 578.975 447.948L599.132 445.197L618.373 452.074C618.373 452.074 625.702 463.994 623.87 466.745C622.037 469.496 616.54 498.379 616.54 498.379L614.707 507.09L573.477 557.98L565.69 588.239C565.69 588.239 665.215 523.42 678.042 427.599C682.977 390.737 686.776 363.066 684.99 336.14C684.089 322.57 679.914 304.807 677.508 292.282C673.898 273.496 671.099 261.313 662.009 243.076C654.767 228.546 636.883 220.176 620.82 222.459C602.985 224.995 580.765 226.13 573.477 217.795C560.65 203.124 552.433 216.493 552.984 221.682C553.958 230.856 573.917 252.064 573.917 252.064C577.473 255.674 576.626 261.674 572.213 264.161C565.161 268.136 533.743 287.931 529.352 295.059C522.3 306.508 522.687 321.049 530.327 332.113Z" fill="url(#paint0_linear_2298_10493)"/>
<path d="M398.249 78.1918C398.249 78.1918 377.634 84.6106 371.22 89.6537C364.807 94.6968 391.377 83.6939 398.249 89.6537C405.121 95.614 428.027 91.0293 428.027 91.0293C428.027 91.0293 446.809 101.574 453.223 92.8633C459.637 84.1522 470.173 87.3618 470.173 87.3618C470.173 87.3618 493.079 95.614 488.498 96.5313C483.917 97.448 474.296 96.5313 474.296 96.5313L475.212 107.993L484.833 117.621L495.369 117.621L511.861 117.621L521.482 124.498L548.052 124.498L548.052 114.87L539.348 101.116L573.248 124.498C573.248 124.498 507.28 60.3124 453.222 54.352C399.164 48.3916 399.165 48.3911 399.165 48.3911L407.869 58.0189L438.563 65.8127L443.602 75.4406L411.992 77.2746L398.249 78.1918Z" fill="url(#paint1_linear_2298_10493)"/>
<path d="M217.36 72.4594C217.36 72.4594 151.09 108.829 142.539 124.34C133.988 139.851 128.109 159.105 128.109 167.663C128.109 176.22 122.23 169.802 132.919 160.71C143.608 151.617 150.021 147.873 152.693 160.71C155.365 173.546 162.313 187.987 168.192 182.638C174.07 177.29 168.726 182.104 168.192 173.546C167.657 164.988 168.192 156.966 168.192 156.966L181.018 144.129C181.018 144.129 177.277 139.851 192.241 149.478C207.205 159.105 216.291 159.105 213.619 153.757C210.946 148.408 189.035 144.129 199.723 138.246C210.412 132.363 210.946 125.41 234.996 128.084C259.046 130.758 270.803 140.92 275.613 139.316C280.423 137.711 289.508 128.619 279.354 124.34C269.2 120.061 259.58 117.922 251.029 112.038C242.478 106.155 240.34 101.341 240.875 98.1322C241.409 94.9231 245.15 90.6443 247.822 89.0398C250.495 87.4352 258.511 78.8776 260.114 77.8079C261.718 76.7382 265.993 70.8549 266.528 69.2503C267.062 67.6458 275.079 66.5761 275.613 62.8321C276.147 59.0882 286.302 51.6003 286.302 51.6003L286.302 48.3912C286.302 48.3912 231.789 63.9018 217.36 72.4594Z" fill="url(#paint2_linear_2298_10493)"/>
<path d="M2.3153 358.792C1.45592 259.889 41.3857 174.477 103.146 112.023C172.94 41.4466 270.611 0.189927 368.803 1.91855C399.353 2.45661 429.952 7.15525 459.778 16.4269C542.149 42.0317 600.132 82.5851 640.862 128.417C754.513 256.306 733.83 425.297 733.83 425.297C733.83 425.297 577.798 329.265 583.114 328.2C588.431 327.136 681.465 202.108 681.465 202.108L717.084 493.664L627.239 405.878L720.273 298.406L485.827 161.673L620.86 124.43L649.568 304.79L451.272 133.475L657.542 181.358L228.521 260.1L486.891 32.92L388.009 285.105L347.605 8.44637L498.586 96.2323L310.392 155.82L411.932 26.5355L583.114 87.1874L398.109 151.564L285.405 21.747L215.231 313.303L10.024 344.694L302.948 159.013L89.2358 144.116L288.063 309.047L221.079 43.0287L458.183 356.93L368.87 51.5413L28.0991 260.1L393.856 367.039L60.5281 194.659L154.626 353.738L134.956 102.085L306.138 288.297L311.986 21.747L458.183 295.746L670.301 187.211L607.57 429.819L458.183 247.863L720.273 346.289L577.267 445.78L720.273 456.421L410.337 375.552L551.217 325.54L566.103 445.78L2.3153 358.792Z" stroke="#418DFF" stroke-width="0.25" stroke-miterlimit="10"/>
<path opacity="0.5" d="M458.184 246C457.156 246 456.323 246.834 456.323 247.863C456.323 248.891 457.156 249.725 458.184 249.725C459.212 249.725 460.045 248.891 460.045 247.863C460.045 246.834 459.212 246 458.184 246Z" fill="#418DFF"/>
<path opacity="0.5" d="M670.301 185.349C669.273 185.349 668.44 186.182 668.44 187.211C668.44 188.239 669.273 189.073 670.301 189.073C671.329 189.073 672.162 188.239 672.162 187.211C672.162 186.182 671.329 185.349 670.301 185.349Z" fill="#418DFF"/>
<path opacity="0.5" d="M311.987 19.8852C310.959 19.8852 310.126 20.719 310.126 21.7475C310.126 22.7761 310.959 23.6099 311.987 23.6099C313.015 23.6099 313.848 22.7761 313.848 21.7475C313.848 20.719 313.015 19.8852 311.987 19.8852Z" fill="#418DFF"/>
<path opacity="0.5" d="M134.956 100.223C133.929 100.223 133.096 101.056 133.096 102.085C133.096 103.113 133.929 103.947 134.956 103.947C135.984 103.947 136.817 103.113 136.817 102.085C136.817 101.056 135.984 100.223 134.956 100.223Z" fill="#418DFF"/>
<path opacity="0.5" d="M60.5288 196.521C59.5011 196.521 58.6678 195.688 58.6678 194.659C58.6678 193.631 59.5011 192.797 60.5288 192.797C61.5565 192.797 62.3896 193.631 62.3896 194.659C62.3896 195.688 61.5565 196.521 60.5288 196.521Z" fill="#418DFF"/>
<path opacity="0.5" d="M368.871 49.6791C367.843 49.6791 367.01 50.5129 367.01 51.5415C367.01 52.57 367.843 53.4038 368.871 53.4038C369.898 53.4038 370.731 52.57 370.731 51.5415C370.731 50.5129 369.898 49.6791 368.871 49.6791Z" fill="#418DFF"/>
<path opacity="0.5" d="M221.08 41.1664C220.052 41.1664 219.219 42.0002 219.219 43.0288C219.219 44.0573 220.052 44.8911 221.08 44.8911C222.107 44.8911 222.94 44.0573 222.94 43.0288C222.94 42.0002 222.107 41.1664 221.08 41.1664Z" fill="#418DFF"/>
<path opacity="0.5" d="M89.2367 142.253C88.209 142.253 87.3759 143.087 87.3759 144.116C87.3759 145.144 88.209 145.978 89.2367 145.978C90.2645 145.978 91.0977 145.144 91.0977 144.116C91.0977 143.087 90.2645 142.253 89.2367 142.253Z" fill="#418DFF"/>
<path opacity="0.5" d="M302.95 160.875C301.922 160.875 301.089 160.041 301.089 159.013C301.089 157.985 301.922 157.151 302.95 157.151C303.977 157.151 304.811 157.985 304.811 159.013C304.811 160.041 303.978 160.875 302.95 160.875Z" fill="#418DFF"/>
<path opacity="0.5" d="M284.679 20.0288C283.729 20.4224 283.278 21.5119 283.672 22.4621C284.065 23.4124 285.153 23.8637 286.103 23.47C287.053 23.0764 287.503 21.987 287.11 21.0367C286.717 20.0864 285.628 19.6352 284.679 20.0288Z" fill="#418DFF"/>
<path opacity="0.5" d="M398.11 149.702C397.082 149.702 396.249 150.536 396.249 151.564C396.249 152.593 397.082 153.427 398.11 153.427C399.138 153.427 399.971 152.593 399.971 151.564C399.971 150.536 399.138 149.702 398.11 149.702Z" fill="#418DFF"/>
<path opacity="0.5" d="M583.115 85.3256C582.087 85.3256 581.254 86.1594 581.254 87.1879C581.254 88.2165 582.087 89.0503 583.115 89.0503C584.142 89.0503 584.976 88.2165 584.976 87.1879C584.976 86.1594 584.142 85.3256 583.115 85.3256Z" fill="#418DFF"/>
<path opacity="0.5" d="M411.932 28.3979C410.904 28.3979 410.071 27.5641 410.071 26.5356C410.071 25.5071 410.904 24.6733 411.932 24.6733C412.96 24.6733 413.793 25.5071 413.793 26.5356C413.793 27.5641 412.96 28.3979 411.932 28.3979Z" fill="#418DFF"/>
<path opacity="0.5" d="M310.392 153.958C309.364 153.958 308.531 154.792 308.531 155.821C308.531 156.849 309.364 157.683 310.392 157.683C311.42 157.683 312.253 156.849 312.253 155.821C312.253 154.792 311.42 153.958 310.392 153.958Z" fill="#418DFF"/>
<path opacity="0.5" d="M498.587 94.37C497.56 94.37 496.726 95.2038 496.726 96.2324C496.726 97.2609 497.56 98.0947 498.587 98.0947C499.615 98.0947 500.448 97.2609 500.448 96.2324C500.448 95.2038 499.615 94.37 498.587 94.37Z" fill="#418DFF"/>
<path opacity="0.5" d="M347.606 6.58391C346.578 6.58391 345.745 7.4177 345.745 8.44625C345.745 9.4748 346.578 10.3086 347.606 10.3086C348.634 10.3086 349.467 9.4748 349.467 8.44625C349.467 7.4177 348.634 6.58391 347.606 6.58391Z" fill="#418DFF"/>
<path opacity="0.5" d="M486.891 31.0575C485.863 31.0575 485.03 31.8913 485.03 32.9199C485.03 33.9484 485.863 34.7822 486.891 34.7822C487.919 34.7822 488.752 33.9484 488.752 32.9199C488.752 31.8913 487.919 31.0575 486.891 31.0575Z" fill="#418DFF"/>
<path opacity="0.5" d="M657.542 179.496C656.515 179.496 655.682 180.33 655.682 181.358C655.682 182.387 656.515 183.221 657.542 183.221C658.57 183.221 659.403 182.387 659.403 181.358C659.403 180.33 658.57 179.496 657.542 179.496Z" fill="#418DFF"/>
<path opacity="0.5" d="M451.273 131.613C450.245 131.613 449.412 132.446 449.412 133.475C449.412 134.504 450.245 135.337 451.273 135.337C452.301 135.337 453.134 134.504 453.134 133.475C453.134 132.446 452.301 131.613 451.273 131.613Z" fill="#418DFF"/>
<path opacity="0.5" d="M620.861 126.292C619.833 126.292 619 125.459 619 124.43C619 123.402 619.833 122.568 620.861 122.568C621.888 122.568 622.722 123.402 622.722 124.43C622.722 125.459 621.888 126.292 620.861 126.292Z" fill="#418DFF"/>
<path opacity="0.5" d="M485.828 159.81C484.8 159.81 483.967 160.644 483.967 161.673C483.967 162.701 484.8 163.535 485.828 163.535C486.855 163.535 487.688 162.701 487.688 161.673C487.688 160.644 486.855 159.81 485.828 159.81Z" fill="#418DFF"/>
<path opacity="0.5" d="M681.465 200.245C680.438 200.245 679.604 201.079 679.604 202.107C679.604 203.136 680.438 203.97 681.465 203.97C682.493 203.97 683.326 203.136 683.326 202.107C683.326 201.079 682.493 200.245 681.465 200.245Z" fill="#418DFF"/>
<path opacity="0.5" d="M640.863 126.555C639.835 126.555 639.002 127.389 639.002 128.417C639.002 129.446 639.835 130.28 640.863 130.28C641.89 130.28 642.724 129.446 642.724 128.417C642.724 127.389 641.89 126.555 640.863 126.555Z" fill="#418DFF"/>
<path opacity="0.5" d="M459.779 18.2891C458.751 18.2891 457.918 17.4552 457.918 16.4267C457.918 15.3982 458.751 14.5644 459.779 14.5644C460.806 14.5644 461.64 15.3982 461.64 16.4267C461.639 17.4552 460.806 18.2891 459.779 18.2891Z" fill="#418DFF"/>
<path opacity="0.5" d="M368.803 3.78076C367.775 3.78076 366.942 2.94693 366.942 1.91842C366.942 0.889903 367.775 0.0560749 368.803 0.0560748C369.831 0.0560747 370.664 0.889902 370.664 1.91842C370.664 2.94693 369.831 3.78076 368.803 3.78076Z" fill="#418DFF"/>
<path opacity="0.5" d="M103.147 113.886C102.119 113.886 101.286 113.052 101.286 112.023C101.286 110.995 102.119 110.161 103.147 110.161C104.175 110.161 105.008 110.995 105.008 112.023C105.007 113.052 104.175 113.886 103.147 113.886Z" fill="#418DFF"/>
<path d="M591.601 595.667C462.45 720.598 259.818 720.599 130.667 595.667C5.84281 466.432 5.84279 263.674 130.667 134.44C259.818 9.50735 462.45 9.50787 591.601 134.44C716.426 263.674 716.426 466.432 591.601 595.667Z" stroke="#418DFF" stroke-miterlimit="10"/>
<path d="M611.408 156.194C466.599 44.7065 255.67 44.705 110.859 156.194" stroke="#418DFF" stroke-miterlimit="10"/>
<path d="M629.216 179.679C469.794 81.905 252.475 81.9045 93.0522 179.679" stroke="#418DFF" stroke-miterlimit="10"/>
<path d="M644.886 204.754C471.87 120.95 250.398 120.95 77.3813 204.754" stroke="#418DFF" stroke-miterlimit="10"/>
<path d="M658.284 231.287C472.811 161.737 249.456 161.737 63.9836 231.287" stroke="#418DFF" stroke-miterlimit="10"/>
<path d="M669.274 259.141C472.697 204.224 249.573 204.224 52.9947 259.141" stroke="#418DFF" stroke-miterlimit="10"/>
<path d="M677.719 288.177C471.785 248.38 250.484 248.38 44.5498 288.177" stroke="#418DFF" stroke-miterlimit="10"/>
<path d="M146.563 610.506C31.6476 469.585 31.6476 260.521 146.563 119.599" stroke="#418DFF" stroke-miterlimit="10"/>
<path d="M163.424 624.272C58.5633 472.226 58.5633 257.88 163.424 105.834" stroke="#418DFF" stroke-miterlimit="10"/>
<path d="M181.193 636.909C86.516 474.301 86.5171 255.803 181.193 93.1967" stroke="#418DFF" stroke-miterlimit="10"/>
<path d="M199.815 648.361C115.47 475.798 115.47 254.307 199.815 81.7443" stroke="#418DFF" stroke-miterlimit="10"/>
<path d="M219.236 658.574C145.369 476.655 145.369 253.451 219.236 71.5318" stroke="#418DFF" stroke-miterlimit="10"/>
<path d="M239.4 667.493C176.214 476.879 176.214 253.227 239.4 62.6136" stroke="#418DFF" stroke-miterlimit="10"/>
<path d="M260.253 675.062C207.977 476.571 207.977 253.533 260.253 55.044" stroke="#418DFF" stroke-miterlimit="10"/>
<path d="M281.738 681.227C240.641 475.879 240.641 254.227 281.738 48.8796" stroke="#418DFF" stroke-miterlimit="10"/>
<path d="M303.804 685.933C274.169 475.007 274.169 255.099 303.804 44.174" stroke="#418DFF" stroke-miterlimit="10"/>
<path d="M326.391 689.124C308.481 474.219 308.481 255.887 326.391 40.982" stroke="#418DFF" stroke-miterlimit="10"/>
<path d="M349.448 690.746C343.456 473.747 343.456 256.358 349.448 39.3602" stroke="#418DFF" stroke-miterlimit="10"/>
<path d="M372.82 690.746C378.813 473.747 378.813 256.358 372.82 39.3602" stroke="#418DFF" stroke-miterlimit="10"/>
<path d="M395.876 689.124C413.786 474.219 413.786 255.887 395.876 40.982" stroke="#418DFF" stroke-miterlimit="10"/>
<path d="M418.464 685.933C448.099 475.007 448.099 255.099 418.464 44.174" stroke="#418DFF" stroke-miterlimit="10"/>
<path d="M440.528 681.227C481.626 475.879 481.626 254.227 440.528 48.8796" stroke="#418DFF" stroke-miterlimit="10"/>
<path d="M462.015 675.062C514.291 476.571 514.29 253.533 462.015 55.044" stroke="#418DFF" stroke-miterlimit="10"/>
<path d="M482.867 667.493C546.054 476.879 546.054 253.227 482.867 62.6136" stroke="#418DFF" stroke-miterlimit="10"/>
<path d="M503.031 658.574C576.898 476.655 576.898 253.451 503.031 71.5319" stroke="#418DFF" stroke-miterlimit="10"/>
<path d="M522.452 648.361C606.798 475.798 606.797 254.307 522.452 81.7443" stroke="#418DFF" stroke-miterlimit="10"/>
<path d="M541.074 636.909C635.752 474.301 635.751 255.803 541.074 93.1967" stroke="#418DFF" stroke-miterlimit="10"/>
<path d="M558.843 624.272C663.703 472.226 663.703 257.88 558.843 105.834" stroke="#418DFF" stroke-miterlimit="10"/>
<path d="M575.704 610.506C690.62 469.585 690.62 260.521 575.704 119.599" stroke="#418DFF" stroke-miterlimit="10"/>
<defs>
<linearGradient id="paint0_linear_2298_10493" x1="668.624" y1="442.3" x2="459.65" y2="327.225" gradientUnits="userSpaceOnUse">
<stop stop-color="#8BB9FF"/>
<stop offset="1" stop-color="#8BB9FF" stop-opacity="0"/>
</linearGradient>
<linearGradient id="paint1_linear_2298_10493" x1="529.29" y1="35.006" x2="419.671" y2="165.679" gradientUnits="userSpaceOnUse">
<stop stop-color="#8BB9FF"/>
<stop offset="1" stop-color="#8BB9FF" stop-opacity="0"/>
</linearGradient>
<linearGradient id="paint2_linear_2298_10493" x1="177.752" y1="55.9429" x2="231.182" y2="156.157" gradientUnits="userSpaceOnUse">
<stop stop-color="#8BB9FF"/>
<stop offset="0.0354" stop-color="#8BB9FF" stop-opacity="0.9646"/>
<stop offset="1" stop-color="#8BB9FF" stop-opacity="0"/>
</linearGradient>
</defs>
</svg>
