<svg width="20" height="20" viewBox="0 0 20 20" fill="none" xmlns="http://www.w3.org/2000/svg">
<g id="headphones/alt">
<path id="Icon" d="M3.67387 14.5852L3.47897 15.0457H3.47897L3.67387 14.5852ZM3.67387 7.47583L3.86877 7.93628V7.93628L3.67387 7.47583ZM4.39515 7.3484L4.30026 7.83931L4.39515 7.3484ZM5.01286 7.7577L5.42795 7.47895L5.01286 7.7577ZM4.39515 14.7126L4.30026 14.2217L4.30026 14.2217L4.39515 14.7126ZM5.01286 14.3033L4.59777 14.0246H4.59777L5.01286 14.3033ZM16.3252 14.5852L16.5201 15.0457H16.5201L16.3252 14.5852ZM16.3252 7.47583L16.1303 7.93628V7.93628L16.3252 7.47583ZM15.6039 7.3484L15.6988 7.83931L15.6039 7.3484ZM14.9862 7.7577L14.5711 7.47895L14.9862 7.7577ZM15.6039 14.7126L15.6988 14.2217V14.2217L15.6039 14.7126ZM14.9862 14.3033L15.4013 14.0246L14.9862 14.3033ZM17.2516 14.8888C17.2516 14.6127 17.0277 14.3888 16.7516 14.3888C16.4754 14.3888 16.2516 14.6127 16.2516 14.8888H17.2516ZM9.99954 17.2826C9.7234 17.2826 9.49954 17.5064 9.49954 17.7826C9.49954 18.0587 9.7234 18.2826 9.99954 18.2826V17.2826ZM3.86877 14.1248C2.66288 13.6143 1.81836 12.4205 1.81836 11.0305H0.818359C0.818359 12.8362 1.91628 14.3842 3.47897 15.0457L3.86877 14.1248ZM1.81836 11.0305C1.81836 9.64057 2.66288 8.44672 3.86877 7.93628L3.47897 7.01539C1.91628 7.67685 0.818359 9.22489 0.818359 11.0305H1.81836ZM5.67666 13.3455V8.71554H4.67666V13.3455H5.67666ZM3.86877 7.93628C4.02556 7.86992 4.08759 7.84557 4.14093 7.83395C4.17308 7.82695 4.21197 7.82225 4.30026 7.83931L4.49004 6.85749C4.28985 6.81879 4.11237 6.81673 3.92813 6.85686C3.76508 6.89237 3.61072 6.95962 3.47897 7.01539L3.86877 7.93628ZM5.67666 8.71554C5.67666 8.28009 5.69263 7.87309 5.42795 7.47895L4.59777 8.03644C4.6607 8.13015 4.67666 8.1991 4.67666 8.71554H5.67666ZM4.30026 7.83931C4.29847 7.83897 4.31533 7.8426 4.35046 7.85882C4.38328 7.87397 4.42141 7.89521 4.46024 7.92093C4.49907 7.94666 4.53349 7.97351 4.56023 7.99782C4.58886 8.02384 4.59878 8.03796 4.59777 8.03644L5.42795 7.47895C5.31943 7.31735 5.15475 7.18152 5.0126 7.08733C4.87044 6.99314 4.68116 6.89443 4.49004 6.85749L4.30026 7.83931ZM3.47897 15.0457C3.61072 15.1014 3.76508 15.1687 3.92813 15.2042C4.11237 15.2443 4.28985 15.2423 4.49004 15.2036L4.30026 14.2217C4.21197 14.2388 4.17308 14.2341 4.14093 14.2271C4.08759 14.2155 4.02555 14.1911 3.86877 14.1248L3.47897 15.0457ZM4.67666 13.3455C4.67666 13.8619 4.66069 13.9309 4.59777 14.0246L5.42795 14.5821C5.69263 14.188 5.67666 13.781 5.67666 13.3455H4.67666ZM4.49004 15.2036C4.68116 15.1666 4.87044 15.0679 5.0126 14.9737C5.15475 14.8795 5.31943 14.7437 5.42795 14.5821L4.59777 14.0246C4.59878 14.0231 4.58886 14.0372 4.56023 14.0632C4.53349 14.0875 4.49907 14.1144 4.46024 14.1401C4.42141 14.1658 4.38328 14.1871 4.35046 14.2022C4.31533 14.2184 4.29847 14.2221 4.30026 14.2217L4.49004 15.2036ZM16.5201 15.0457C18.0828 14.3842 19.1807 12.8362 19.1807 11.0305H18.1807C18.1807 12.4205 17.3362 13.6143 16.1303 14.1248L16.5201 15.0457ZM19.1807 11.0305C19.1807 9.22489 18.0828 7.67685 16.5201 7.01539L16.1303 7.93628C17.3362 8.44672 18.1807 9.64057 18.1807 11.0305H19.1807ZM15.3224 13.3455V8.71554H14.3224V13.3455H15.3224ZM16.5201 7.01539C16.3884 6.95962 16.234 6.89237 16.071 6.85686C15.8867 6.81673 15.7092 6.81879 15.509 6.85749L15.6988 7.83931C15.7871 7.82225 15.826 7.82695 15.8582 7.83395C15.9115 7.84557 15.9735 7.86992 16.1303 7.93628L16.5201 7.01539ZM15.3224 8.71554C15.3224 8.1991 15.3384 8.13015 15.4013 8.03644L14.5711 7.47895C14.3065 7.87309 14.3224 8.28009 14.3224 8.71554H15.3224ZM15.509 6.85749C15.3179 6.89443 15.1286 6.99313 14.9865 7.08733C14.8443 7.18152 14.6797 7.31735 14.5711 7.47895L15.4013 8.03644C15.4003 8.03796 15.4102 8.02384 15.4389 7.99782C15.4656 7.97351 15.5 7.94666 15.5388 7.92093C15.5777 7.89521 15.6158 7.87397 15.6486 7.85882C15.6837 7.8426 15.7006 7.83897 15.6988 7.83931L15.509 6.85749ZM16.1303 14.1248C15.9735 14.1911 15.9115 14.2155 15.8582 14.2271C15.826 14.2341 15.7871 14.2388 15.6988 14.2217L15.509 15.2036C15.7092 15.2423 15.8867 15.2443 16.071 15.2042C16.234 15.1687 16.3884 15.1014 16.5201 15.0457L16.1303 14.1248ZM14.3224 13.3455C14.3224 13.781 14.3065 14.188 14.5711 14.5821L15.4013 14.0246C15.3384 13.9309 15.3224 13.8619 15.3224 13.3455H14.3224ZM15.6988 14.2217C15.7006 14.2221 15.6837 14.2184 15.6486 14.2022C15.6158 14.1871 15.5777 14.1658 15.5388 14.1401C15.5 14.1144 15.4656 14.0875 15.4389 14.0632C15.4102 14.0372 15.4003 14.0231 15.4013 14.0246L14.5711 14.5821C14.6797 14.7437 14.8443 14.8795 14.9865 14.9737C15.1286 15.0679 15.3179 15.1666 15.509 15.2036L15.6988 14.2217ZM3.74751 8.1368C3.74751 4.68389 6.54664 1.88477 9.99954 1.88477V0.884766C5.99436 0.884766 2.74751 4.13161 2.74751 8.1368H3.74751ZM9.99954 1.88477C13.4524 1.88477 16.2516 4.68389 16.2516 8.1368H17.2516C17.2516 4.13161 14.0047 0.884766 9.99954 0.884766V1.88477ZM16.2516 14.8888V15.8534H17.2516V14.8888H16.2516ZM14.8224 17.2826H9.99954V18.2826H14.8224V17.2826ZM16.2516 15.8534C16.2516 16.6427 15.6117 17.2826 14.8224 17.2826V18.2826C16.164 18.2826 17.2516 17.195 17.2516 15.8534H16.2516Z" fill="#0066FF"/>
</g>
</svg>
