<svg width="20" height="20" viewBox="0 0 20 20" fill="none" xmlns="http://www.w3.org/2000/svg">
<g id="user/circle">
<path id="Icon" d="M15.7828 15.4672C15.4814 14.8765 15.0835 14.3225 14.5893 13.8283C12.0552 11.2941 7.94653 11.2941 5.41238 13.8283C4.91818 14.3225 4.52035 14.8765 4.21891 15.4672M1.64062 9.99984C1.64063 5.38263 5.38361 1.63965 10.0008 1.63965C14.618 1.63965 18.361 5.38263 18.361 9.99984C18.361 14.617 14.618 18.36 10.0008 18.36C5.38361 18.36 1.64062 14.617 1.64062 9.99984ZM13.0409 8.4798C13.0409 10.1588 11.6798 11.5199 10.0008 11.5199C8.32183 11.5199 6.96075 10.1588 6.96075 8.4798C6.96075 6.80082 8.32183 5.43973 10.0008 5.43973C11.6798 5.43973 13.0409 6.80082 13.0409 8.4798Z" stroke="#0066FF"/>
</g>
</svg>
