<svg width="617" height="317" viewBox="0 0 617 317" fill="none" xmlns="http://www.w3.org/2000/svg">
<g clip-path="url(#clip0_5323_9819)">
<rect width="617" height="317" rx="12" fill="#E4E9F3"/>
<g opacity="0.2">
<path d="M380.399 181.092L326.824 218.881L447.084 262.357C455.025 265.264 460.32 272.847 460.32 281.314V424.76L496.624 398.599V251.361C496.372 234.426 485.783 219.26 469.9 213.573L380.399 181.092Z" fill="#0066FF"/>
<path d="M425.518 266.275L352.152 339.83H415.686L449.091 306.212V279.798C449.091 276.638 447.074 273.984 444.175 272.847L425.518 266.148V266.275Z" fill="#0066FF"/>
<path d="M627.599 351.971L681.173 314.182L560.914 270.706C552.972 267.799 547.678 260.216 547.678 251.748V108.176L511.373 134.337V281.701C511.625 298.637 522.214 313.803 538.097 319.49L627.599 351.971Z" fill="#0066FF"/>
<path d="M582.606 266.788L655.972 193.232H592.439L559.033 226.851V253.265C559.033 256.424 561.05 259.079 563.949 260.216L582.606 266.914V266.788Z" fill="#0066FF"/>
</g>
</g>
<defs>
<clipPath id="clip0_5323_9819">
<rect width="617" height="317" rx="12" fill="white"/>
</clipPath>
</defs>
</svg>
