<svg width="1249" height="249" viewBox="0 0 1249 249" fill="none" xmlns="http://www.w3.org/2000/svg">
<path d="M0 69.5771C0 71.7863 1.79086 73.5771 4 73.5771C6.20914 73.5771 8 71.7863 8 69.5771C8 67.368 6.20914 65.5771 4 65.5771C1.79086 65.5771 0 67.368 0 69.5771ZM222.5 172.577L222.18 173.256L222.424 173.371L222.685 173.304L222.5 172.577ZM626.153 69.5771L626.342 68.8513L626.155 68.8027L625.967 68.8504L626.153 69.5771ZM1022 172.577L1021.81 173.303L1022.07 173.371L1022.32 173.257L1022 172.577ZM1244.32 70.2575C1244.69 70.0832 1244.85 69.6372 1244.68 69.2615C1244.51 68.8858 1244.06 68.7225 1243.68 68.8968L1244.32 70.2575ZM3.6802 70.2556L8.23229 72.4014L8.87188 71.0446L4.3198 68.8987L3.6802 70.2556ZM17.3365 76.6931L26.4406 80.9847L27.0802 79.6279L17.976 75.3362L17.3365 76.6931ZM35.5448 85.2764L44.649 89.5681L45.2886 88.2112L36.1844 83.9196L35.5448 85.2764ZM53.7531 93.8597L62.8573 98.1514L63.4969 96.7946L54.3927 92.5029L53.7531 93.8597ZM71.9615 102.443L81.0656 106.735L81.7052 105.378L72.601 101.086L71.9615 102.443ZM90.1698 111.026L99.274 115.318L99.9136 113.961L90.8094 109.67L90.1698 111.026ZM108.378 119.61L117.482 123.901L118.122 122.545L109.018 118.253L108.378 119.61ZM126.586 128.193L135.691 132.485L136.33 131.128L127.226 126.836L126.586 128.193ZM144.795 136.776L153.899 141.068L154.539 139.711L145.434 135.42L144.795 136.776ZM163.003 145.36L172.107 149.651L172.747 148.295L163.643 144.003L163.003 145.36ZM181.211 153.943L190.316 158.235L190.955 156.878L181.851 152.586L181.211 153.943ZM199.42 162.526L208.524 166.818L209.164 165.461L200.059 161.17L199.42 162.526ZM217.628 171.11L222.18 173.256L222.82 171.899L218.268 169.753L217.628 171.11ZM222.685 173.304L227.491 172.078L227.12 170.624L222.315 171.85L222.685 173.304ZM237.102 169.625L246.712 167.173L246.342 165.719L236.731 168.172L237.102 169.625ZM256.323 164.721L265.934 162.268L265.563 160.815L255.952 163.267L256.323 164.721ZM275.545 159.816L285.156 157.363L284.785 155.91L275.174 158.362L275.545 159.816ZM294.766 154.911L304.377 152.459L304.006 151.005L294.395 153.458L294.766 154.911ZM313.988 150.006L323.599 147.554L323.228 146.1L313.617 148.553L313.988 150.006ZM333.209 145.101L342.82 142.649L342.449 141.196L332.839 143.648L333.209 145.101ZM352.431 140.197L362.042 137.744L361.671 136.291L352.06 138.743L352.431 140.197ZM371.653 135.292L381.263 132.84L380.892 131.386L371.282 133.839L371.653 135.292ZM390.874 130.387L400.485 127.935L400.114 126.481L390.503 128.934L390.874 130.387ZM410.096 125.482L419.706 123.03L419.336 121.577L409.725 124.029L410.096 125.482ZM429.317 120.578L438.928 118.125L438.557 116.672L428.946 119.124L429.317 120.578ZM448.539 115.673L458.15 113.221L457.779 111.767L448.168 114.219L448.539 115.673ZM467.76 110.768L477.371 108.316L477 106.862L467.389 109.315L467.76 110.768ZM486.982 105.863L496.593 103.411L496.222 101.958L486.611 104.41L486.982 105.863ZM506.203 100.959L515.814 98.5063L515.443 97.0528L505.833 99.5052L506.203 100.959ZM525.425 96.0539L535.036 93.6015L534.665 92.1481L525.054 94.6004L525.425 96.0539ZM544.647 91.1491L554.257 88.6967L553.886 87.2433L544.276 89.6957L544.647 91.1491ZM563.868 86.2443L573.479 83.792L573.108 82.3385L563.497 84.7909L563.868 86.2443ZM583.09 81.3396L592.7 78.8872L592.33 77.4338L582.719 79.8862L583.09 81.3396ZM602.311 76.4348L611.922 73.9824L611.551 72.529L601.94 74.9814L602.311 76.4348ZM621.533 71.5301L626.338 70.3039L625.967 68.8504L621.162 70.0766L621.533 71.5301ZM625.964 70.303L630.912 71.5905L631.29 70.1388L626.342 68.8513L625.964 70.303ZM640.808 74.1655L650.704 76.7405L651.082 75.2888L641.186 72.7138L640.808 74.1655ZM660.601 79.3155L670.497 81.8905L670.874 80.4388L660.978 77.8638L660.601 79.3155ZM680.393 84.4655L690.289 87.0405L690.667 85.5888L680.771 83.0138L680.393 84.4655ZM700.185 89.6155L710.081 92.1905L710.459 90.7388L700.563 88.1638L700.185 89.6155ZM719.978 94.7655L729.874 97.3405L730.252 95.8888L720.355 93.3138L719.978 94.7655ZM739.77 99.9155L749.666 102.49L750.044 101.039L740.148 98.4638L739.77 99.9155ZM759.562 105.065L769.458 107.64L769.836 106.189L759.94 103.614L759.562 105.065ZM779.355 110.215L789.251 112.79L789.629 111.339L779.732 108.764L779.355 110.215ZM799.147 115.365L809.043 117.94L809.421 116.489L799.525 113.914L799.147 115.365ZM818.939 120.515L828.836 123.09L829.213 121.639L819.317 119.064L818.939 120.515ZM838.732 125.665L848.628 128.24L849.006 126.789L839.11 124.214L838.732 125.665ZM858.524 130.815L868.42 133.39L868.798 131.939L858.902 129.364L858.524 130.815ZM878.317 135.965L888.213 138.54L888.59 137.089L878.694 134.514L878.317 135.965ZM898.109 141.115L908.005 143.69L908.383 142.239L898.487 139.664L898.109 141.115ZM917.901 146.265L927.797 148.84L928.175 147.389L918.279 144.814L917.901 146.265ZM937.694 151.415L947.59 153.99L947.968 152.539L938.071 149.964L937.694 151.415ZM957.486 156.565L967.382 159.141L967.76 157.689L957.864 155.114L957.486 156.565ZM977.278 161.715L987.175 164.29L987.552 162.839L977.656 160.264L977.278 161.715ZM997.071 166.866L1006.97 169.44L1007.34 167.989L997.448 165.414L997.071 166.866ZM1016.86 172.016L1021.81 173.303L1022.19 171.851L1017.24 170.564L1016.86 172.016ZM1022.32 173.257L1026.94 171.112L1026.31 169.751L1021.68 171.897L1022.32 173.257ZM1036.19 166.82L1045.44 162.528L1044.81 161.168L1035.56 165.459L1036.19 166.82ZM1054.69 158.237L1063.94 153.945L1063.31 152.584L1054.06 156.876L1054.69 158.237ZM1073.19 149.653L1082.44 145.362L1081.81 144.001L1072.56 148.293L1073.19 149.653ZM1091.69 141.07L1100.94 136.778L1100.31 135.418L1091.06 139.709L1091.69 141.07ZM1110.19 132.487L1119.44 128.195L1118.81 126.834L1109.56 131.126L1110.19 132.487ZM1128.69 123.903L1137.94 119.612L1137.31 118.251L1128.06 122.543L1128.69 123.903ZM1147.19 115.32L1156.44 111.028L1155.81 109.668L1146.56 113.959L1147.19 115.32ZM1165.69 106.737L1174.94 102.445L1174.31 101.084L1165.06 105.376L1165.69 106.737ZM1184.19 98.1533L1193.44 93.8617L1192.81 92.501L1183.56 96.7926L1184.19 98.1533ZM1202.69 89.57L1211.94 85.2783L1211.31 83.9177L1202.06 88.2093L1202.69 89.57ZM1221.19 80.9867L1230.44 76.695L1229.81 75.3343L1220.56 79.626L1221.19 80.9867ZM1239.69 72.4033L1244.32 70.2575L1243.68 68.8968L1239.06 71.0427L1239.69 72.4033Z" fill="#D5D9E5"/>
<path d="M1245.05 71.8332C1246.49 71.1674 1247.67 70.0801 1248.45 68.6873C1248.85 67.9692 1248.88 67.1296 1248.54 66.3825C1248.2 65.6356 1247.54 65.114 1246.73 64.9512C1245.17 64.6344 1243.58 64.8181 1242.13 65.484L1237.65 67.5431L1235.85 66.3921C1236.37 66.0088 1236.57 65.2978 1236.29 64.6868C1235.97 63.9893 1235.14 63.6821 1234.44 64.0026L1233.09 64.6252L1230.95 63.261L1231.18 63.1591C1231.87 62.8384 1232.18 62.0089 1231.86 61.3118C1231.55 60.6362 1230.69 60.3168 1230.01 60.6277L1228.16 61.4766L1223.75 58.6531C1223.4 58.4307 1222.97 58.4013 1222.6 58.5732L1221.27 59.1818C1220.92 59.3417 1220.68 59.6481 1220.59 60.0226C1220.51 60.397 1220.61 60.7781 1220.86 61.0687L1229.83 71.473L1221.81 75.605L1215.9 73.7667L1214.67 74.3315C1214.4 74.4532 1214.22 74.6981 1214.18 74.9858C1214.14 75.2738 1214.24 75.5594 1214.46 75.7503L1219.17 79.8782L1219.24 86.1427C1219.24 86.4331 1219.39 86.6998 1219.64 86.8554C1219.69 86.888 1219.74 86.9149 1219.8 86.9355C1220.01 87.0132 1220.24 87.0056 1220.45 86.9099L1221.68 86.3452L1224.13 80.6616L1232.49 77.2662L1234.55 90.8431C1234.6 91.222 1234.83 91.5437 1235.17 91.7258C1235.5 91.9068 1235.9 91.9203 1236.24 91.7605L1237.57 91.1521C1237.94 90.9797 1238.2 90.6329 1238.26 90.2239L1238.99 85.0407L1240.84 84.1913C1241.18 84.0359 1241.44 83.7581 1241.57 83.4087C1241.7 83.0594 1241.68 82.6809 1241.53 82.3427C1241.2 81.6452 1240.38 81.338 1239.68 81.6585L1239.46 81.7607L1239.81 79.2541L1241.17 78.6311C1241.5 78.4757 1241.76 78.1978 1241.89 77.8485C1242.02 77.4992 1242.01 77.1206 1241.85 76.7833C1241.58 76.193 1240.89 75.8753 1240.27 76.0101L1240.57 73.8916L1245.05 71.8325L1245.05 71.8332Z" fill="#0066FF"/>
<rect x="176" y="116.077" width="95" height="95" rx="12.5" fill="white"/>
<rect x="176" y="116.077" width="95" height="95" rx="12.5" stroke="#D8ECFF" stroke-width="11"/>
<rect x="161.5" y="99.5771" width="32" height="32" rx="6.85714" fill="#0066FF"/>
<path d="M179.418 108.032V122.577H177.216V110.233H177.131L173.651 112.506V110.404L177.28 108.032H179.418Z" fill="white"/>
<path d="M224.18 164.747C224.075 164.732 223.94 164.732 223.82 164.747C221.18 164.657 219.08 162.497 219.08 159.842C219.08 157.127 221.27 154.922 224 154.922C226.715 154.922 228.92 157.127 228.92 159.842C228.905 162.497 226.82 164.657 224.18 164.747Z" stroke="#1E1F24" stroke-width="1.2" stroke-linecap="round" stroke-linejoin="round"/>
<path d="M234.111 174.647C231.441 177.092 227.901 178.577 224.001 178.577C220.101 178.577 216.561 177.092 213.891 174.647C214.041 173.237 214.941 171.857 216.546 170.777C220.656 168.047 227.376 168.047 231.456 170.777C233.061 171.857 233.961 173.237 234.111 174.647Z" stroke="#1E1F24" stroke-width="1.2" stroke-linecap="round" stroke-linejoin="round"/>
<path d="M224 178.577C232.284 178.577 239 171.861 239 163.577C239 155.293 232.284 148.577 224 148.577C215.716 148.577 209 155.293 209 163.577C209 171.861 215.716 178.577 224 178.577Z" stroke="#1E1F24" stroke-width="1.2" stroke-linecap="round" stroke-linejoin="round"/>
<rect x="577" y="36.0771" width="95" height="95" rx="12.5" fill="white"/>
<rect x="577" y="36.0771" width="95" height="95" rx="12.5" stroke="#D8ECFF" stroke-width="11"/>
<path d="M611.684 76.4371L612.199 76.7458L611.684 76.4371ZM614.102 72.4076L614.616 72.7163V72.7163L614.102 72.4076ZM634.898 72.4076L634.384 72.7163V72.7163L634.898 72.4076ZM637.316 76.4371L636.801 76.7458L637.316 76.4371ZM632.714 70.2193L632.532 70.7909V70.7909L632.714 70.2193ZM633.782 70.8242L634.179 70.3737V70.3736L633.782 70.8242ZM615.218 70.8242L615.614 71.2748V71.2748L615.218 70.8242ZM616.286 70.2193L616.103 69.6478V69.6478L616.286 70.2193ZM637.961 77.9239L637.369 78.0207V78.0207L637.961 77.9239ZM637.788 77.3001L638.345 77.0785L638.345 77.0785L637.788 77.3001ZM636.362 96.7502L636.09 96.2156V96.2156L636.362 96.7502ZM637.673 95.4391L637.138 95.1667H637.138L637.673 95.4391ZM611.327 95.4391L610.792 95.7115H610.792L611.327 95.4391ZM612.638 96.7502L612.91 96.2156L612.91 96.2156L612.638 96.7502ZM611.039 77.9239L610.447 77.827L611.039 77.9239ZM611.212 77.3001L610.655 77.0785H610.655L611.212 77.3001ZM612.5 76.9771C612.169 76.9771 611.9 77.2458 611.9 77.5771C611.9 77.9085 612.169 78.1771 612.5 78.1771V76.9771ZM636.5 78.1771C636.831 78.1771 637.1 77.9085 637.1 77.5771C637.1 77.2458 636.831 76.9771 636.5 76.9771V78.1771ZM621.5 82.9771C621.169 82.9771 620.9 83.2458 620.9 83.5771C620.9 83.9085 621.169 84.1771 621.5 84.1771V82.9771ZM627.5 84.1771C627.831 84.1771 628.1 83.9085 628.1 83.5771C628.1 83.2458 627.831 82.9771 627.5 82.9771V84.1771ZM623.9 77.5771C623.9 77.9085 624.169 78.1771 624.5 78.1771C624.831 78.1771 625.1 77.9085 625.1 77.5771H623.9ZM625.1 70.0771C625.1 69.7458 624.831 69.4771 624.5 69.4771C624.169 69.4771 623.9 69.7458 623.9 70.0771H625.1ZM610.4 78.9067V92.2771H611.6V78.9067H610.4ZM615.8 97.6771H633.2V96.4771H615.8V97.6771ZM638.6 92.2771V78.9067H637.4V92.2771H638.6ZM612.199 76.7458L614.616 72.7163L613.587 72.0989L611.17 76.1284L612.199 76.7458ZM618.218 70.6771H630.782V69.4771H618.218V70.6771ZM634.384 72.7163L636.801 76.7458L637.83 76.1284L635.413 72.0989L634.384 72.7163ZM630.782 70.6771C631.813 70.6771 632.196 70.6839 632.532 70.7909L632.897 69.6478C632.341 69.4704 631.734 69.4771 630.782 69.4771V70.6771ZM635.413 72.0989C634.923 71.2831 634.616 70.7586 634.179 70.3737L633.386 71.2748C633.65 71.5071 633.853 71.8325 634.384 72.7163L635.413 72.0989ZM632.532 70.7909C632.847 70.8916 633.138 71.0563 633.386 71.2748L634.179 70.3736C633.806 70.0459 633.369 69.7988 632.897 69.6478L632.532 70.7909ZM614.616 72.7163C615.147 71.8325 615.35 71.5071 615.614 71.2748L614.821 70.3736C614.384 70.7586 614.077 71.2831 613.587 72.0989L614.616 72.7163ZM618.218 69.4771C617.266 69.4771 616.659 69.4704 616.103 69.6478L616.468 70.7909C616.804 70.6839 617.187 70.6771 618.218 70.6771V69.4771ZM615.614 71.2748C615.862 71.0563 616.153 70.8916 616.468 70.7909L616.103 69.6478C615.631 69.7988 615.194 70.0459 614.821 70.3736L615.614 71.2748ZM638.6 78.9067C638.6 78.4307 638.602 78.1267 638.553 77.827L637.369 78.0207C637.398 78.2021 637.4 78.393 637.4 78.9067H638.6ZM636.801 76.7458C637.066 77.1863 637.162 77.3509 637.23 77.5217L638.345 77.0785C638.233 76.7963 638.075 76.5366 637.83 76.1284L636.801 76.7458ZM638.553 77.827C638.511 77.5708 638.441 77.3198 638.345 77.0785L637.23 77.5217C637.294 77.6826 637.341 77.8499 637.369 78.0207L638.553 77.827ZM633.2 97.6771C634.03 97.6771 634.689 97.6776 635.219 97.6343C635.757 97.5904 636.215 97.4985 636.634 97.2848L636.09 96.2156C635.867 96.3288 635.585 96.4004 635.122 96.4383C634.651 96.4767 634.05 96.4771 633.2 96.4771V97.6771ZM637.4 92.2771C637.4 93.1271 637.4 93.7285 637.361 94.1987C637.323 94.6618 637.252 94.9445 637.138 95.1667L638.208 95.7115C638.421 95.292 638.513 94.8338 638.557 94.2964C638.6 93.766 638.6 93.1073 638.6 92.2771H637.4ZM636.634 97.2848C637.312 96.9396 637.862 96.3889 638.208 95.7115L637.138 95.1667C636.908 95.6183 636.541 95.9855 636.09 96.2156L636.634 97.2848ZM610.4 92.2771C610.4 93.1073 610.4 93.766 610.443 94.2964C610.487 94.8338 610.579 95.292 610.792 95.7115L611.862 95.1667C611.748 94.9445 611.677 94.6618 611.639 94.1987C611.6 93.7285 611.6 93.1271 611.6 92.2771H610.4ZM615.8 96.4771C614.95 96.4771 614.349 96.4767 613.878 96.4383C613.415 96.4004 613.133 96.3288 612.91 96.2156L612.366 97.2848C612.785 97.4985 613.243 97.5904 613.781 97.6343C614.311 97.6776 614.97 97.6771 615.8 97.6771V96.4771ZM610.792 95.7115C611.138 96.3889 611.688 96.9396 612.366 97.2848L612.91 96.2156C612.459 95.9855 612.092 95.6183 611.862 95.1667L610.792 95.7115ZM611.6 78.9067C611.6 78.393 611.602 78.2021 611.631 78.0207L610.447 77.827C610.398 78.1267 610.4 78.4307 610.4 78.9067H611.6ZM611.17 76.1284C610.925 76.5366 610.767 76.7963 610.655 77.0785L611.77 77.5217C611.838 77.3509 611.934 77.1863 612.199 76.7458L611.17 76.1284ZM611.631 78.0207C611.659 77.8499 611.706 77.6826 611.77 77.5217L610.655 77.0785C610.559 77.3198 610.489 77.5708 610.447 77.827L611.631 78.0207ZM612.5 78.1771H636.5V76.9771H612.5V78.1771ZM621.5 84.1771H627.5V82.9771H621.5V84.1771ZM625.1 77.5771V70.0771H623.9V77.5771H625.1Z" fill="#1E1F24"/>
<rect x="562.5" y="19.5771" width="32" height="32" rx="6.85714" fill="#0066FF"/>
<path d="M573.399 42.5771V40.9862L578.321 35.8868C578.847 35.3328 579.28 34.8475 579.621 34.4308C579.966 34.0094 580.224 33.6093 580.395 33.2306C580.565 32.8518 580.651 32.4493 580.651 32.0232C580.651 31.5402 580.537 31.1235 580.31 30.7732C580.082 30.4181 579.772 30.1458 579.379 29.9564C578.986 29.7623 578.544 29.6652 578.051 29.6652C577.53 29.6652 577.076 29.7718 576.688 29.9848C576.299 30.1979 576.001 30.4985 575.793 30.8868C575.584 31.2751 575.48 31.7296 575.48 32.2504H573.385C573.385 31.365 573.589 30.5909 573.996 29.928C574.403 29.2651 574.962 28.7514 575.672 28.3868C576.382 28.0175 577.189 27.8328 578.094 27.8328C579.008 27.8328 579.813 28.0151 580.509 28.3797C581.209 28.7396 581.756 29.232 582.149 29.857C582.542 30.4772 582.739 31.178 582.739 31.9593C582.739 32.499 582.637 33.027 582.433 33.5431C582.234 34.0592 581.886 34.6344 581.389 35.2689C580.892 35.8986 580.201 36.6633 579.315 37.5629L576.425 40.5885V40.695H582.973V42.5771H573.399Z" fill="white"/>
<rect x="978" y="118.077" width="95" height="95" rx="12.5" fill="white"/>
<rect x="978" y="118.077" width="95" height="95" rx="12.5" stroke="#D8ECFF" stroke-width="11"/>
<path d="M1041.58 182.501C1041.81 182.736 1042.19 182.736 1042.42 182.501C1042.66 182.267 1042.66 181.887 1042.42 181.653L1041.58 182.501ZM1014.46 154.128L1014.84 153.667L1014.46 154.128ZM1019.08 157.977L1019.46 157.516L1019.08 157.977ZM1022.92 157.977L1023.3 158.438L1022.92 157.977ZM1028.08 153.678L1027.7 153.217V153.217L1028.08 153.678ZM1031.92 153.678L1031.54 154.139L1031.92 153.678ZM1036.84 157.778L1036.46 158.239L1036.46 158.239L1036.84 157.778ZM1019.08 177.477L1019.46 177.016L1019.46 177.016L1019.08 177.477ZM1013.08 172.477L1012.7 172.938H1012.7L1013.08 172.477ZM1021 178.772C1021.33 178.772 1021.6 178.504 1021.6 178.172C1021.6 177.841 1021.33 177.572 1021 177.572V178.772ZM1021.6 159.577C1021.6 159.246 1021.33 158.977 1021 158.977C1020.67 158.977 1020.4 159.246 1020.4 159.577H1021.6ZM1020.4 177.577C1020.4 177.909 1020.67 178.177 1021 178.177C1021.33 178.177 1021.6 177.909 1021.6 177.577H1020.4ZM1037.32 162.577C1037.32 162.909 1037.59 163.177 1037.92 163.177C1038.25 163.177 1038.52 162.909 1038.52 162.577H1037.32ZM1038.49 172.371C1038.49 175.792 1035.72 178.565 1032.29 178.565V179.765C1036.38 179.765 1039.69 176.455 1039.69 172.371H1038.49ZM1032.29 178.565C1028.87 178.565 1026.1 175.792 1026.1 172.371H1024.9C1024.9 176.455 1028.21 179.765 1032.29 179.765V178.565ZM1026.1 172.371C1026.1 168.95 1028.87 166.177 1032.29 166.177V164.977C1028.21 164.977 1024.9 168.288 1024.9 172.371H1026.1ZM1032.29 166.177C1035.72 166.177 1038.49 168.95 1038.49 172.371H1039.69C1039.69 168.288 1036.38 164.977 1032.29 164.977V166.177ZM1036.72 177.648L1041.58 182.501L1042.42 181.653L1037.57 176.8L1036.72 177.648ZM1014.08 154.588L1018.7 158.438L1019.46 157.516L1014.84 153.667L1014.08 154.588ZM1023.3 158.438L1028.46 154.139L1027.7 153.217L1022.54 157.516L1023.3 158.438ZM1031.54 154.139L1036.46 158.239L1037.23 157.317L1032.3 153.217L1031.54 154.139ZM1019.46 177.016L1013.46 172.016L1012.7 172.938L1018.7 177.938L1019.46 177.016ZM1012.6 170.172V155.28H1011.4V170.172H1012.6ZM1013.46 172.016C1012.92 171.56 1012.6 170.884 1012.6 170.172H1011.4C1011.4 171.241 1011.87 172.254 1012.7 172.938L1013.46 172.016ZM1028.46 154.139C1029.35 153.397 1030.65 153.397 1031.54 154.139L1032.3 153.217C1030.97 152.104 1029.03 152.104 1027.7 153.217L1028.46 154.139ZM1018.7 158.438C1020.03 159.55 1021.97 159.55 1023.3 158.438L1022.54 157.516C1021.65 158.258 1020.35 158.258 1019.46 157.516L1018.7 158.438ZM1014.84 153.667C1013.48 152.527 1011.4 153.499 1011.4 155.28H1012.6C1012.6 154.517 1013.49 154.1 1014.08 154.588L1014.84 153.667ZM1021 177.572C1020.45 177.572 1019.91 177.387 1019.46 177.016L1018.7 177.938C1019.36 178.494 1020.18 178.772 1021 178.772V177.572ZM1020.4 159.577V177.577H1021.6V159.577H1020.4ZM1037.32 160.083V162.577H1038.52V160.083H1037.32ZM1036.46 158.239C1037 158.695 1037.32 159.371 1037.32 160.083H1038.52C1038.52 159.014 1038.05 158.001 1037.23 157.317L1036.46 158.239Z" fill="#1E1F24"/>
<rect x="963.5" y="101.577" width="32" height="32" rx="6.85714" fill="#0066FF"/>
<path d="M979.463 124.776C978.488 124.776 977.616 124.608 976.849 124.272C976.087 123.936 975.483 123.469 975.038 122.873C974.598 122.271 974.361 121.575 974.328 120.785H976.558C976.587 121.215 976.731 121.589 976.991 121.907C977.257 122.219 977.602 122.461 978.028 122.631C978.455 122.802 978.928 122.887 979.449 122.887C980.022 122.887 980.528 122.787 980.969 122.589C981.414 122.39 981.762 122.113 982.013 121.758C982.264 121.398 982.389 120.983 982.389 120.515C982.389 120.027 982.264 119.598 982.013 119.229C981.767 118.855 981.404 118.562 980.926 118.348C980.453 118.135 979.88 118.029 979.207 118.029H977.979V116.239H979.207C979.747 116.239 980.221 116.142 980.628 115.948C981.04 115.754 981.362 115.484 981.594 115.138C981.826 114.788 981.942 114.378 981.942 113.91C981.942 113.46 981.84 113.069 981.636 112.738C981.438 112.401 981.153 112.139 980.784 111.949C980.42 111.76 979.989 111.665 979.491 111.665C979.018 111.665 978.575 111.753 978.163 111.928C977.756 112.098 977.425 112.345 977.169 112.667C976.913 112.984 976.776 113.365 976.757 113.81H974.634C974.657 113.024 974.889 112.333 975.33 111.736C975.775 111.14 976.362 110.673 977.091 110.337C977.82 110.001 978.63 109.833 979.52 109.833C980.453 109.833 981.258 110.015 981.935 110.38C982.616 110.74 983.142 111.22 983.511 111.821C983.885 112.423 984.07 113.081 984.065 113.796C984.07 114.61 983.843 115.302 983.384 115.87C982.929 116.438 982.323 116.819 981.565 117.013V117.127C982.531 117.274 983.279 117.657 983.81 118.277C984.345 118.898 984.61 119.667 984.605 120.586C984.61 121.386 984.387 122.103 983.938 122.738C983.492 123.372 982.884 123.872 982.112 124.236C981.34 124.596 980.457 124.776 979.463 124.776Z" fill="white"/>
</svg>
