<svg width="34" height="28" viewBox="0 0 34 28" fill="none" xmlns="http://www.w3.org/2000/svg">
<path d="M6.84907 6.98828L2.44922 10.0917L12.3256 13.6622C12.9778 13.9009 13.4126 14.5237 13.4126 15.2191V26.9997L16.3942 24.8512V12.7592C16.3735 11.3684 15.5038 10.1229 14.1994 9.65578L6.84907 6.98828Z" fill="#0066FF"/>
<path d="M10.5545 13.984L4.5293 20.0248H9.74701L12.4904 17.2639V15.0946C12.4904 14.8351 12.3248 14.6172 12.0867 14.5237L10.5545 13.9736V13.984Z" fill="#0066FF"/>
<path d="M27.1506 21.0218L31.5504 17.9184L21.674 14.3479C21.0218 14.1091 20.587 13.4864 20.587 12.791V1L17.6055 3.14853V15.2509C17.6262 16.6417 18.4958 17.8872 19.8002 18.3543L27.1506 21.0218Z" fill="#0066FF"/>
<path d="M23.4555 14.0261L29.4807 7.98535H24.263L21.5195 10.7463V12.9156C21.5195 13.175 21.6852 13.393 21.9233 13.4864L23.4555 14.0365V14.0261Z" fill="#0066FF"/>
</svg>
