<svg width="216" height="100" viewBox="0 0 216 100" fill="none" xmlns="http://www.w3.org/2000/svg">
<g id="Illus">
<path id="Background" fill-rule="evenodd" clip-rule="evenodd" d="M46 81H137C137.515 81 138.017 80.9444 138.5 80.8389C138.983 80.9444 139.485 81 140 81H192C195.866 81 199 77.866 199 74C199 70.134 195.866 67 192 67H186C182.134 67 179 63.866 179 60C179 56.134 182.134 53 186 53H205C208.866 53 212 49.866 212 46C212 42.134 208.866 39 205 39H183C186.866 39 190 35.866 190 32C190 28.134 186.866 25 183 25H119C122.866 25 126 21.866 126 18C126 14.134 122.866 11 119 11H62C58.134 11 55 14.134 55 18C55 21.866 58.134 25 62 25H22C18.134 25 15 28.134 15 32C15 35.866 18.134 39 22 39H47C50.866 39 54 42.134 54 46C54 49.866 50.866 53 47 53H7C3.13401 53 0 56.134 0 60C0 63.866 3.13401 67 7 67H46C42.134 67 39 70.134 39 74C39 77.866 42.134 81 46 81ZM209 81C212.866 81 216 77.866 216 74C216 70.134 212.866 67 209 67C205.134 67 202 70.134 202 74C202 77.866 205.134 81 209 81Z" fill="#F2F3F5"/>
<path id="Path" fill-rule="evenodd" clip-rule="evenodd" d="M96.1186 59.3066C96.0404 59.8599 96 60.4252 96 61C96 67.6274 101.373 73 108 73C114.627 73 120 67.6274 120 61C120 60.4252 119.96 59.8599 119.881 59.3066H149V86C149 87.6569 147.657 89 146 89H70C68.3431 89 67 87.6569 67 86V59.3066H96.1186Z" fill="white"/>
<path id="Path_2" fill-rule="evenodd" clip-rule="evenodd" d="M121 59C121 66.1797 115.18 72 108 72C100.82 72 95 66.1797 95 59C95 58.7674 95.0061 58.5362 95.0182 58.3066H67L76.5604 30.0389C76.9726 28.8202 78.1159 28 79.4023 28H136.598C137.884 28 139.027 28.8202 139.44 30.0389L149 58.3066H120.982C120.994 58.5362 121 58.7674 121 59Z" fill="white"/>
<path id="Path_3" fill-rule="evenodd" clip-rule="evenodd" d="M119.098 59.9545C119.098 65.5025 114.129 71 108 71C101.871 71 96.9024 65.5025 96.9024 59.9545C96.9024 59.7748 96.9077 58.5962 96.918 58.4188H76L84.1614 38.5755C84.5132 37.6338 85.4891 37 86.5873 37H129.413C130.511 37 131.487 37.6338 131.839 38.5755L140 58.4188H119.082C119.092 58.5962 119.098 59.7748 119.098 59.9545Z" fill="#F2F3F5"/>
<path id="Rectangle" fill-rule="evenodd" clip-rule="evenodd" d="M68.25 58.5123V85C68.25 85.9665 69.0335 86.75 70 86.75H146C146.966 86.75 147.75 85.9665 147.75 85V58.5123L138.255 30.4393C138.015 29.7285 137.348 29.25 136.598 29.25H79.4023C78.6519 29.25 77.985 29.7285 77.7446 30.4393L68.25 58.5123Z" stroke="#868689"/>
<path id="Shape" d="M68.5 58C72.4366 58 89.1849 58 93.7449 58C95.6212 58 95.6212 59.3186 95.6212 60C95.6212 66.6274 101.117 72 107.897 72C114.677 72 120.173 66.6274 120.173 60C120.173 59.3186 120.173 58 122.05 58H147" stroke="#868689" stroke-linecap="round" stroke-linejoin="round"/>
</g>
</svg>
