<svg width="1240" height="382" viewBox="0 0 1240 382" fill="none" xmlns="http://www.w3.org/2000/svg">
<g opacity="0.2" clip-path="url(#clip0_5177_377)">
<path d="M879.388 544.277L904.491 580.511L817.304 614.864L829.748 628.009L860.494 643.345L889.776 672.556L915.398 702.498L897.097 728.788L886.116 759.46L892.705 796.704L915.398 776.987C915.398 776.987 908.078 758.73 921.987 741.933C935.896 725.137 957.124 728.788 957.124 728.788L989.333 724.406L1020.08 735.361C1020.08 735.361 1031.79 754.348 1028.86 758.73C1025.93 763.111 1017.15 809.119 1017.15 809.119L1014.22 822.995L948.339 904.056L935.895 952.255C935.895 952.255 1094.93 849.006 1115.43 696.375C1123.31 637.658 1129.38 593.582 1126.53 550.692C1125.09 529.077 1118.42 500.783 1114.57 480.832C1108.8 450.908 1104.33 431.503 1089.81 402.453C1078.24 379.309 1049.66 365.976 1023.99 369.613C995.491 373.651 959.984 375.46 948.339 362.184C927.841 338.815 914.712 360.11 915.593 368.375C917.149 382.989 949.041 416.77 949.041 416.77C954.724 422.519 953.371 432.077 946.319 436.039C935.05 442.37 884.845 473.902 877.829 485.256C866.561 503.492 867.18 526.655 879.388 544.277Z" fill="url(#paint0_linear_5177_377)"/>
<path d="M668.337 139.814C668.337 139.814 635.395 150.038 625.147 158.072C614.898 166.105 657.356 148.578 668.337 158.071C679.317 167.566 715.92 160.263 715.92 160.263C715.92 160.263 745.933 177.06 756.182 163.184C766.431 149.308 783.267 154.421 783.267 154.421C783.267 154.421 819.869 167.566 812.549 169.027C805.229 170.487 789.856 169.027 789.856 169.027L791.32 187.284L806.692 202.62L823.529 202.62L849.882 202.62L865.255 213.574L907.713 213.574L907.713 198.238L893.804 176.33L947.975 213.574C947.975 213.574 842.561 111.334 756.18 101.84C669.8 92.3462 669.8 92.3453 669.8 92.3453L683.709 107.681L732.756 120.096L740.808 135.432L690.298 138.353L668.337 139.814Z" fill="url(#paint1_linear_5177_377)"/>
<path d="M379.286 130.684C379.286 130.684 273.391 188.616 259.727 213.323C246.063 238.029 236.669 268.699 236.669 282.33C236.669 295.962 227.275 285.738 244.355 271.255C261.435 256.772 271.683 250.808 275.953 271.255C280.223 291.702 291.324 314.704 300.718 306.185C310.112 297.666 301.572 305.333 300.718 291.702C299.864 278.071 300.718 265.291 300.718 265.291L321.214 244.845C321.214 244.845 315.236 238.029 339.148 253.364C363.06 268.699 377.578 268.699 373.308 260.18C369.038 251.66 334.024 244.845 351.104 235.473C368.184 226.102 369.038 215.026 407.468 219.286C445.897 223.546 464.685 239.733 472.371 237.177C480.057 234.621 494.575 220.138 478.349 213.323C462.123 206.507 446.751 203.099 433.088 193.728C419.424 184.356 416.008 176.689 416.862 171.577C417.716 166.465 423.694 159.65 427.964 157.094C432.234 154.538 445.043 140.907 447.605 139.203C450.167 137.499 456.999 128.128 457.853 125.572C458.707 123.016 471.517 121.312 472.371 115.348C473.225 109.385 489.451 97.4575 489.451 97.4575L489.451 92.3458C489.451 92.3458 402.344 117.052 379.286 130.684Z" fill="url(#paint2_linear_5177_377)"/>
<path d="M35.6592 586.775C34.286 429.235 98.0913 293.184 196.781 193.703C308.306 81.2833 464.38 15.5665 621.283 18.32C670.1 19.1771 718.996 26.6614 766.657 41.43C898.28 82.2153 990.933 146.812 1056.02 219.817C1237.62 423.528 1204.57 692.709 1204.57 692.709C1204.57 692.709 955.245 539.742 963.74 538.046C972.236 536.351 1120.9 337.197 1120.9 337.197L1177.82 801.609L1034.25 661.777L1182.91 490.588L808.282 272.789L1024.06 213.466L1069.93 500.757L753.064 227.873L1082.67 304.145L397.123 429.571L809.981 67.7014L651.973 469.401L587.411 28.718L828.67 168.55L527.946 263.467L690.201 57.5318L963.74 154.143L668.114 256.687L488.019 49.9043L375.885 514.317L47.9773 564.318L516.052 268.552L174.553 244.823L492.267 507.537L385.23 83.8033L764.108 583.81L621.391 97.3629L76.8602 429.57L661.318 599.911L128.68 325.332L279.042 578.724L247.61 177.872L521.15 474.486L530.494 49.9043L764.108 486.351L1103.06 313.467L1002.82 699.912L764.108 410.078L1182.91 566.86L954.396 725.336L1182.91 742.286L687.652 613.471L912.77 533.809L936.557 725.336L35.6592 586.775Z" stroke="#418DFF" stroke-width="0.25" stroke-miterlimit="10"/>
<path opacity="0.5" d="M1103.06 310.502C1101.42 310.502 1100.09 311.83 1100.09 313.468C1100.09 315.106 1101.42 316.435 1103.06 316.435C1104.7 316.435 1106.03 315.106 1106.03 313.468C1106.03 311.83 1104.7 310.502 1103.06 310.502Z" fill="#418DFF"/>
<path opacity="0.5" d="M530.495 46.9391C528.853 46.9391 527.522 48.2672 527.522 49.9056C527.522 51.5439 528.853 52.8721 530.495 52.8721C532.137 52.8721 533.469 51.5439 533.469 49.9056C533.469 48.2672 532.137 46.9391 530.495 46.9391Z" fill="#418DFF"/>
<path opacity="0.5" d="M247.612 174.906C245.97 174.906 244.639 176.234 244.639 177.872C244.639 179.511 245.97 180.839 247.612 180.839C249.255 180.839 250.586 179.511 250.586 177.872C250.586 176.234 249.255 174.906 247.612 174.906Z" fill="#418DFF"/>
<path opacity="0.5" d="M128.679 328.298C127.037 328.298 125.705 326.97 125.705 325.331C125.705 323.693 127.037 322.366 128.679 322.366C130.321 322.366 131.652 323.694 131.652 325.331C131.652 326.97 130.321 328.298 128.679 328.298Z" fill="#418DFF"/>
<path opacity="0.5" d="M621.394 94.3961C619.751 94.3961 618.42 95.7243 618.42 97.3626C618.42 99.001 619.751 100.329 621.394 100.329C623.036 100.329 624.367 99.001 624.367 97.3626C624.367 95.7243 623.036 94.3961 621.394 94.3961Z" fill="#418DFF"/>
<path opacity="0.5" d="M385.23 80.8375C383.587 80.8375 382.256 82.1657 382.256 83.804C382.256 85.4424 383.587 86.7705 385.23 86.7705C386.872 86.7705 388.203 85.4424 388.203 83.804C388.203 82.1657 386.872 80.8375 385.23 80.8375Z" fill="#418DFF"/>
<path opacity="0.5" d="M174.554 241.857C172.911 241.857 171.58 243.185 171.58 244.824C171.58 246.462 172.911 247.79 174.554 247.79C176.196 247.79 177.527 246.462 177.527 244.824C177.527 243.185 176.196 241.857 174.554 241.857Z" fill="#418DFF"/>
<path opacity="0.5" d="M516.054 271.518C514.412 271.518 513.08 270.189 513.08 268.552C513.08 266.914 514.412 265.585 516.054 265.585C517.696 265.585 519.027 266.914 519.027 268.552C519.027 270.189 517.697 271.518 516.054 271.518Z" fill="#418DFF"/>
<path opacity="0.5" d="M486.858 47.1685C485.34 47.7955 484.62 49.5308 485.248 51.0445C485.877 52.5581 487.616 53.2769 489.134 52.6499C490.651 52.0229 491.371 50.2876 490.743 48.7739C490.114 47.2602 488.375 46.5415 486.858 47.1685Z" fill="#418DFF"/>
<path opacity="0.5" d="M668.114 253.72C666.472 253.72 665.141 255.048 665.141 256.687C665.141 258.325 666.472 259.653 668.114 259.653C669.757 259.653 671.088 258.325 671.088 256.687C671.088 255.048 669.757 253.72 668.114 253.72Z" fill="#418DFF"/>
<path opacity="0.5" d="M963.739 151.178C962.097 151.178 960.766 152.507 960.766 154.145C960.766 155.783 962.097 157.111 963.739 157.111C965.382 157.111 966.713 155.783 966.713 154.145C966.713 152.507 965.382 151.178 963.739 151.178Z" fill="#418DFF"/>
<path opacity="0.5" d="M690.202 60.498C688.56 60.498 687.229 59.1699 687.229 57.5316C687.229 55.8933 688.56 54.5651 690.202 54.5651C691.844 54.5651 693.176 55.8933 693.176 57.5316C693.176 59.1699 691.844 60.498 690.202 60.498Z" fill="#418DFF"/>
<path opacity="0.5" d="M527.944 260.5C526.302 260.5 524.971 261.828 524.971 263.466C524.971 265.104 526.302 266.433 527.944 266.433C529.587 266.433 530.918 265.104 530.918 263.466C530.918 261.828 529.587 260.5 527.944 260.5Z" fill="#418DFF"/>
<path opacity="0.5" d="M828.669 165.584C827.027 165.584 825.695 166.912 825.695 168.55C825.695 170.188 827.027 171.517 828.669 171.517C830.311 171.517 831.643 170.188 831.643 168.55C831.643 166.912 830.311 165.584 828.669 165.584Z" fill="#418DFF"/>
<path opacity="0.5" d="M587.413 25.7516C585.771 25.7516 584.44 27.0797 584.44 28.7181C584.44 30.3564 585.771 31.6846 587.413 31.6846C589.055 31.6846 590.387 30.3564 590.387 28.7181C590.387 27.0797 589.055 25.7516 587.413 25.7516Z" fill="#418DFF"/>
<path opacity="0.5" d="M809.981 64.735C808.339 64.735 807.008 66.0631 807.008 67.7014C807.008 69.3398 808.339 70.668 809.981 70.668C811.624 70.668 812.955 69.3398 812.955 67.7014C812.955 66.0631 811.624 64.735 809.981 64.735Z" fill="#418DFF"/>
<path opacity="0.5" d="M1082.67 301.179C1081.03 301.179 1079.7 302.507 1079.7 304.146C1079.7 305.784 1081.03 307.112 1082.67 307.112C1084.32 307.112 1085.65 305.784 1085.65 304.146C1085.65 302.507 1084.32 301.179 1082.67 301.179Z" fill="#418DFF"/>
<path opacity="0.5" d="M753.064 224.906C751.421 224.906 750.09 226.234 750.09 227.872C750.09 229.511 751.421 230.839 753.064 230.839C754.706 230.839 756.037 229.511 756.037 227.872C756.037 226.234 754.706 224.906 753.064 224.906Z" fill="#418DFF"/>
<path opacity="0.5" d="M1024.06 216.433C1022.41 216.433 1021.08 215.104 1021.08 213.466C1021.08 211.828 1022.41 210.5 1024.06 210.5C1025.7 210.5 1027.03 211.828 1027.03 213.466C1027.03 215.104 1025.7 216.433 1024.06 216.433Z" fill="#418DFF"/>
<path opacity="0.5" d="M808.28 269.822C806.638 269.822 805.307 271.15 805.307 272.788C805.307 274.427 806.638 275.755 808.28 275.755C809.923 275.755 811.254 274.427 811.254 272.788C811.254 271.15 809.923 269.822 808.28 269.822Z" fill="#418DFF"/>
<path opacity="0.5" d="M1120.9 334.229C1119.26 334.229 1117.93 335.557 1117.93 337.196C1117.93 338.834 1119.26 340.162 1120.9 340.162C1122.54 340.162 1123.87 338.834 1123.87 337.196C1123.87 335.557 1122.54 334.229 1120.9 334.229Z" fill="#418DFF"/>
<path opacity="0.5" d="M1056.02 216.851C1054.37 216.851 1053.04 218.179 1053.04 219.818C1053.04 221.456 1054.37 222.784 1056.02 222.784C1057.66 222.784 1058.99 221.456 1058.99 219.818C1058.99 218.179 1057.66 216.851 1056.02 216.851Z" fill="#418DFF"/>
<path opacity="0.5" d="M766.655 44.3965C765.013 44.3965 763.682 43.0683 763.682 41.43C763.682 39.7917 765.013 38.4635 766.655 38.4635C768.298 38.4635 769.629 39.7917 769.629 41.43C769.628 43.0683 768.298 44.3965 766.655 44.3965Z" fill="#418DFF"/>
<path opacity="0.5" d="M621.284 21.2871C619.642 21.2871 618.311 19.9589 618.311 18.3206C618.311 16.6823 619.642 15.3541 621.284 15.3541C622.926 15.3541 624.258 16.6823 624.258 18.3206C624.258 19.9589 622.926 21.2871 621.284 21.2871Z" fill="#418DFF"/>
<path opacity="0.5" d="M196.782 196.67C195.14 196.67 193.809 195.342 193.809 193.703C193.809 192.065 195.14 190.737 196.782 190.737C198.424 190.737 199.756 192.065 199.756 193.703C199.755 195.342 198.424 196.67 196.782 196.67Z" fill="#418DFF"/>
<path d="M977.3 964.086C770.925 1163.09 447.131 1163.09 240.756 964.086C41.2941 758.231 41.2941 435.264 240.756 229.409C447.131 30.4073 770.925 30.4081 977.3 229.409C1176.76 435.263 1176.76 758.231 977.3 964.086Z" stroke="#418DFF" stroke-miterlimit="10"/>
<path d="M1008.95 264.062C777.557 86.4763 440.506 86.4738 209.106 264.063" stroke="#418DFF" stroke-miterlimit="10"/>
<path d="M1037.41 301.469C782.664 145.727 435.401 145.727 180.654 301.469" stroke="#418DFF" stroke-miterlimit="10"/>
<path d="M1062.45 341.412C785.977 207.923 432.078 207.922 155.608 341.412" stroke="#418DFF" stroke-miterlimit="10"/>
<path d="M1083.86 383.676C787.48 272.892 430.574 272.892 134.2 383.676" stroke="#418DFF" stroke-miterlimit="10"/>
<path d="M1101.42 428.043C787.301 340.568 430.764 340.567 116.643 428.043" stroke="#418DFF" stroke-miterlimit="10"/>
<path d="M266.158 987.724C82.5297 763.253 82.5297 430.24 266.158 205.769" stroke="#418DFF" stroke-miterlimit="10"/>
<path d="M293.102 1009.65C125.541 767.461 125.541 426.033 293.101 183.843" stroke="#418DFF" stroke-miterlimit="10"/>
<path d="M321.496 1029.78C170.208 770.766 170.209 422.726 321.496 163.714" stroke="#418DFF" stroke-miterlimit="10"/>
<path d="M351.254 1048.02C216.475 773.15 216.476 420.342 351.254 145.472" stroke="#418DFF" stroke-miterlimit="10"/>
<path d="M382.285 1064.29C264.25 774.516 264.249 418.979 382.285 129.204" stroke="#418DFF" stroke-miterlimit="10"/>
<path d="M414.506 1078.5C313.538 774.873 313.538 418.623 414.506 114.999" stroke="#418DFF" stroke-miterlimit="10"/>
<path d="M447.826 1090.55C364.292 774.383 364.293 419.11 447.826 102.942" stroke="#418DFF" stroke-miterlimit="10"/>
<path d="M482.16 1100.37C416.489 773.279 416.489 420.215 482.16 93.1225" stroke="#418DFF" stroke-miterlimit="10"/>
<path d="M517.42 1107.87C470.065 771.89 470.065 421.604 517.42 85.6267" stroke="#418DFF" stroke-miterlimit="10"/>
<path d="M553.512 1112.95C524.893 770.635 524.893 422.859 553.512 80.5424" stroke="#418DFF" stroke-miterlimit="10"/>
<path d="M590.355 1115.54C580.78 769.884 580.78 423.61 590.355 77.9595" stroke="#418DFF" stroke-miterlimit="10"/>
<path d="M627.703 1115.54C637.279 769.884 637.279 423.61 627.703 77.9595" stroke="#418DFF" stroke-miterlimit="10"/>
<path d="M664.546 1112.95C693.164 770.635 693.164 422.859 664.546 80.5425" stroke="#418DFF" stroke-miterlimit="10"/>
<path d="M700.638 1107.87C747.993 771.89 747.993 421.604 700.638 85.6267" stroke="#418DFF" stroke-miterlimit="10"/>
<path d="M735.897 1100.37C801.568 773.279 801.568 420.215 735.897 93.1225" stroke="#418DFF" stroke-miterlimit="10"/>
<path d="M770.228 1090.55C853.763 774.382 853.762 419.109 770.228 102.941" stroke="#418DFF" stroke-miterlimit="10"/>
<path d="M803.549 1078.5C904.518 774.873 904.517 418.623 803.549 114.999" stroke="#418DFF" stroke-miterlimit="10"/>
<path d="M835.773 1064.29C953.808 774.517 953.807 418.98 835.773 129.205" stroke="#418DFF" stroke-miterlimit="10"/>
<path d="M866.807 1048.02C1001.59 773.15 1001.58 420.342 866.807 145.472" stroke="#418DFF" stroke-miterlimit="10"/>
<path d="M896.564 1029.78C1047.85 770.766 1047.85 422.726 896.563 163.714" stroke="#418DFF" stroke-miterlimit="10"/>
<path d="M924.957 1009.65C1092.52 767.461 1092.52 426.033 924.956 183.843" stroke="#418DFF" stroke-miterlimit="10"/>
<path d="M951.898 987.724C1135.53 763.253 1135.53 430.24 951.898 205.769" stroke="#418DFF" stroke-miterlimit="10"/>
<rect y="5" width="1240" height="377" fill="url(#paint3_linear_5177_377)"/>
</g>
<defs>
<linearGradient id="paint0_linear_5177_377" x1="1100.38" y1="719.792" x2="766.944" y2="535.597" gradientUnits="userSpaceOnUse">
<stop stop-color="#8BB9FF"/>
<stop offset="1" stop-color="#8BB9FF" stop-opacity="0"/>
</linearGradient>
<linearGradient id="paint1_linear_5177_377" x1="877.733" y1="71.0245" x2="703.219" y2="279.716" gradientUnits="userSpaceOnUse">
<stop stop-color="#8BB9FF"/>
<stop offset="1" stop-color="#8BB9FF" stop-opacity="0"/>
</linearGradient>
<linearGradient id="paint2_linear_5177_377" x1="315.995" y1="104.375" x2="400.952" y2="264.227" gradientUnits="userSpaceOnUse">
<stop stop-color="#8BB9FF"/>
<stop offset="0.0354" stop-color="#8BB9FF" stop-opacity="0.9646"/>
<stop offset="1" stop-color="#8BB9FF" stop-opacity="0"/>
</linearGradient>
<linearGradient id="paint3_linear_5177_377" x1="620" y1="382" x2="620" y2="5" gradientUnits="userSpaceOnUse">
<stop stop-color="#F7F8FA"/>
<stop offset="1" stop-color="#F7F8FA" stop-opacity="0"/>
</linearGradient>
<clipPath id="clip0_5177_377">
<rect width="1240" height="382" fill="white" transform="translate(1240 382) rotate(180)"/>
</clipPath>
</defs>
</svg>
