<svg width="236" height="80" viewBox="0 0 236 80" fill="none" xmlns="http://www.w3.org/2000/svg">
<g clip-path="url(#clip0_3484_5940)">
<mask id="mask0_3484_5940" style="mask-type:luminance" maskUnits="userSpaceOnUse" x="30" y="30" width="176" height="20">
<path d="M205.658 30.1992H30.5566V49.8002H205.658V30.1992Z" fill="white"/>
</mask>
<g mask="url(#mask0_3484_5940)">
<path d="M30.5566 47.6058V32.3936H38.1011C39.1613 32.3936 40.0243 32.5661 40.7393 32.936C41.4296 33.2811 41.9474 33.7742 42.3172 34.3906C42.6624 35.007 42.8596 35.6974 42.8596 36.4863C42.8596 37.1274 42.7363 37.7437 42.4898 38.3108C42.2432 38.9025 41.7994 39.371 41.1337 39.7162V39.7655C41.8241 39.9874 42.3665 40.3818 42.8103 40.949C43.2541 41.516 43.4513 42.2064 43.4513 42.9953C43.4513 43.9076 43.2541 44.7211 42.8596 45.4115C42.4651 46.1019 41.8981 46.6442 41.1337 47.0388C40.3694 47.4333 39.4572 47.6058 38.3477 47.6058H30.5566ZM33.9344 38.5574H37.8546C38.4217 38.5574 38.8901 38.4094 39.186 38.1382C39.5065 37.867 39.6544 37.4232 39.6544 36.8562C39.6544 36.3137 39.4818 35.8946 39.1613 35.5987C38.8408 35.3275 38.323 35.1796 37.6327 35.1796H33.9344V38.5574ZM33.9344 44.7459H37.8546C38.5696 44.7459 39.0874 44.5979 39.4572 44.3021C39.827 44.0061 39.9996 43.5377 39.9996 42.8721C39.9996 42.2803 39.827 41.8365 39.4818 41.5406C39.1367 41.2448 38.6682 41.0968 38.0272 41.0968H33.9344V44.7459Z" fill="#0051C6"/>
<path d="M52.3763 47.8277C50.971 47.8277 49.7629 47.5812 48.7274 47.0881C47.6919 46.595 46.9028 45.88 46.3605 44.9184C45.8181 43.9815 45.5469 42.8228 45.5469 41.4667V32.3936H48.9V40.9736C48.9 42.3296 49.2205 43.2911 49.8369 43.8336C50.4779 44.376 51.3408 44.6472 52.475 44.6472C53.6091 44.6472 54.4967 44.376 55.0885 43.8336C55.6802 43.2911 56.0006 42.3296 56.0006 40.9736V32.3936H59.2552V41.4667C59.2552 42.8228 58.9593 43.9568 58.3922 44.9184C57.8252 45.8553 57.0116 46.595 56.0006 47.0881C54.9651 47.5812 53.757 47.8277 52.3763 47.8277Z" fill="#0051C6"/>
<path d="M62.1426 47.6058V32.3936H69.2679C70.3774 32.3936 71.339 32.5908 72.1526 32.9606C72.9662 33.3551 73.5826 33.8975 74.051 34.5879C74.4948 35.3029 74.7167 36.1412 74.7167 37.152C74.7167 38.015 74.5441 38.7546 74.2236 39.3956C73.8785 40.012 73.4347 40.5298 72.8676 40.9243C72.3005 41.3187 71.6102 41.6146 70.8212 41.8118C70.0323 42.0091 69.194 42.1078 68.3063 42.1078H65.5204V47.6058H62.1426ZM65.5204 39.4203H68.7995C69.6131 39.4203 70.2542 39.2478 70.6979 38.8779C71.1417 38.5081 71.3636 37.9903 71.3636 37.2999C71.3636 36.6096 71.1417 36.0918 70.7226 35.7713C70.2788 35.4508 69.6378 35.3029 68.7995 35.3029H65.545V39.4203H65.5204ZM71.7828 47.6058L68.3063 41.6886L71.4869 41.0475L75.5304 47.5812H71.7828V47.6058Z" fill="#0051C6"/>
<path d="M85.218 47.8277C83.4181 47.8277 81.8649 47.5072 80.5827 46.8661C79.3007 46.2252 78.3145 45.3129 77.6241 44.1541C76.9338 42.9706 76.6133 41.5899 76.6133 39.9874C76.6133 38.7053 76.8352 37.5958 77.2542 36.6096C77.6981 35.648 78.2898 34.8344 79.0788 34.1687C79.8431 33.503 80.7553 33.0099 81.7908 32.6894C82.8264 32.3689 83.9112 32.1963 85.0947 32.1963C85.785 32.1963 86.5 32.2703 87.1904 32.3935C87.8807 32.5415 88.5711 32.7387 89.2614 32.9853L89.9517 33.2565L89.3847 35.796L88.5464 35.648C87.93 35.5247 87.363 35.4261 86.7959 35.3522C86.2288 35.2782 85.7111 35.2535 85.1933 35.2535C84.1824 35.2535 83.2949 35.4261 82.5305 35.7466C81.7662 36.0918 81.1745 36.5849 80.7307 37.2999C80.2869 37.9903 80.0896 38.9025 80.0896 40.0367C80.0896 41.1215 80.2869 42.0337 80.706 42.7487C81.1252 43.4637 81.7169 44.0061 82.5058 44.3513C83.2949 44.6965 84.2318 44.8937 85.3412 44.8937C85.7357 44.8937 86.1549 44.8691 86.5986 44.8198C87.0424 44.7705 87.4862 44.6965 87.93 44.5979V41.6393H84.0099V38.9518H91.0612V46.3237C90.5681 46.5949 90.0011 46.8415 89.36 47.0634C88.719 47.2853 88.0532 47.4579 87.363 47.6058C86.6233 47.7538 85.9083 47.8277 85.218 47.8277Z" fill="#0051C6"/>
<path d="M93.7734 47.6058V32.3936H105.435V35.3275H97.1512V38.4341H104.572V41.2448H97.1512V44.6472H105.608V47.6058H93.7734Z" fill="#0051C6"/>
<path d="M108.023 47.6058V32.3936H115.149C116.258 32.3936 117.22 32.5908 118.033 32.9606C118.847 33.3551 119.464 33.8975 119.932 34.5879C120.376 35.3029 120.598 36.1412 120.598 37.152C120.598 38.015 120.425 38.7546 120.104 39.3956C119.759 40.012 119.316 40.5298 118.749 40.9243C118.181 41.3187 117.491 41.6146 116.702 41.8118C115.913 42.0091 115.075 42.1078 114.187 42.1078H111.401V47.6058H108.023ZM111.401 39.4203H114.68C115.494 39.4203 116.135 39.2478 116.579 38.8779C117.023 38.5081 117.244 37.9903 117.244 37.2999C117.244 36.6096 117.023 36.0918 116.603 35.7713C116.16 35.4508 115.519 35.3029 114.68 35.3029H111.426V39.4203H111.401ZM117.639 47.6058L114.163 41.6886L117.343 41.0475L121.387 47.5812H117.639V47.6058Z" fill="#0051C6"/>
<path d="M124.32 47.6059V32.3936H131.495C132.629 32.3936 133.591 32.6154 134.404 33.0346C135.217 33.4537 135.81 34.0455 136.229 34.8344C136.647 35.6234 136.87 36.5356 136.87 37.6205C136.87 38.7053 136.647 39.6422 136.204 40.4558C135.76 41.2694 135.144 41.8858 134.33 42.305C133.517 42.7488 132.555 42.946 131.47 42.946H127.698L127.723 47.5812H124.32V47.6059ZM127.698 40.0367H130.854C131.668 40.0367 132.309 39.8394 132.752 39.4696C133.196 39.0751 133.418 38.4834 133.418 37.6451C133.418 36.7822 133.196 36.1905 132.752 35.8206C132.309 35.4755 131.668 35.2782 130.854 35.2782H127.698V40.0367ZM139.261 47.6059V32.3936H146.387C147.496 32.3936 148.458 32.5908 149.271 32.9606C150.085 33.3551 150.701 33.8975 151.17 34.5879C151.614 35.3029 151.836 36.1411 151.836 37.152C151.836 38.0149 151.663 38.7546 151.342 39.3957C150.997 40.012 150.553 40.5297 149.986 40.9243C149.419 41.3188 148.728 41.6146 147.94 41.8119C147.151 42.0091 146.313 42.1077 145.425 42.1077H142.639V47.6059H139.261ZM142.639 39.4203H145.918C146.732 39.4203 147.373 39.2477 147.817 38.8779C148.261 38.5081 148.482 37.9903 148.482 37.2999C148.482 36.6096 148.261 36.0918 147.841 35.7713C147.398 35.4508 146.757 35.3029 145.918 35.3029H142.664V39.4203H142.639ZM148.877 47.6059L145.401 41.6886L148.581 41.0476L152.625 47.5812H148.877V47.6059ZM154.646 47.6059V32.3936H158.024V47.5812H154.646V47.6059ZM161.328 47.6059V32.3936H164.286L171.929 41.4913H171.979V32.3936H175.332V47.5812H172.62L164.73 38.1136H164.681V47.5812H161.328V47.6059ZM182.63 47.6059V35.3522H177.6V32.3936H191.013V35.3522H186.008V47.6059H182.63Z" fill="#E96D1F"/>
<path d="M205.659 38.2368L196.438 39.5435L201.838 30.1992H196.66L189.979 41.7625L199.174 40.4804L193.8 49.8001H198.978L205.659 38.2368Z" fill="#E96D1F"/>
</g>
</g>
<defs>
<clipPath id="clip0_3484_5940">
<rect width="175.102" height="21.4013" fill="white" transform="translate(30.5566 29.2988)"/>
</clipPath>
</defs>
</svg>
