<svg width="43" height="52" viewBox="0 0 43 52" fill="none" xmlns="http://www.w3.org/2000/svg">
<g id="ups_logo.svg" clip-path="url(#clip0_3484_5918)">
<g id="Group">
<g id="Group_2">
<path id="Vector" d="M6.44149 42.273C2.87413 39.3176 0.964844 35.0374 0.964844 29.9419V5.73814C6.64246 2.73178 13.4255 1.20312 21.2636 1.20312C29.1017 1.20312 35.8847 2.73178 41.5623 5.78909V29.9928C41.5623 35.0883 39.6531 39.3686 36.0857 42.324C32.8198 44.9736 22.4695 49.6106 21.2636 50.1201C20.0577 49.6106 9.70737 44.9736 6.44149 42.273Z" fill="#330000"/>
<path id="Vector_2" d="M40.4581 5.48391C37.8454 5.22913 35.1322 5.07627 32.3688 5.07627C22.1189 5.07627 11.1656 7.3183 2.12164 15.7259V30.1462C2.12164 34.8341 3.82995 38.7577 7.09584 41.4583C9.95977 43.8022 18.8028 47.8786 21.315 48.9996C23.777 47.8786 32.5698 43.9041 35.5342 41.4583C38.8001 38.7067 40.5084 34.8851 40.5084 30.1462V5.48391M3.98069 28.6176V16.8979H7.64853V28.7704C7.64853 29.8405 7.89975 31.3692 9.60806 31.3692C10.211 31.3692 10.8139 31.2163 11.3666 30.9106V16.9488H15.0345V33.1016C13.3764 34.1717 11.4671 34.6812 9.50757 34.5793C5.83973 34.5793 3.98069 32.5921 3.98069 28.6176ZM20.5613 42.1716H16.8935V17.866C18.4008 16.9488 20.1091 16.4902 21.8677 16.5412C26.239 16.5412 28.6507 19.9042 28.6507 25.3564C28.6507 30.8086 26.2892 34.5284 22.2194 34.5284C21.6667 34.5284 21.114 34.4774 20.5613 34.3246V42.1716ZM20.5613 31.2672C20.9633 31.4201 21.3653 31.4711 21.7672 31.4711C23.8775 31.4711 24.8824 29.4838 24.8824 25.4074C24.8824 21.2291 23.978 19.4966 21.8677 19.4966C21.4155 19.4966 20.9633 19.5985 20.5613 19.7514V31.2672ZM29.4546 21.4329C29.5049 18.7323 31.7156 16.5412 34.3786 16.5921C35.8356 16.4902 37.2425 16.9488 38.3981 17.8151V21.0762C37.544 20.159 36.3381 19.5985 35.1322 19.5475C34.0771 19.5475 33.022 20.0061 32.9717 21.331C32.9215 22.7068 34.0268 23.2163 35.3834 24.0316C38.4484 25.866 39.0513 27.4966 38.9508 29.6876C38.9006 32.0825 37.2425 34.6812 33.6249 34.6812C32.218 34.6812 30.8112 34.2736 29.6053 33.5093V30.0953C30.56 30.9615 31.8161 31.522 33.1224 31.6239C34.479 31.6239 35.3332 30.8596 35.3332 29.5348C35.283 28.3628 34.6298 27.7513 33.022 26.7832C30.0073 24.8469 29.4546 23.3692 29.4546 21.4329ZM5.83973 42.936C2.12164 39.8787 0.162109 35.4456 0.162109 30.1462V4.9234C6.04071 1.76418 13.1252 0.18457 21.2648 0.18457C29.4044 0.18457 36.4888 1.76418 42.3674 4.9234V30.1462C42.3674 35.4456 40.4079 39.8787 36.6898 42.9869C33.2732 45.7895 22.5209 50.6302 21.2648 51.1398C20.0087 50.5793 9.25635 45.7895 5.83973 42.936ZM34.7303 48.2353V50.4264H35.1322V49.5092H35.1825C35.2327 49.5602 35.7854 50.4264 35.7854 50.4264H36.2376C36.2376 50.4264 35.6347 49.5602 35.5844 49.4582C35.8859 49.4073 36.0869 49.1525 36.0869 48.8977C36.0869 48.4901 35.7352 48.1844 35.3834 48.2353H34.7303ZM35.3332 48.541C35.6849 48.541 35.7352 48.6939 35.7352 48.8468C35.7352 49.0506 35.6347 49.2035 35.2327 49.2035H35.1825V48.541H35.3332ZM36.8405 49.3563C36.8405 50.6812 35.283 51.3436 34.3283 50.3754C33.3737 49.4073 34.0771 47.8277 35.3834 47.8277C36.1874 47.8786 36.8405 48.541 36.8405 49.3563ZM35.3834 47.5219C33.8259 47.5219 33.022 49.4582 34.1273 50.5793C35.2327 51.7003 37.142 50.9359 37.142 49.3054C37.142 48.3372 36.3381 47.5219 35.3834 47.5219Z" fill="#FFBE00"/>
</g>
</g>
</g>
<defs>
<clipPath id="clip0_3484_5918">
<rect width="42.2053" height="50.9552" fill="white" transform="translate(0.164062 0.18457)"/>
</clipPath>
</defs>
</svg>
