<svg width="236" height="80" viewBox="0 0 236 80" fill="none" xmlns="http://www.w3.org/2000/svg">
<g clip-path="url(#clip0_3484_5889)">
<path d="M169.012 50.008C169.012 47.8792 170.728 46.4277 172.689 46.4277C174.65 46.4277 176.367 47.8792 176.367 50.008C176.367 52.1368 174.65 53.5882 172.689 53.5882C170.777 53.5882 169.012 52.1368 169.012 50.008ZM172.738 49.6209C173.376 49.6209 173.523 49.2823 173.523 48.992C173.523 48.6533 173.327 48.363 172.738 48.363H171.954V49.6209H172.738ZM171.905 50.1531V52.1368H171.267V47.8308H172.885C173.817 47.8308 174.258 48.2179 174.258 49.0404C174.258 49.5242 173.915 49.9112 173.474 49.9596C173.866 50.008 173.964 50.3467 174.062 50.9272C174.111 51.3143 174.209 51.9916 174.356 52.1368H173.572C173.376 51.7497 173.425 51.1692 173.278 50.6853C173.179 50.2983 172.983 50.2015 172.542 50.2015L171.905 50.1531ZM175.68 50.008C175.68 48.2662 174.454 47.0083 172.738 47.0083C171.022 47.0083 169.796 48.2662 169.796 50.008C169.796 51.7497 171.022 53.0077 172.738 53.0077C174.405 53.0077 175.68 51.7497 175.68 50.008Z" fill="#FF6200"/>
<path d="M156.312 53.5893L152.095 48.8963L147.927 53.5893H139.102L147.731 44.0097L139.102 34.4785H148.222L152.487 39.1232L156.557 34.4785H165.334L156.753 44.0097L165.481 53.5893H156.312Z" fill="#FF6200"/>
<path d="M122.186 53.5886V23.4951H139.102V30.2202H129.344V34.4778H139.102V40.9126H129.344V46.8635H139.102V53.5886H122.186Z" fill="#FF6200"/>
<path d="M110.711 48.9923C108.064 48.9923 106.446 46.5732 106.446 44.0574C106.446 41.348 107.868 38.7838 110.711 38.7838C113.653 38.7838 114.83 41.3964 114.83 44.0574C114.83 46.6216 113.604 48.9923 110.711 48.9923ZM85.3617 41.0093C85.803 39.1224 87.323 37.8645 89.1862 37.8645C91.2456 37.8645 92.6675 39.0741 93.0598 41.0093H85.3617ZM115.026 23.4951V35.7841H114.928C113.359 33.994 111.349 33.365 109.093 33.365C104.386 33.365 100.856 36.5098 99.6301 40.6707C98.2082 36.0744 94.5798 33.2682 89.1372 33.2682C84.7243 33.2682 81.292 35.2035 79.4778 38.3967V34.4778H70.4068V30.2202H80.3113V23.4951H62.3164V53.5886H70.4068V40.9126H78.4971C78.252 41.8318 78.1049 42.8478 78.1049 43.8639C78.1049 50.1535 82.9591 54.5562 89.1862 54.5562C94.3837 54.5562 97.8159 52.1371 99.6792 47.7344H92.7166C91.7849 49.0407 91.0495 49.4278 89.1862 49.4278C87.0288 49.4278 85.1165 47.5409 85.1165 45.3153H99.2379C99.8263 50.2986 103.798 54.6046 109.191 54.6046C111.496 54.6046 113.653 53.4918 114.977 51.5566H115.075V53.4918H122.234V23.4951H115.026Z" fill="#4D148C"/>
</g>
<defs>
<clipPath id="clip0_3484_5889">
<rect width="114.05" height="31.1579" fill="white" transform="translate(62.3164 23.4951)"/>
</clipPath>
</defs>
</svg>
