<svg width="181" height="22" viewBox="0 0 181 22" fill="none" xmlns="http://www.w3.org/2000/svg">
<g id="us_postal_service_logo.svg" clip-path="url(#clip0_3484_5924)">
<path id="Vector" d="M31.4372 22.04L36.0499 0.786133H5.4681L0.855469 22.04H31.4372Z" fill="white"/>
<path id="Vector_2" d="M23.5963 5.24396C27.1481 6.05449 27.2403 6.91005 27.2403 6.91005C29.5466 6.91005 30.1463 6.91005 30.5614 7.31531C31.8991 8.53111 29.6389 11.5031 29.6389 11.5031C29.3621 11.6832 3.90039 21.4095 3.90039 21.4095H30.6998L34.9895 1.6416H6.20671C6.20671 1.6416 23.1812 5.1539 23.5963 5.24396Z" fill="#333366"/>
<path id="Vector_3" d="M26.2267 8.12618C25.8577 8.3063 24.7507 8.48642 24.3816 8.53145C24.0126 8.57648 23.8281 8.57648 23.8281 8.66654C23.8281 8.80163 24.3355 8.7566 24.52 8.7566C25.3503 8.7566 28.6253 8.53145 29.4094 8.66654C30.0091 8.7566 29.3172 9.92736 29.1327 10.6478C29.0865 10.918 29.271 10.7829 29.3633 10.6478C29.5939 10.2876 30.2397 9.11683 30.2858 8.66654C30.3781 7.76595 29.7323 7.63086 28.6253 7.63086H26.9186C26.7802 7.63086 26.7341 7.67589 26.688 7.76595C26.5496 7.90104 26.3189 8.03612 26.2267 8.12618Z" fill="#333366"/>
<path id="Vector_4" d="M15.6175 14.79L1.91797 21.4093L5.23906 6.23438H19.077C19.3076 6.23438 26.5033 6.23437 26.6417 7.63029H14.1876L16.1249 13.3941C18.3389 12.3584 23.7818 10.197 27.0568 10.0619C28.4406 10.0168 28.9941 10.242 28.7174 10.4221C28.5329 10.5122 27.1952 10.6923 26.1343 10.9625C24.2892 11.4128 24.197 11.4128 22.2597 12.0432C20.0917 12.7636 18.2928 13.5742 15.6175 14.79Z" fill="#333366"/>
<path id="Vector_5" d="M44.3065 21.8605C38.9558 21.8605 35.7731 19.7891 36.834 15.1511C38.5868 7.13585 39.74 1.77734 39.74 1.77734H44.2142C44.2142 1.77734 41.4928 14.1154 41.585 13.8452C40.8931 16.9072 41.585 18.7534 44.9984 18.7534C48.2734 18.7534 49.9339 16.9072 50.6258 13.8452C51.0409 12.0891 53.255 1.77734 53.255 1.77734H57.7293C54.731 15.1511 57.7293 1.77734 54.7772 15.1511C53.6701 19.7441 49.611 21.8605 44.3065 21.8605Z" fill="#333366"/>
<path id="Vector_6" d="M81.6234 13.9803C80.9316 13.9803 79.4555 13.8903 78.7175 13.7552L79.271 10.9183C79.8245 10.9634 80.5625 11.0534 81.2544 11.0534C84.2988 11.0534 85.4058 9.02709 85.6364 7.81129C86.0977 5.64988 84.9907 4.88438 83.3762 4.88438H79.7323L76.1344 21.5002H71.6602L75.9499 1.77734H85.6364C90.0184 1.77734 90.5258 5.51479 89.9723 7.99141C89.142 11.6838 85.5903 13.9803 81.6234 13.9803Z" fill="#333366"/>
<path id="Vector_7" d="M72.1668 4.92941H67.4158C64.9711 4.92941 63.9102 5.42473 63.6795 6.37035C62.9876 9.52241 71.7055 11.999 70.8752 16.8622C70.414 19.564 68.0154 21.5002 62.4341 21.5002H55.6074L56.2993 18.3482H61.7422C63.4489 18.3482 65.5246 18.4382 65.8936 16.7722C66.5394 13.9353 57.9599 11.1435 58.6056 6.41538C59.0208 3.57852 61.6038 1.77734 66.8161 1.77734H72.8125L72.1668 4.92941Z" fill="#333366"/>
<path id="Vector_8" d="M105.425 4.92843H100.674C98.2289 4.92843 97.168 5.42375 96.9373 6.36937C96.2454 9.52143 104.963 11.9981 104.133 16.8612C103.672 19.563 101.273 21.4993 95.6919 21.4993H88.8652L89.5571 18.3472H95.0462C96.7528 18.3472 98.8285 18.4373 99.1975 16.7712C99.8433 13.9343 91.2638 11.1425 91.9096 6.4144C92.3247 3.57755 94.9078 1.77637 100.12 1.77637H106.116L105.425 4.92843Z" fill="#333366"/>
<path id="Vector_9" d="M106.947 17.9873C105.979 17.9873 105.148 18.7528 105.148 19.7435C105.148 20.6891 105.933 21.4996 106.947 21.4996C107.916 21.4996 108.746 20.7341 108.746 19.7435C108.746 18.7528 107.916 17.9873 106.947 17.9873Z" fill="#333366"/>
<path id="Vector_10" fill-rule="evenodd" clip-rule="evenodd" d="M173.923 1.68652L169.541 21.4545H165.804L169.125 6.77485L160.223 21.4545H156.395L154.273 7.72047L151.182 21.4545H147.492L151.782 1.68652H157.133L159.393 16.231L168.065 1.68652H173.923Z" fill="#333366"/>
<path id="Vector_11" d="M118.756 21.8597C116.08 21.8597 113.682 21.2743 111.929 20.0135C110.176 18.7527 109.115 16.7714 109.115 14.1146C109.115 13.3041 109.207 12.4486 109.438 11.5029C110.914 4.43331 116.957 1.28125 123.092 1.28125C124.568 1.28125 126.182 1.46137 127.612 1.73154L127.935 1.77657L127.197 4.97366L126.92 4.92864C125.905 4.83858 125.213 4.74852 124.291 4.74852C123.461 4.74852 122.676 4.79355 121.8 4.88361C119.632 5.19881 118.986 5.55905 117.787 6.32455C115.988 7.40526 114.42 9.25146 113.866 11.6831C113.728 12.3135 113.636 12.8988 113.636 13.4392C113.636 15.1954 114.374 16.4111 115.665 17.2217C116.911 18.0322 118.756 18.4825 120.831 18.4825C122.077 18.4825 122.676 18.4375 123.876 18.3024L124.337 18.2574L123.645 21.3644L123.414 21.4094C121.754 21.6796 120.462 21.8597 118.756 21.8597Z" fill="#333366"/>
<path id="Vector_12" d="M139.142 1.6416C132.961 1.6416 127.841 4.79366 126.365 11.6832C125.166 17.2218 128.625 21.7698 134.76 21.7698C140.987 21.7698 145.969 18.7528 147.537 11.6832C148.736 5.9194 145.231 1.6416 139.142 1.6416ZM143.385 11.7282C142.417 16.6814 139.372 18.7978 135.544 18.7978C131.762 18.7978 129.686 15.6007 130.378 11.7282C131.3 6.86502 134.437 4.7036 138.219 4.7036C142.002 4.65857 144.17 7.67555 143.385 11.7282Z" fill="#333366"/>
<path id="Vector_13" d="M176.135 4.16342C176.135 2.99265 177.058 2.09206 178.211 2.09206C179.364 2.09206 180.286 2.99265 180.286 4.16342C180.286 5.37921 179.364 6.2798 178.211 6.2798C177.011 6.2798 176.135 5.37921 176.135 4.16342ZM175.674 4.16342C175.674 5.55933 176.827 6.64004 178.211 6.64004C179.595 6.64004 180.748 5.55933 180.748 4.16342C180.748 2.7675 179.595 1.73183 178.211 1.73183C176.827 1.6868 175.674 2.7675 175.674 4.16342ZM177.242 5.60436H177.703V4.38856H178.211L178.995 5.64939H179.502L178.672 4.38856C179.133 4.34353 179.456 4.11839 179.456 3.62306C179.456 3.08271 179.133 2.81253 178.441 2.81253H177.288V5.60436M177.703 3.08271H178.303C178.626 3.08271 178.949 3.12774 178.949 3.533C178.949 3.9833 178.58 4.02833 178.165 4.02833H177.703V3.08271Z" fill="#333366"/>
</g>
<defs>
<clipPath id="clip0_3484_5924">
<rect width="179.893" height="21.1638" fill="white" transform="translate(0.855469 0.786133)"/>
</clipPath>
</defs>
</svg>
