<svg width="236" height="80" viewBox="0 0 236 80" fill="none" xmlns="http://www.w3.org/2000/svg">
<g clip-path="url(#clip0_3484_5896)">
<path d="M41.8945 45.541H62.4061L61.2856 47.0877H41.8945V45.541Z" fill="#D40511"/>
<path d="M41.8945 42.6729H64.4901L63.3673 44.2164H41.8945V42.6729Z" fill="#D40511"/>
<path d="M41.8945 48.4121H60.3237L59.2078 49.9478H41.8945V48.4121Z" fill="#D40511"/>
<path d="M193.568 47.0881H173.137L174.256 45.543H193.568V47.0881Z" fill="#D40511"/>
<path d="M193.569 49.9478L171.061 49.9494L172.176 48.4121H193.569V49.9478Z" fill="#D40511"/>
<path d="M176.339 42.6729H193.569V44.218L175.219 44.2188L176.339 42.6729Z" fill="#D40511"/>
<path d="M61.7617 49.9484L71.4951 36.5381H83.5735C84.9085 36.5381 84.891 37.0521 84.239 37.9487C83.5764 38.859 82.4488 40.4243 81.774 41.3484C81.4315 41.8178 80.812 42.6731 82.8642 42.6731H99.0454C97.6997 44.5425 93.3344 49.9484 85.4967 49.9484H61.7617Z" fill="#D40511"/>
<path d="M117.504 42.6719L112.226 49.9482H98.3027C98.3027 49.9482 103.578 42.673 103.583 42.673L117.504 42.6719Z" fill="#D40511"/>
<path d="M137.638 42.6729L132.358 49.9481H118.439C118.439 49.9481 123.715 42.6729 123.72 42.6729H137.638Z" fill="#D40511"/>
<path d="M142.165 42.6726C142.165 42.6726 141.148 44.0831 140.653 44.76C138.905 47.1561 140.45 49.9471 146.156 49.9471H168.509L173.789 42.6719L142.165 42.6726Z" fill="#D40511"/>
<path d="M68.5686 28.1982L63.7227 34.8748H90.1332C91.468 34.8748 91.4506 35.3888 90.7981 36.2853C90.1356 37.1946 89.0265 38.7779 88.3517 39.702C88.0091 40.1704 87.3896 41.0256 89.442 41.0256H100.242C100.242 41.0256 101.983 38.6232 103.442 36.6149C105.427 33.8828 103.614 28.1982 96.5173 28.1982H68.5686Z" fill="#D40511"/>
<path d="M138.834 41.0256H104.779L114.092 28.1982H128.01L122.674 35.5528H128.886L134.227 28.1982H148.143L138.834 41.0256Z" fill="#D40511"/>
<path d="M167.419 28.1982L158.108 41.0256H143.359C143.359 41.0256 152.673 28.1982 152.678 28.1982H167.419Z" fill="#D40511"/>
</g>
<defs>
<clipPath id="clip0_3484_5896">
<rect width="151.674" height="21.7517" fill="white" transform="translate(41.8945 28.1982)"/>
</clipPath>
</defs>
</svg>
