<svg width="24" height="24" viewBox="0 0 24 24" fill="none" xmlns="http://www.w3.org/2000/svg">
<g id="location-pin-3--navigation-map-maps-pin-gps-location">
<path id="Vector" d="M18.4294 9.14342C18.4294 13.4291 12.0008 18.4291 12.0008 18.4291C12.0008 18.4291 5.57227 13.4291 5.57227 9.14342C5.57227 5.64199 8.49941 2.71484 12.0008 2.71484C15.5023 2.71484 18.4294 5.64199 18.4294 9.14342Z" stroke="#1E1F24" stroke-linecap="round" stroke-linejoin="round"/>
<path id="Vector_2" d="M12.0003 11.2857C13.1837 11.2857 14.1431 10.3263 14.1431 9.14286C14.1431 7.95939 13.1837 7 12.0003 7C10.8168 7 9.85742 7.95939 9.85742 9.14286C9.85742 10.3263 10.8168 11.2857 12.0003 11.2857Z" stroke="#1E1F24" stroke-linecap="round" stroke-linejoin="round"/>
<path id="Vector_3" d="M17.8253 16.2852H19.1434L21.2863 21.2852H2.71484L4.8577 16.2852H6.17585" stroke="#1E1F24" stroke-linecap="round" stroke-linejoin="round"/>
</g>
</svg>
