<svg width="212" height="88" viewBox="0 0 212 88" fill="none" xmlns="http://www.w3.org/2000/svg">
<path d="M140.614 16.957L132.977 22.3438L150.12 28.5412C151.252 28.9556 152.007 30.0365 152.007 31.2436V51.6916L157.182 47.9623V26.9739C157.146 24.5597 155.636 22.3978 153.372 21.5871L140.614 16.957Z" fill="#0066FF"/>
<path d="M147.046 29.1L136.588 39.5853H145.645L150.407 34.7931V31.0277C150.407 30.5773 150.119 30.199 149.706 30.0369L147.046 29.082V29.1Z" fill="#0066FF"/>
<path d="M175.853 41.3151L183.49 35.9284L166.347 29.7309C165.215 29.3165 164.46 28.2356 164.46 27.0285V6.5625L159.285 10.2918V31.2983C159.321 33.7124 160.831 35.8743 163.095 36.685L175.853 41.3151Z" fill="#0066FF"/>
<path d="M169.438 29.1727L179.897 18.6875H170.84L166.078 23.4797V27.245C166.078 27.6954 166.366 28.0738 166.779 28.2359L169.438 29.1908V29.1727Z" fill="#0066FF"/>
<path d="M92.9411 78.6991V80.1043C92.5817 80.3025 92.0785 80.4646 91.3957 80.6087C90.7128 80.7529 90.03 80.8069 89.3292 80.8069C87.7658 80.8069 86.6517 80.3926 85.9868 79.5999C85.3039 78.7891 84.9805 77.456 84.9805 75.6003C84.9805 73.7447 85.3399 72.5016 86.0407 71.6909C86.7415 70.8802 87.8556 70.4658 89.3831 70.4658C90.8027 70.4658 91.827 70.7901 92.4559 71.4207C93.0669 72.0692 93.3724 73.1322 93.3724 74.6275C93.3724 74.8977 93.3724 75.1499 93.3724 75.3842C93.3724 75.6184 93.3364 75.8886 93.2825 76.2129H86.6696C86.6696 77.3118 86.9032 78.1045 87.3525 78.591C87.8017 79.0594 88.5385 79.2936 89.6346 79.2936C90.2097 79.2936 90.8206 79.2395 91.4496 79.1314C92.0606 79.0234 92.5817 78.8792 92.977 78.7171L92.9411 78.6991ZM91.8449 74.3933C91.8449 73.5105 91.6473 72.8799 91.2519 72.5016C90.8746 72.1413 90.2456 71.9431 89.3651 71.9431C88.3588 71.9431 87.658 72.1413 87.2626 72.5737C86.8493 73.0061 86.6517 73.7447 86.6517 74.8076H91.827C91.827 74.8076 91.827 74.7176 91.827 74.6095C91.827 74.5014 91.827 74.4293 91.827 74.3933H91.8449Z" fill="#051063"/>
<path d="M99.3194 75.4382L102.644 80.6267H100.811L98.2952 76.5732L95.7974 80.6267H94.0723L97.3967 75.4382L94.216 70.6279H96.1747L98.403 74.3212L100.775 70.6279H102.536L99.3374 75.4201L99.3194 75.4382Z" fill="#051063"/>
<path d="M105.628 83.7074H103.975V70.6459H105.412L105.52 71.5287H105.574C105.987 71.1683 106.49 70.9161 107.065 70.7179C107.64 70.5198 108.269 70.4297 108.916 70.4297C110.264 70.4297 111.252 70.844 111.827 71.6367C112.42 72.4475 112.708 73.7626 112.708 75.6002C112.708 77.4379 112.349 78.753 111.63 79.5637C110.911 80.3744 109.725 80.7708 108.072 80.7708C107.569 80.7708 107.119 80.7348 106.706 80.6627C106.293 80.5906 105.951 80.5006 105.628 80.3564V83.7074ZM111.037 75.6183C111.037 74.2491 110.839 73.2762 110.462 72.7537C110.084 72.2133 109.366 71.943 108.323 71.943C107.82 71.943 107.353 72.0151 106.904 72.1412C106.454 72.2853 106.023 72.5015 105.628 72.7537V78.8431C105.969 78.9692 106.311 79.0773 106.67 79.1494C107.029 79.2214 107.425 79.2575 107.874 79.2575C109.114 79.2575 109.977 78.9872 110.39 78.4828C110.821 77.9603 111.037 77.0055 111.037 75.6183Z" fill="#051063"/>
<path d="M115.673 80.6451H114.02V70.6463H115.529L115.601 71.493H115.691C116.212 71.1868 116.733 70.9526 117.254 70.8084C117.775 70.6463 118.296 70.5742 118.817 70.5742H119.267C119.267 70.5742 119.392 70.5742 119.446 70.5742V72.1776C119.446 72.1776 119.249 72.1416 119.087 72.1416C118.943 72.1416 118.728 72.1416 118.422 72.1416C117.937 72.1416 117.47 72.1956 117.003 72.3218C116.535 72.4479 116.086 72.61 115.673 72.8442V80.6631V80.6451Z" fill="#051063"/>
<path d="M127.929 78.6991V80.1043C127.57 80.3025 127.067 80.4646 126.384 80.6087C125.701 80.7529 125.018 80.8069 124.317 80.8069C122.754 80.8069 121.64 80.3926 120.975 79.5999C120.292 78.7891 119.969 77.456 119.969 75.6003C119.969 73.7447 120.328 72.5016 121.029 71.6909C121.73 70.8802 122.844 70.4658 124.371 70.4658C125.791 70.4658 126.815 70.7901 127.444 71.4207C128.055 72.0692 128.361 73.1322 128.361 74.6275C128.361 74.8977 128.361 75.1499 128.361 75.3842C128.361 75.6184 128.325 75.8886 128.271 76.2129H121.658C121.658 77.3118 121.892 78.1045 122.341 78.591C122.79 79.0594 123.527 79.2936 124.623 79.2936C125.198 79.2936 125.809 79.2395 126.438 79.1314C127.067 79.0234 127.57 78.8792 127.965 78.7171L127.929 78.6991ZM126.851 74.3933C126.851 73.5105 126.654 72.8799 126.258 72.5016C125.881 72.1413 125.252 71.9431 124.371 71.9431C123.365 71.9431 122.664 72.1413 122.269 72.5737C121.856 73.0061 121.658 73.7447 121.658 74.8076H126.833C126.833 74.8076 126.833 74.7176 126.833 74.6095V74.3933H126.851Z" fill="#051063"/>
<path d="M133.751 71.9427C132.888 71.9427 132.295 72.0508 131.954 72.249C131.612 72.4471 131.45 72.8615 131.45 73.4921C131.45 73.8163 131.522 74.0686 131.684 74.2307C131.846 74.3928 132.079 74.519 132.421 74.573L134.973 74.9513C135.781 75.0774 136.338 75.3117 136.662 75.708C136.985 76.1044 137.147 76.6989 137.147 77.5096C137.147 78.6806 136.859 79.5093 136.32 80.0318C135.763 80.5543 134.847 80.8065 133.571 80.8065C132.816 80.8065 132.097 80.7705 131.433 80.6804C130.768 80.5903 130.229 80.4822 129.797 80.3561V78.7887C130.229 78.9148 130.75 79.0409 131.379 79.131C132.008 79.2211 132.637 79.2571 133.301 79.2571C134.146 79.2571 134.703 79.131 135.026 78.8968C135.332 78.6626 135.494 78.2122 135.494 77.5997C135.494 77.2213 135.404 76.9151 135.224 76.7529C135.044 76.5908 134.721 76.4466 134.272 76.3926L131.72 76.0143C131.073 75.9242 130.588 75.672 130.282 75.2576C129.977 74.8432 129.797 74.2667 129.779 73.5101C129.779 72.4651 130.085 71.6905 130.714 71.204C131.343 70.7176 132.295 70.4834 133.607 70.4834C134.146 70.4834 134.631 70.4834 135.08 70.5194C135.53 70.5555 135.979 70.5915 136.464 70.6816V72.1589C136.105 72.1048 135.709 72.0508 135.224 72.0328C134.775 71.9967 134.272 71.9607 133.733 71.9607L133.751 71.9427Z" fill="#051063"/>
<path d="M142.43 71.9427C141.568 71.9427 140.975 72.0508 140.633 72.249C140.292 72.4471 140.13 72.8615 140.13 73.4921C140.13 73.8163 140.202 74.0686 140.364 74.2307C140.526 74.3928 140.759 74.519 141.101 74.573L143.67 74.9513C144.479 75.0774 145.036 75.3117 145.359 75.708C145.683 76.1044 145.845 76.6989 145.845 77.5096C145.845 78.6806 145.557 79.5093 145.018 80.0318C144.461 80.5543 143.544 80.8065 142.269 80.8065C141.514 80.8065 140.795 80.7705 140.13 80.6804C139.465 80.5903 138.926 80.4822 138.495 80.3561V78.7887C138.926 78.9148 139.447 79.0409 140.076 79.131C140.705 79.2211 141.334 79.2571 141.999 79.2571C142.844 79.2571 143.401 79.131 143.724 78.8968C144.03 78.6626 144.191 78.2122 144.191 77.5997C144.191 77.2213 144.101 76.9151 143.922 76.7529C143.742 76.5908 143.419 76.4466 142.969 76.3926L140.4 76.0143C139.753 75.9242 139.268 75.672 138.962 75.2576C138.639 74.8432 138.477 74.2667 138.459 73.5101C138.459 72.4651 138.764 71.6905 139.393 71.204C140.022 70.7176 140.975 70.4834 142.287 70.4834C142.826 70.4834 143.311 70.4834 143.76 70.5194C144.209 70.5555 144.659 70.5915 145.144 70.6816V72.1589C144.784 72.1048 144.389 72.0508 143.904 72.0328C143.455 71.9967 142.951 71.9607 142.412 71.9607L142.43 71.9427Z" fill="#051063"/>
<path d="M16.0489 45.9102V49.8556H10.622V64.4845H6.68664V49.8556H1.25977V45.9102H16.0489Z" fill="#051063"/>
<path d="M18.2949 45.9092H22.2303V53.2056H30.0831V45.9092H34.0185V64.4655H30.0831V57.1691H22.2303V64.4655H18.2949V45.9092Z" fill="#051063"/>
<path d="M49.5078 45.9096V49.8551H40.7205V53.206H47.8366V57.1515H40.7205V60.5205H49.5078V64.466H36.7852V45.8916H49.5078V45.9096Z" fill="#051063"/>
<path d="M52.2578 45.9092H56.1932V53.2056H64.046V45.9092H67.9814V64.4655H64.046V57.1691H56.1932V64.4655H52.2578V45.9092Z" fill="#051063"/>
<path d="M70.748 57.1511V45.9092H74.6834V57.1511C74.6834 58.232 75.0608 59.1508 75.8335 59.9255C76.6062 60.7002 77.5227 61.0785 78.6188 61.0785C79.715 61.0785 80.6135 60.7002 81.3862 59.9255C82.1589 59.1508 82.5362 58.232 82.5362 57.1511V45.9092H86.4716V57.1511C86.4716 59.331 85.6989 61.1866 84.1715 62.718C82.644 64.2493 80.7932 65.024 78.6188 65.024C76.4445 65.024 74.5936 64.2493 73.0662 62.718C71.5207 61.1866 70.748 59.331 70.748 57.1511Z" fill="#051063"/>
<path d="M92.2767 45.9092L98.4943 54.2505L104.73 45.9092H107.749V64.4655H103.813V53.692L99.3928 59.6193H97.5958L93.1573 53.638V64.4655H89.2578V45.9092H92.2947H92.2767Z" fill="#051063"/>
<path d="M123.993 62.2135H114.487L113.427 64.4655H109.061L117.758 45.9092H120.669L129.366 64.4655H125.036L123.975 62.2135H123.993ZM122.161 58.2861L119.249 52.0706L116.338 58.2861H122.161Z" fill="#051063"/>
<path d="M134.631 53.5479V64.4835H130.695V45.9092H133.912L141.908 56.8448V45.9092H145.844V64.4655H142.627L134.631 53.5479Z" fill="#051063"/>
</svg>
