<svg width="24" height="24" viewBox="0 0 24 24" fill="none" xmlns="http://www.w3.org/2000/svg">
<g id="Button Icon/M">
<g id="g10">
<g id="g12">
<path id="path14" d="M23.0915 5.74038C22.8203 4.72252 22.0213 3.921 21.0065 3.64898C19.1673 3.1546 11.7922 3.1546 11.7922 3.1546C11.7922 3.1546 4.41716 3.1546 2.57792 3.64898C1.56322 3.921 0.764022 4.72252 0.492824 5.74038C0 7.58518 0 11.4342 0 11.4342C0 11.4342 0 15.2832 0.492824 17.1282C0.764022 18.1459 1.56322 18.9475 2.57792 19.2196C4.41716 19.7139 11.7922 19.7139 11.7922 19.7139C11.7922 19.7139 19.1673 19.7139 21.0065 19.2196C22.0213 18.9475 22.8203 18.1459 23.0915 17.1282C23.5844 15.2832 23.5844 11.4342 23.5844 11.4342C23.5844 11.4342 23.5844 7.58518 23.0915 5.74038Z" fill="#ED1D24"/>
<path id="path16" d="M9.38086 14.9287L15.545 11.4342L9.38086 7.93943V14.9287Z" fill="white"/>
</g>
</g>
</g>
</svg>
